SplineFontDB: 3.2
FontName: IRPooya
FullName: IRPooya
FamilyName: IRPooya
Weight: Book
Copyright: Copyright (c) 2022, Information Technology Organization of Iran (ito.gov.ir)
Version: 1.001
ItalicAngle: 0
UnderlinePosition: -100
UnderlineWidth: 60
Ascent: 1638
Descent: 410
InvalidEm: 0
sfntRevision: 0x00010042
LayerCount: 2
Layer: 0 1 "Back" 1
Layer: 1 1 "Fore" 0
XUID: [1021 420 722297922 12632409]
StyleMap: 0x0040
FSType: 0
OS2Version: 3
OS2_WeightWidthSlopeOnly: 0
OS2_UseTypoMetrics: 0
CreationTime: 1356355895
ModificationTime: 1662630438
PfmFamily: 17
TTFWeight: 400
TTFWidth: 5
LineGap: 100
VLineGap: 0
Panose: 2 0 5 3 0 0 0 2 0 2
OS2TypoAscent: 1906
OS2TypoAOffset: 0
OS2TypoDescent: -1222
OS2TypoDOffset: 0
OS2TypoLinegap: 1500
OS2WinAscent: 1906
OS2WinAOffset: 0
OS2WinDescent: 1222
OS2WinDOffset: 0
HheadAscent: 1906
HheadAOffset: 0
HheadDescent: -1222
HheadDOffset: 0
OS2SubXSize: 1434
OS2SubYSize: 1331
OS2SubXOff: 0
OS2SubYOff: 293
OS2SupXSize: 1434
OS2SupYSize: 1331
OS2SupXOff: 0
OS2SupYOff: 930
OS2StrikeYSize: 50
OS2StrikeYPos: 250
OS2CapHeight: 1885
OS2XHeight: 232
OS2FamilyClass: 2048
OS2Vendor: 'PARS'
OS2CodePages: 20000041.00000000
OS2UnicodeRanges: 00002003.00000000.00000000.00000000
Lookup: 1 1 0 "'isol' Isolated Forms in Arabic lookup 0" { "'isol' Isolated Forms in Arabic lookup 0 subtable"  } ['isol' ('arab' <'dflt' > ) ]
Lookup: 1 1 0 "'init' Initial Forms in Arabic lookup 1" { "'init' Initial Forms in Arabic lookup 1 subtable"  } ['init' ('arab' <'dflt' > ) ]
Lookup: 1 1 0 "'fina' Terminal Forms in Arabic lookup 2" { "'fina' Terminal Forms in Arabic lookup 2 subtable"  } ['fina' ('arab' <'dflt' > ) ]
Lookup: 1 1 0 "'medi' Medial Forms in Arabic lookup 3" { "'medi' Medial Forms in Arabic lookup 3 subtable"  } ['medi' ('arab' <'dflt' > ) ]
Lookup: 4 1 0 "'ccmp' Glyph Composition/Decomposition in Arabic lookup 4" { "'ccmp' Glyph Composition/Decomposition in Arabic lookup 4 subtable"  } ['ccmp' ('arab' <'dflt' > ) ]

StartChar: quotedbl
Encoding: 34 34 4
Width: 781
Flags: W
LayerCount: 2
Fore
SplineSet
219 851 m 1,0,1
 213 877 213 877 209.5 897 c 128,-1,2
 206 917 206 917 204 925 c 0,3,4
 183 1023 183 1023 171.5 1092 c 128,-1,5
 160 1161 160 1161 160 1185 c 0,6,7
 160 1236 160 1236 183 1266 c 128,-1,8
 206 1296 206 1296 245 1296 c 0,9,10
 263 1296 263 1296 278.5 1288 c 128,-1,11
 294 1280 294 1280 305.5 1266 c 128,-1,12
 317 1252 317 1252 323.5 1233 c 128,-1,13
 330 1214 330 1214 330 1192 c 0,14,15
 330 1179 330 1179 327 1156 c 128,-1,16
 324 1133 324 1133 317.5 1093.5 c 128,-1,17
 311 1054 311 1054 299.5 995 c 128,-1,18
 288 936 288 936 271 851 c 1,19,-1
 219 851 l 1,0,1
519 851 m 1,20,21
 513 877 513 877 509.5 897 c 128,-1,22
 506 917 506 917 504 925 c 0,23,24
 483 1023 483 1023 471.5 1092 c 128,-1,25
 460 1161 460 1161 460 1185 c 0,26,27
 460 1236 460 1236 483 1266 c 128,-1,28
 506 1296 506 1296 545 1296 c 0,29,30
 563 1296 563 1296 578.5 1288 c 128,-1,31
 594 1280 594 1280 605.5 1266 c 128,-1,32
 617 1252 617 1252 623.5 1233 c 128,-1,33
 630 1214 630 1214 630 1192 c 0,34,35
 630 1179 630 1179 627 1156 c 128,-1,36
 624 1133 624 1133 617.5 1093.5 c 128,-1,37
 611 1054 611 1054 599.5 995 c 128,-1,38
 588 936 588 936 571 851 c 1,39,-1
 519 851 l 1,20,21
EndSplineSet
EndChar

StartChar: quotesingle
Encoding: 39 39 5
Width: 447
Flags: W
LayerCount: 2
Fore
SplineSet
222 851 m 1,0,1
 216 877 216 877 212.5 897 c 128,-1,2
 209 917 209 917 207 925 c 0,3,4
 186 1023 186 1023 174.5 1092 c 128,-1,5
 163 1161 163 1161 163 1185 c 0,6,7
 163 1236 163 1236 186 1266 c 128,-1,8
 209 1296 209 1296 248 1296 c 0,9,10
 266 1296 266 1296 281.5 1288 c 128,-1,11
 297 1280 297 1280 308.5 1266 c 128,-1,12
 320 1252 320 1252 326.5 1233 c 128,-1,13
 333 1214 333 1214 333 1192 c 0,14,15
 333 1179 333 1179 330 1156 c 128,-1,16
 327 1133 327 1133 320.5 1093.5 c 128,-1,17
 314 1054 314 1054 302.5 995 c 128,-1,18
 291 936 291 936 274 851 c 1,19,-1
 222 851 l 1,0,1
EndSplineSet
EndChar

StartChar: asterisk
Encoding: 42 42 6
Width: 1126
Flags: W
LayerCount: 2
Fore
SplineSet
568 347 m 1,0,-1
 574 687 l 1,1,-1
 355 467 l 1,2,-1
 250 467 l 1,3,-1
 527 746 l 1,4,-1
 203 746 l 1,5,-1
 223 839 l 1,6,-1
 547 839 l 1,7,-1
 277 1104 l 1,8,-1
 370 1104 l 1,9,-1
 579 899 l 1,10,-1
 585 1199 l 1,11,-1
 704 1239 l 1,12,-1
 699 912 l 1,13,-1
 905 1104 l 1,14,-1
 1013 1104 l 1,15,-1
 730 839 l 1,16,-1
 1065 839 l 1,17,-1
 1043 746 l 1,18,-1
 729 746 l 1,19,-1
 1002 467 l 1,20,-1
 910 467 l 1,21,-1
 696 687 l 1,22,-1
 688 386 l 1,23,-1
 568 347 l 1,0,-1
EndSplineSet
EndChar

StartChar: plus
Encoding: 43 43 7
Width: 1115
GlyphClass: 2
Flags: W
LayerCount: 2
Fore
SplineSet
1002 450 m 1,0,-1
 665 450 l 1,1,-1
 665 97 l 1,2,-1
 516 97 l 1,3,-1
 516 450 l 1,4,-1
 163 450 l 1,5,-1
 163 604 l 1,6,-1
 516 604 l 1,7,-1
 516 940 l 1,8,-1
 665 940 l 1,9,-1
 665 604 l 1,10,-1
 1002 604 l 1,11,-1
 1002 450 l 1,0,-1
EndSplineSet
EndChar

StartChar: hyphen
Encoding: 45 45 8
Width: 1187
Flags: W
LayerCount: 2
Fore
SplineSet
1002 450 m 1,0,-1
 163 450 l 1,1,-1
 163 604 l 1,2,-1
 1002 604 l 1,3,-1
 1002 450 l 1,0,-1
EndSplineSet
EndChar

StartChar: period
Encoding: 46 46 9
Width: 552
GlyphClass: 2
Flags: W
LayerCount: 2
Fore
SplineSet
486 138 m 0,0,1
 486 79 486 79 446.5 39 c 128,-1,2
 407 -1 407 -1 348 -1 c 256,3,4
 289 -1 289 -1 249.5 39 c 128,-1,5
 210 79 210 79 210 138 c 0,6,7
 210 196 210 196 250 236 c 128,-1,8
 290 276 290 276 348 276 c 256,9,10
 406 276 406 276 446 236 c 128,-1,11
 486 196 486 196 486 138 c 0,0,1
EndSplineSet
EndChar

StartChar: slash
Encoding: 47 47 10
Width: 752
Flags: W
LayerCount: 2
Fore
SplineSet
630 1194 m 1,0,-1
 163 -86 l 1,1,-1
 39 -71 l 1,2,-1
 506 1209 l 1,3,-1
 630 1194 l 1,0,-1
EndSplineSet
EndChar

StartChar: less
Encoding: 60 60 11
Width: 992
Flags: W
LayerCount: 2
Fore
SplineSet
54 367 m 1,0,-1
 54 513 l 1,1,-1
 938 902 l 1,2,-1
 938 734 l 1,3,-1
 268 440 l 1,4,-1
 938 146 l 1,5,-1
 938 -21 l 1,6,-1
 54 367 l 1,0,-1
EndSplineSet
EndChar

StartChar: equal
Encoding: 61 61 12
Width: 969
Flags: W
LayerCount: 2
Fore
SplineSet
840 284 m 1,0,-1
 118 284 l 1,1,-1
 118 406 l 1,2,-1
 840 406 l 1,3,-1
 840 284 l 1,0,-1
840 542 m 1,4,-1
 118 542 l 1,5,-1
 118 664 l 1,6,-1
 840 664 l 1,7,-1
 840 542 l 1,4,-1
EndSplineSet
EndChar

StartChar: greater
Encoding: 62 62 13
Width: 992
Flags: W
LayerCount: 2
Fore
SplineSet
54 146 m 1,0,-1
 724 440 l 1,1,-1
 54 734 l 1,2,-1
 54 902 l 1,3,-1
 938 513 l 1,4,-1
 938 367 l 1,5,-1
 54 -21 l 1,6,-1
 54 146 l 1,0,-1
EndSplineSet
EndChar

StartChar: bracketleft
Encoding: 91 91 14
Width: 568
GlyphClass: 2
Flags: W
LayerCount: 2
Fore
SplineSet
514 -254 m 1,0,-1
 114 -254 l 1,1,-1
 114 1157 l 1,2,-1
 514 1157 l 1,3,-1
 514 1101 l 1,4,-1
 406 1101 l 2,5,6
 370 1101 370 1101 347.5 1096 c 128,-1,7
 325 1091 325 1091 312.5 1077.5 c 128,-1,8
 300 1064 300 1064 295.5 1041 c 128,-1,9
 291 1018 291 1018 291 981 c 2,10,-1
 291 -108 l 2,11,12
 291 -135 291 -135 295 -152.5 c 128,-1,13
 299 -170 299 -170 308.5 -180 c 128,-1,14
 318 -190 318 -190 334.5 -194 c 128,-1,15
 351 -198 351 -198 377 -198 c 2,16,-1
 514 -198 l 1,17,-1
 514 -254 l 1,0,-1
EndSplineSet
EndChar

StartChar: bracketright
Encoding: 93 93 15
Width: 568
GlyphClass: 2
Flags: W
LayerCount: 2
Fore
SplineSet
55 -198 m 1,0,-1
 191 -198 l 2,1,2
 218 -198 218 -198 234.5 -194.5 c 128,-1,3
 251 -191 251 -191 260 -181 c 128,-1,4
 269 -171 269 -171 272.5 -153.5 c 128,-1,5
 276 -136 276 -136 276 -108 c 2,6,-1
 276 981 l 2,7,8
 276 1018 276 1018 272 1041 c 128,-1,9
 268 1064 268 1064 255.5 1077.5 c 128,-1,10
 243 1091 243 1091 220.5 1096 c 128,-1,11
 198 1101 198 1101 163 1101 c 2,12,-1
 55 1101 l 1,13,-1
 55 1157 l 1,14,-1
 454 1157 l 1,15,-1
 454 -254 l 1,16,-1
 55 -254 l 1,17,-1
 55 -198 l 1,0,-1
EndSplineSet
EndChar

StartChar: grave
Encoding: 96 96 16
Width: 568
Flags: W
LayerCount: 2
Fore
SplineSet
345 864 m 1,0,-1
 81 1030 l 2,1,2
 59 1047 59 1047 45.5 1065 c 128,-1,3
 32 1083 32 1083 32 1103 c 0,4,5
 32 1128 32 1128 48 1142.5 c 128,-1,6
 64 1157 64 1157 91 1157 c 0,7,8
 109 1157 109 1157 124 1148.5 c 128,-1,9
 139 1140 139 1140 163 1117 c 2,10,-1
 414 864 l 1,11,-1
 345 864 l 1,0,-1
EndSplineSet
EndChar

StartChar: braceleft
Encoding: 123 123 17
Width: 672
GlyphClass: 2
Flags: W
LayerCount: 2
Fore
SplineSet
220 247 m 2,0,1
 220 292 220 292 211.5 324 c 128,-1,2
 203 356 203 356 182.5 378.5 c 128,-1,3
 162 401 162 401 126.5 416.5 c 128,-1,4
 91 432 91 432 37 446 c 1,5,6
 91 459 91 459 126.5 474.5 c 128,-1,7
 162 490 162 490 182.5 512.5 c 128,-1,8
 203 535 203 535 211.5 566.5 c 128,-1,9
 220 598 220 598 220 643 c 2,10,-1
 220 949 l 2,11,12
 220 1089 220 1089 306 1141 c 0,13,14
 326 1154 326 1154 350 1163.5 c 128,-1,15
 374 1173 374 1173 406 1179 c 128,-1,16
 438 1185 438 1185 480.5 1187.5 c 128,-1,17
 523 1190 523 1190 580 1191 c 1,18,-1
 580 1170 l 1,19,20
 528 1159 528 1159 494 1143 c 128,-1,21
 460 1127 460 1127 438 1102 c 128,-1,22
 416 1077 416 1077 407.5 1042 c 128,-1,23
 399 1007 399 1007 399 958 c 2,24,-1
 399 667 l 2,25,26
 399 613 399 613 390 576.5 c 128,-1,27
 381 540 381 540 358 515 c 128,-1,28
 335 490 335 490 296.5 474.5 c 128,-1,29
 258 459 258 459 198 446 c 1,30,31
 258 433 258 433 296.5 417 c 128,-1,32
 335 401 335 401 358 376 c 128,-1,33
 381 351 381 351 390 314 c 128,-1,34
 399 277 399 277 399 223 c 2,35,-1
 399 -69 l 2,36,37
 399 -118 399 -118 408 -152.5 c 128,-1,38
 417 -187 417 -187 439 -211.5 c 128,-1,39
 461 -236 461 -236 495.5 -252.5 c 128,-1,40
 530 -269 530 -269 580 -278 c 1,41,-1
 580 -298 l 1,42,43
 517 -298 517 -298 470.5 -294.5 c 128,-1,44
 424 -291 424 -291 390 -283.5 c 128,-1,45
 356 -276 356 -276 331 -264.5 c 128,-1,46
 306 -253 306 -253 286 -236 c 0,47,48
 252 -208 252 -208 236 -165 c 128,-1,49
 220 -122 220 -122 220 -59 c 2,50,-1
 220 247 l 2,0,1
EndSplineSet
EndChar

StartChar: bar
Encoding: 124 124 18
Width: 375
Flags: W
LayerCount: 2
Fore
SplineSet
113 1179 m 1,0,-1
 263 1179 l 1,1,-1
 263 -32 l 1,2,-1
 113 -32 l 1,3,-1
 113 1179 l 1,0,-1
EndSplineSet
EndChar

StartChar: asciitilde
Encoding: 126 126 19
Width: 887
Flags: W
LayerCount: 2
Fore
SplineSet
838 443 m 1,0,1
 808 403 808 403 783.5 375.5 c 128,-1,2
 759 348 759 348 734 331 c 128,-1,3
 709 314 709 314 683.5 306 c 128,-1,4
 658 298 658 298 628 298 c 0,5,6
 607 298 607 298 587 301 c 128,-1,7
 567 304 567 304 546 311 c 128,-1,8
 525 318 525 318 501.5 328.5 c 128,-1,9
 478 339 478 339 449 355 c 0,10,11
 389 386 389 386 346 400.5 c 128,-1,12
 303 415 303 415 258 415 c 0,13,14
 220 415 220 415 195 399 c 128,-1,15
 170 383 170 383 140 343 c 1,16,-1
 49 421 l 1,17,18
 93 498 93 498 142.5 531 c 128,-1,19
 192 564 192 564 261 564 c 0,20,21
 282 564 282 564 302 561.5 c 128,-1,22
 322 559 322 559 348 551 c 128,-1,23
 374 543 374 543 408 528.5 c 128,-1,24
 442 514 442 514 490 493 c 0,25,26
 519 480 519 480 540.5 472 c 128,-1,27
 562 464 562 464 577.5 458.5 c 128,-1,28
 593 453 593 453 605 451 c 128,-1,29
 617 449 617 449 628 449 c 0,30,31
 658 449 658 449 685 466.5 c 128,-1,32
 712 484 712 484 744 525 c 1,33,-1
 838 443 l 1,0,1
EndSplineSet
EndChar

StartChar: agrave
Encoding: 224 224 20
Width: 1075
Flags: W
LayerCount: 2
Fore
SplineSet
741 331 m 1,0,1
 720 266 720 266 690.5 213 c 128,-1,2
 661 160 661 160 626 114 c 0,3,4
 519 -19 519 -19 400 -19 c 0,5,6
 208 -19 208 -19 159 214 c 0,7,8
 133 334 133 334 157 451 c 128,-1,9
 181 568 181 568 252 683 c 0,10,11
 325 801 325 801 433 860 c 128,-1,12
 541 919 541 919 684 919 c 0,13,14
 712 919 712 919 746 918.5 c 128,-1,15
 780 918 780 918 815.5 916 c 128,-1,16
 851 914 851 914 886 912 c 128,-1,17
 921 910 921 910 952 908 c 1,18,-1
 946 646 l 1,19,-1
 946 647 l 1,20,-1
 950 254 l 2,21,22
 952 209 952 209 954.5 179.5 c 128,-1,23
 957 150 957 150 958 139 c 0,24,25
 961 114 961 114 985 114 c 0,26,27
 1053 114 1053 114 1214 346 c 1,28,-1
 1218 179 l 1,29,30
 1073 -19 1073 -19 925 -19 c 0,31,32
 785 -19 785 -19 753 126 c 0,33,34
 749 146 749 146 747 182 c 128,-1,35
 745 218 745 218 745 264 c 2,36,-1
 741 331 l 1,0,1
737 758 m 1,37,38
 688 775 688 775 647 783.5 c 128,-1,39
 606 792 606 792 561 792 c 0,40,41
 497 792 497 792 453.5 749.5 c 128,-1,42
 410 707 410 707 387 625 c 0,43,44
 362 522 362 522 357 425 c 128,-1,45
 352 328 352 328 368 248 c 0,46,47
 388 146 388 146 437 146 c 0,48,49
 493 146 493 146 589 280 c 0,50,51
 637 352 637 352 674 430 c 128,-1,52
 711 508 711 508 739 599 c 1,53,-1
 737 758 l 1,37,38
634 519 m 1,54,-1
 370 685 l 2,55,56
 348 702 348 702 334.5 720 c 128,-1,57
 321 738 321 738 321 758 c 0,58,59
 321 783 321 783 337 797.5 c 128,-1,60
 353 812 353 812 380 812 c 0,61,62
 398 812 398 812 413 803.5 c 128,-1,63
 428 795 428 795 452 772 c 2,64,-1
 703 519 l 1,65,-1
 634 519 l 1,54,-1
EndSplineSet
EndChar

StartChar: ocircumflex.001
Encoding: 65539 -1 26
Width: 1112
Flags: W
LayerCount: 2
Fore
SplineSet
416 -19 m 0,0,1
 301 -19 301 -19 205 70 c 0,2,3
 110 160 110 160 85 288 c 0,4,5
 32 528 32 528 170 726 c 0,6,7
 307 928 307 928 522 928 c 0,8,9
 643 928 643 928 742 842 c 1,10,11
 837 753 837 753 864 626 c 0,12,13
 890 499 890 499 869 388.5 c 128,-1,14
 848 278 848 278 781 179 c 0,15,16
 711 79 711 79 619.5 30 c 128,-1,17
 528 -19 528 -19 416 -19 c 0,0,1
483 98 m 0,18,19
 536 98 536 98 573.5 133 c 128,-1,20
 611 168 611 168 637 236 c 0,21,22
 665 310 665 310 668.5 393.5 c 128,-1,23
 672 477 672 477 652 574 c 0,24,25
 602 813 602 813 466 813 c 0,26,27
 365 813 365 813 313 670 c 0,28,29
 284 595 284 595 281 510.5 c 128,-1,30
 278 426 278 426 298 332 c 0,31,32
 324 213 324 213 370 155.5 c 128,-1,33
 416 98 416 98 483 98 c 0,18,19
EndSplineSet
EndChar

StartChar: dagger
Encoding: 8224 8224 30
Width: 932
Flags: W
LayerCount: 2
Fore
SplineSet
347 -231 m 1,0,-1
 567 622 l 1,1,-1
 248 592 l 1,2,-1
 297 700 l 1,3,-1
 576 668 l 1,4,-1
 607 1066 l 1,5,-1
 755 1093 l 1,6,-1
 621 668 l 1,7,-1
 941 700 l 1,8,-1
 895 592 l 1,9,-1
 612 622 l 1,10,-1
 496 -213 l 1,11,-1
 347 -231 l 1,0,-1
EndSplineSet
EndChar

StartChar: degree
Encoding: 176 176 31
Width: 409
Flags: W
LayerCount: 2
Fore
SplineSet
395 844 m 0,0,1
 344 844 344 844 307.5 880 c 128,-1,2
 271 916 271 916 271 968 c 0,3,4
 271 1021 271 1021 307.5 1057 c 128,-1,5
 344 1093 344 1093 395 1093 c 0,6,7
 447 1093 447 1093 483 1057 c 128,-1,8
 519 1021 519 1021 519 968 c 0,9,10
 519 916 519 916 483 880 c 128,-1,11
 447 844 447 844 395 844 c 0,0,1
395 888 m 256,12,13
 427 888 427 888 450.5 912 c 128,-1,14
 474 936 474 936 474 968 c 256,15,16
 474 1000 474 1000 450.5 1024 c 128,-1,17
 427 1048 427 1048 395 1048 c 256,18,19
 363 1048 363 1048 339 1024 c 128,-1,20
 315 1000 315 1000 315 968 c 256,21,22
 315 936 315 936 339 912 c 128,-1,23
 363 888 363 888 395 888 c 256,12,13
EndSplineSet
EndChar

StartChar: bullet
Encoding: 8226 8226 32
Width: 931
Flags: W
LayerCount: 2
Fore
SplineSet
817 662 m 256,0,1
 817 517 817 517 713.5 414 c 128,-1,2
 610 311 610 311 465 311 c 256,3,4
 320 311 320 311 217 414 c 128,-1,5
 114 517 114 517 114 662 c 256,6,7
 114 807 114 807 217 910 c 128,-1,8
 320 1013 320 1013 465 1013 c 256,9,10
 610 1013 610 1013 713.5 910 c 128,-1,11
 817 807 817 807 817 662 c 256,0,1
EndSplineSet
EndChar

StartChar: registered
Encoding: 174 174 33
Width: 897
Flags: W
LayerCount: 2
Fore
SplineSet
580 445 m 0,0,1
 448 445 448 445 354.5 538.5 c 128,-1,2
 261 632 261 632 261 764 c 256,3,4
 261 896 261 896 354.5 990 c 128,-1,5
 448 1084 448 1084 580 1084 c 0,6,7
 714 1084 714 1084 807 990 c 128,-1,8
 900 896 900 896 900 764 c 256,9,10
 900 632 900 632 806.5 538.5 c 128,-1,11
 713 445 713 445 580 445 c 0,0,1
580 484 m 0,12,13
 695 484 695 484 777.5 567 c 128,-1,14
 860 650 860 650 860 764 c 256,15,16
 860 878 860 878 777.5 961 c 128,-1,17
 695 1044 695 1044 580 1044 c 0,18,19
 466 1044 466 1044 383.5 961 c 128,-1,20
 301 878 301 878 301 764 c 256,21,22
 301 650 301 650 383.5 567 c 128,-1,23
 466 484 466 484 580 484 c 0,12,13
529 737 m 1,24,-1
 501 596 l 1,25,-1
 394 596 l 1,26,-1
 403 639 l 1,27,-1
 456 639 l 1,28,-1
 511 915 l 1,29,-1
 458 915 l 1,30,-1
 466 959 l 1,31,-1
 598 959 l 2,32,33
 751 959 751 959 751 875 c 0,34,35
 751 800 751 800 650 750 c 1,36,-1
 685 639 l 1,37,-1
 747 639 l 1,38,-1
 738 596 l 1,39,-1
 641 596 l 1,40,-1
 591 737 l 1,41,-1
 529 737 l 1,24,-1
538 782 m 1,42,-1
 574 782 l 2,43,44
 697 782 697 782 697 866 c 0,45,46
 697 915 697 915 607 915 c 2,47,-1
 564 915 l 1,48,-1
 538 782 l 1,42,-1
EndSplineSet
EndChar

StartChar: copyright
Encoding: 169 169 34
Width: 1244
Flags: W
LayerCount: 2
Fore
SplineSet
725 -27 m 0,0,1
 495 -27 495 -27 330.5 137 c 128,-1,2
 166 301 166 301 166 533 c 256,3,4
 166 765 166 765 330.5 929 c 128,-1,5
 495 1093 495 1093 725 1093 c 0,6,7
 958 1093 958 1093 1122 929 c 128,-1,8
 1286 765 1286 765 1286 533 c 256,9,10
 1286 301 1286 301 1122 137 c 128,-1,11
 958 -27 958 -27 725 -27 c 0,0,1
725 18 m 0,12,13
 939 18 939 18 1090 169 c 128,-1,14
 1241 320 1241 320 1241 533 c 256,15,16
 1241 746 1241 746 1090 897 c 128,-1,17
 939 1048 939 1048 725 1048 c 0,18,19
 513 1048 513 1048 362 897 c 128,-1,20
 211 746 211 746 211 533 c 256,21,22
 211 320 211 320 362 169 c 128,-1,23
 513 18 513 18 725 18 c 0,12,13
890 246 m 1,24,25
 785 213 785 213 704 213 c 0,26,27
 580 213 580 213 508 279.5 c 128,-1,28
 436 346 436 346 436 462 c 0,29,30
 436 625 436 625 541 734.5 c 128,-1,31
 646 844 646 844 805 844 c 0,32,33
 896 844 896 844 1003 814 c 1,34,-1
 967 675 l 1,35,-1
 915 684 l 1,36,-1
 923 766 l 1,37,38
 854 798 854 798 792 798 c 0,39,40
 688 798 688 798 616 700 c 128,-1,41
 544 602 544 602 544 462 c 0,42,43
 544 271 544 271 722 271 c 0,44,45
 823 271 823 271 902 307 c 1,46,-1
 890 246 l 1,24,25
EndSplineSet
EndChar

StartChar: trademark
Encoding: 8482 8482 35
Width: 1333
Flags: W
LayerCount: 2
Fore
SplineSet
440 1021 m 1,0,-1
 307 1021 l 1,1,-1
 288 923 l 1,2,-1
 225 923 l 1,3,-1
 254 1066 l 1,4,-1
 751 1066 l 1,5,-1
 723 923 l 1,6,-1
 661 923 l 1,7,-1
 679 1021 l 1,8,-1
 546 1021 l 1,9,-1
 456 569 l 1,10,-1
 554 569 l 1,11,-1
 545 524 l 1,12,-1
 243 524 l 1,13,-1
 253 569 l 1,14,-1
 350 569 l 1,15,-1
 440 1021 l 1,0,-1
1011 569 m 1,16,-1
 942 956 l 1,17,-1
 857 524 l 1,18,-1
 688 524 l 1,19,-1
 697 569 l 1,20,-1
 794 569 l 1,21,-1
 884 1021 l 1,22,-1
 787 1021 l 1,23,-1
 796 1066 l 1,24,-1
 1036 1066 l 1,25,-1
 1092 747 l 1,26,-1
 1265 1066 l 1,27,-1
 1481 1066 l 1,28,-1
 1473 1021 l 1,29,-1
 1375 1021 l 1,30,-1
 1285 569 l 1,31,-1
 1383 569 l 1,32,-1
 1373 524 l 1,33,-1
 1178 524 l 1,34,-1
 1270 985 l 1,35,-1
 1041 569 l 1,36,-1
 1011 569 l 1,16,-1
EndSplineSet
EndChar

StartChar: logicalnot
Encoding: 172 172 39
Width: 932
Flags: W
LayerCount: 2
Fore
SplineSet
177 510 m 1,0,-1
 193 590 l 1,1,-1
 975 590 l 1,2,-1
 906 248 l 1,3,-1
 814 248 l 1,4,-1
 866 510 l 1,5,-1
 177 510 l 1,0,-1
EndSplineSet
EndChar

StartChar: florin
Encoding: 402 402 40
Width: 679
Flags: W
LayerCount: 2
Fore
SplineSet
158 -231 m 1,0,-1
 210 -18 l 1,1,-1
 286 364 l 1,2,-1
 108 364 l 1,3,-1
 117 409 l 1,4,-1
 294 409 l 1,5,-1
 298 427 l 2,6,7
 330 586 330 586 463 692.5 c 128,-1,8
 596 799 596 799 761 799 c 0,9,10
 818 799 818 799 860 784 c 1,11,-1
 764 678 l 1,12,13
 712 729 712 729 643 729 c 0,14,15
 500 729 500 729 457 512 c 2,16,-1
 436 409 l 1,17,-1
 623 409 l 1,18,-1
 614 364 l 1,19,-1
 427 364 l 1,20,-1
 313 -213 l 1,21,-1
 158 -231 l 1,0,-1
EndSplineSet
EndChar

StartChar: ellipsis
Encoding: 8230 8230 41
Width: 1827
Flags: W
LayerCount: 2
Fore
SplineSet
758 113 m 0,0,1
 758 144 758 144 809.5 245.5 c 128,-1,2
 861 347 861 347 876 355 c 0,3,4
 907 369 907 369 964.5 307.5 c 128,-1,5
 1022 246 1022 246 1026 211 c 1,6,7
 1026 166 1026 166 977.5 79.5 c 128,-1,8
 929 -7 929 -7 908 -7 c 0,9,10
 899 -7 899 -7 851 26.5 c 128,-1,11
 803 60 803 60 778 79 c 0,12,13
 758 96 758 96 758 113 c 0,0,1
1308 113 m 0,14,15
 1308 144 1308 144 1359 245.5 c 128,-1,16
 1410 347 1410 347 1426 355 c 0,17,18
 1457 369 1457 369 1514.5 307.5 c 128,-1,19
 1572 246 1572 246 1575 211 c 0,20,21
 1575 166 1575 166 1527 79.5 c 128,-1,22
 1479 -7 1479 -7 1458 -7 c 0,23,24
 1449 -7 1449 -7 1401 26.5 c 128,-1,25
 1353 60 1353 60 1328 79 c 0,26,27
 1308 96 1308 96 1308 113 c 0,14,15
211 113 m 0,28,29
 211 144 211 144 262 245.5 c 128,-1,30
 313 347 313 347 329 355 c 0,31,32
 360 369 360 369 417.5 307.5 c 128,-1,33
 475 246 475 246 478 211 c 0,34,35
 478 166 478 166 430 79.5 c 128,-1,36
 382 -7 382 -7 361 -7 c 0,37,38
 352 -7 352 -7 304 26.5 c 128,-1,39
 256 60 256 60 231 79 c 0,40,41
 211 96 211 96 211 113 c 0,28,29
EndSplineSet
EndChar

StartChar: endash
Encoding: 8211 8211 42
Width: 434
Flags: W
LayerCount: 2
Fore
SplineSet
434 154 m 1,0,-1
 0 154 l 1,1,-1
 0 234 l 1,2,-1
 434 234 l 1,3,-1
 434 154 l 1,0,-1
EndSplineSet
EndChar

StartChar: emdash
Encoding: 8212 8212 43
Width: 1862
Flags: W
LayerCount: 2
Fore
SplineSet
1866 572 m 1,0,-1
 -4 572 l 1,1,-1
 -4 732 l 1,2,-1
 1866 732 l 1,3,-1
 1866 572 l 1,0,-1
EndSplineSet
EndChar

StartChar: quotedblleft
Encoding: 8220 8220 44
Width: 689
Flags: W
LayerCount: 2
Fore
SplineSet
371 1059 m 0,0,1
 372 1134 372 1134 423 1207.5 c 128,-1,2
 474 1281 474 1281 536 1311 c 1,3,-1
 572 1244 l 1,4,5
 553 1233 553 1233 528 1205.5 c 128,-1,6
 503 1178 503 1178 491 1134 c 1,7,8
 567 1101 567 1101 564 1038 c 0,9,10
 564 1019 564 1019 556.5 1002 c 128,-1,11
 549 985 549 985 536.5 972.5 c 128,-1,12
 524 960 524 960 507 952.5 c 128,-1,13
 490 945 490 945 471 945 c 0,14,15
 447 945 447 945 428.5 955 c 128,-1,16
 410 965 410 965 397.5 981 c 128,-1,17
 385 997 385 997 378 1017.5 c 128,-1,18
 371 1038 371 1038 371 1059 c 0,0,1
117 1059 m 0,19,20
 118 1134 118 1134 169 1207.5 c 128,-1,21
 220 1281 220 1281 284 1311 c 1,22,-1
 320 1244 l 1,23,24
 301 1233 301 1233 275.5 1205.5 c 128,-1,25
 250 1178 250 1178 239 1134 c 1,26,27
 315 1101 315 1101 312 1038 c 0,28,29
 312 1019 312 1019 304.5 1002 c 128,-1,30
 297 985 297 985 284 972.5 c 128,-1,31
 271 960 271 960 254 952.5 c 128,-1,32
 237 945 237 945 218 945 c 0,33,34
 194 945 194 945 175.5 955 c 128,-1,35
 157 965 157 965 144 981 c 128,-1,36
 131 997 131 997 124 1017.5 c 128,-1,37
 117 1038 117 1038 117 1059 c 0,19,20
EndSplineSet
EndChar

StartChar: quotedblright
Encoding: 8221 8221 45
Width: 689
Flags: W
LayerCount: 2
Fore
SplineSet
318 1197 m 0,0,1
 317 1122 317 1122 266 1048.5 c 128,-1,2
 215 975 215 975 153 945 c 1,3,-1
 117 1012 l 1,4,5
 136 1023 136 1023 161 1050.5 c 128,-1,6
 186 1078 186 1078 198 1122 c 1,7,8
 122 1155 122 1155 125 1218 c 0,9,10
 125 1237 125 1237 132.5 1253.5 c 128,-1,11
 140 1270 140 1270 152.5 1283 c 128,-1,12
 165 1296 165 1296 182 1303.5 c 128,-1,13
 199 1311 199 1311 218 1311 c 0,14,15
 242 1311 242 1311 260.5 1301 c 128,-1,16
 279 1291 279 1291 291.5 1275 c 128,-1,17
 304 1259 304 1259 311 1238.5 c 128,-1,18
 318 1218 318 1218 318 1197 c 0,0,1
572 1197 m 0,19,20
 571 1122 571 1122 520 1048.5 c 128,-1,21
 469 975 469 975 405 945 c 1,22,-1
 369 1012 l 1,23,24
 388 1023 388 1023 413.5 1050.5 c 128,-1,25
 439 1078 439 1078 450 1122 c 1,26,27
 374 1155 374 1155 377 1218 c 0,28,29
 377 1237 377 1237 384.5 1253.5 c 128,-1,30
 392 1270 392 1270 405 1283 c 128,-1,31
 418 1296 418 1296 435 1303.5 c 128,-1,32
 452 1311 452 1311 471 1311 c 0,33,34
 495 1311 495 1311 513.5 1301 c 128,-1,35
 532 1291 532 1291 545 1275 c 128,-1,36
 558 1259 558 1259 565 1238.5 c 128,-1,37
 572 1218 572 1218 572 1197 c 0,19,20
EndSplineSet
EndChar

StartChar: divide
Encoding: 247 247 46
Width: 1133
Flags: W
LayerCount: 2
Fore
SplineSet
454 229 m 1,0,-1
 681 229 l 1,1,-1
 681 3 l 1,2,-1
 454 3 l 1,3,-1
 454 229 l 1,0,-1
454 867 m 1,4,-1
 681 867 l 1,5,-1
 681 640 l 1,6,-1
 454 640 l 1,7,-1
 454 867 l 1,4,-1
1002 360 m 1,8,-1
 163 360 l 1,9,-1
 163 514 l 1,10,-1
 1002 514 l 1,11,-1
 1002 360 l 1,8,-1
EndSplineSet
EndChar

StartChar: lozenge
Encoding: 9674 9674 47
Width: 1118
Flags: W
LayerCount: 2
Fore
SplineSet
1003 699 m 1,0,-1
 560 197 l 1,1,-1
 117 699 l 1,2,-1
 560 1202 l 1,3,-1
 1003 699 l 1,0,-1
848 699 m 1,4,-1
 560 1036 l 1,5,-1
 271 699 l 1,6,-1
 560 364 l 1,7,-1
 848 699 l 1,4,-1
EndSplineSet
EndChar

StartChar: fraction
Encoding: 8260 8260 48
Width: 742
Flags: W
LayerCount: 2
Fore
SplineSet
740 1101 m 1,0,-1
 101 -82 l 1,1,-1
 -9 -82 l 1,2,-1
 629 1101 l 1,3,-1
 740 1101 l 1,0,-1
EndSplineSet
EndChar

StartChar: guilsinglleft
Encoding: 8249 8249 49
Width: 1117
Flags: W
LayerCount: 2
Fore
SplineSet
955 58 m 1,0,-1
 150 444 l 1,1,-1
 150 534 l 1,2,-1
 955 918 l 1,3,-1
 955 784 l 1,4,-1
 331 489 l 1,5,-1
 955 192 l 1,6,-1
 955 58 l 1,0,-1
EndSplineSet
EndChar

StartChar: daggerdbl
Encoding: 8225 8225 52
Width: 932
Flags: W
LayerCount: 2
Fore
SplineSet
349 -231 m 1,0,-1
 481 185 l 1,1,-1
 161 154 l 1,2,-1
 211 261 l 1,3,-1
 490 229 l 1,4,-1
 567 616 l 1,5,-1
 247 586 l 1,6,-1
 297 693 l 1,7,-1
 575 661 l 1,8,-1
 608 1066 l 1,9,-1
 758 1093 l 1,10,-1
 620 661 l 1,11,-1
 940 693 l 1,12,-1
 889 586 l 1,13,-1
 611 616 l 1,14,-1
 535 229 l 1,15,-1
 855 261 l 1,16,-1
 804 154 l 1,17,-1
 525 185 l 1,18,-1
 499 -213 l 1,19,-1
 349 -231 l 1,0,-1
EndSplineSet
EndChar

StartChar: middot.001
Encoding: 8729 8729 53
Width: 620
Flags: W
LayerCount: 2
Fore
SplineSet
429 516 m 1,0,-1
 190 516 l 1,1,-1
 190 789 l 1,2,-1
 429 789 l 1,3,-1
 429 516 l 1,0,-1
EndSplineSet
EndChar

StartChar: quotesinglbase
Encoding: 8218 8218 54
Width: 418
Flags: W
LayerCount: 2
Fore
SplineSet
103 128 m 1,0,-1
 247 231 l 1,1,-1
 353 90 l 1,2,3
 345 -56 345 -56 262.5 -134.5 c 128,-1,4
 180 -213 180 -213 36 -213 c 1,5,-1
 76 -168 l 1,6,7
 189 -158 189 -158 211 -18 c 1,8,-1
 103 128 l 1,0,-1
EndSplineSet
EndChar

StartChar: quotedblbase
Encoding: 8222 8222 55
Width: 684
Flags: W
LayerCount: 2
Fore
SplineSet
91 92 m 1,0,-1
 204 178 l 1,1,-1
 292 64 l 1,2,3
 270 -213 270 -213 31 -213 c 1,4,-1
 60 -168 l 1,5,6
 166 -148 166 -148 179 -16 c 1,7,-1
 91 92 l 1,0,-1
401 92 m 1,8,-1
 516 178 l 1,9,-1
 602 64 l 1,10,11
 581 -213 581 -213 341 -213 c 1,12,-1
 372 -168 l 1,13,14
 476 -148 476 -148 490 -16 c 1,15,-1
 401 92 l 1,8,-1
EndSplineSet
EndChar

StartChar: perthousand
Encoding: 8240 8240 56
Width: 1571
Flags: W
LayerCount: 2
Fore
SplineSet
385 533 m 0,0,1
 304 533 304 533 254.5 584.5 c 128,-1,2
 205 636 205 636 205 722 c 0,3,4
 205 865 205 865 286.5 965.5 c 128,-1,5
 368 1066 368 1066 483 1066 c 0,6,7
 567 1066 567 1066 617.5 1014.5 c 128,-1,8
 668 963 668 963 668 877 c 0,9,10
 668 733 668 733 585.5 633 c 128,-1,11
 503 533 503 533 385 533 c 0,0,1
311 715 m 0,12,13
 311 578 311 578 398 578 c 0,14,15
 463 578 463 578 517 671.5 c 128,-1,16
 571 765 571 765 571 881 c 0,17,18
 571 1022 571 1022 483 1022 c 0,19,20
 416 1022 416 1022 363.5 928 c 128,-1,21
 311 834 311 834 311 715 c 0,12,13
850 0 m 0,22,23
 769 0 769 0 719.5 51.5 c 128,-1,24
 670 103 670 103 670 189 c 0,25,26
 670 331 670 331 751 432 c 128,-1,27
 832 533 832 533 947 533 c 0,28,29
 1031 533 1031 533 1081.5 481.5 c 128,-1,30
 1132 430 1132 430 1132 344 c 0,31,32
 1132 200 1132 200 1049.5 100 c 128,-1,33
 967 0 967 0 850 0 c 0,22,23
776 182 m 0,34,35
 776 44 776 44 862 44 c 0,36,37
 929 44 929 44 982 138 c 128,-1,38
 1035 232 1035 232 1035 348 c 0,39,40
 1035 490 1035 490 948 490 c 0,41,42
 880 490 880 490 828 395.5 c 128,-1,43
 776 301 776 301 776 182 c 0,34,35
131 -27 m 1,44,-1
 1111 1093 l 1,45,-1
 1206 1093 l 1,46,-1
 225 -27 l 1,47,-1
 131 -27 l 1,44,-1
1376 0 m 0,48,49
 1294 0 1294 0 1244.5 51.5 c 128,-1,50
 1195 103 1195 103 1195 189 c 0,51,52
 1195 331 1195 331 1276.5 432 c 128,-1,53
 1358 533 1358 533 1473 533 c 0,54,55
 1557 533 1557 533 1607.5 481.5 c 128,-1,56
 1658 430 1658 430 1658 344 c 0,57,58
 1658 200 1658 200 1575.5 100 c 128,-1,59
 1493 0 1493 0 1376 0 c 0,48,49
1301 183 m 0,60,61
 1301 44 1301 44 1389 44 c 0,62,63
 1453 44 1453 44 1507 138 c 128,-1,64
 1561 232 1561 232 1561 347 c 0,65,66
 1561 490 1561 490 1473 490 c 0,67,68
 1406 490 1406 490 1353.5 395.5 c 128,-1,69
 1301 301 1301 301 1301 183 c 0,60,61
EndSplineSet
EndChar

StartChar: multiply
Encoding: 215 215 60
Width: 896
Flags: W
LayerCount: 2
Fore
SplineSet
800 681 m 1,0,-1
 562 443 l 1,1,-1
 811 193 l 1,2,-1
 706 88 l 1,3,-1
 456 337 l 1,4,-1
 207 88 l 1,5,-1
 98 197 l 1,6,-1
 348 446 l 1,7,-1
 110 684 l 1,8,-1
 215 789 l 1,9,-1
 453 552 l 1,10,-1
 691 790 l 1,11,-1
 800 681 l 1,0,-1
EndSplineSet
EndChar

StartChar: macron
Encoding: 175 175 61
Width: 1118
Flags: W
LayerCount: 2
Fore
SplineSet
1134 1259 m 1,0,-1
 -16 1259 l 1,1,-1
 -16 1389 l 1,2,-1
 1134 1389 l 1,3,-1
 1134 1259 l 1,0,-1
EndSplineSet
EndChar

StartChar: periodcentered
Encoding: 183 183 62
Width: 724
Flags: W
LayerCount: 2
Fore
SplineSet
482 832 m 1,0,-1
 243 832 l 1,1,-1
 243 1117 l 1,2,-1
 482 1117 l 1,3,-1
 482 832 l 1,0,-1
EndSplineSet
EndChar

StartChar: H22073
Encoding: 9633 9633 63
Width: 1237
Flags: W
LayerCount: 2
Fore
SplineSet
146 944 m 1,0,-1
 1090 944 l 1,1,-1
 1090 0 l 1,2,-1
 146 0 l 1,3,-1
 146 944 l 1,0,-1
222 868 m 1,4,-1
 222 76 l 1,5,-1
 1014 76 l 1,6,-1
 1014 868 l 1,7,-1
 222 868 l 1,4,-1
EndSplineSet
EndChar

StartChar: H18543
Encoding: 9642 9642 64
Width: 1089
Flags: W
LayerCount: 2
Fore
SplineSet
886 894 m 1,0,-1
 886 200 l 1,1,-1
 192 200 l 1,2,-1
 192 894 l 1,3,-1
 886 894 l 1,0,-1
EndSplineSet
EndChar

StartChar: H18551
Encoding: 9643 9643 65
Width: 1089
Flags: W
LayerCount: 2
Fore
SplineSet
888 930 m 1,0,-1
 888 235 l 1,1,-1
 193 235 l 1,2,-1
 193 930 l 1,3,-1
 888 930 l 1,0,-1
774 816 m 1,4,-1
 307 816 l 1,5,-1
 307 349 l 1,6,-1
 774 349 l 1,7,-1
 774 816 l 1,4,-1
EndSplineSet
EndChar

StartChar: H18533
Encoding: 9679 9679 66
Width: 1339
Flags: W
LayerCount: 2
Fore
SplineSet
204 775 m 0,0,1
 204 976 204 976 345 1117 c 128,-1,2
 486 1258 486 1258 685 1258 c 0,3,4
 885 1258 885 1258 1026 1117 c 128,-1,5
 1167 976 1167 976 1167 775 c 0,6,7
 1167 577 1167 577 1026 436 c 128,-1,8
 885 295 885 295 685 295 c 0,9,10
 486 295 486 295 345 436 c 128,-1,11
 204 577 204 577 204 775 c 0,0,1
EndSplineSet
EndChar

StartChar: openbullet
Encoding: 9702 9702 67
Width: 1089
Flags: W
LayerCount: 2
Fore
SplineSet
544 1392 m 0,0,1
 700 1392 700 1392 810.5 1281.5 c 128,-1,2
 921 1171 921 1171 921 1015 c 256,3,4
 921 859 921 859 810.5 749 c 128,-1,5
 700 639 700 639 544 639 c 256,6,7
 388 639 388 639 278 749 c 128,-1,8
 168 859 168 859 168 1015 c 256,9,10
 168 1171 168 1171 277.5 1281.5 c 128,-1,11
 387 1392 387 1392 544 1392 c 0,0,1
544 1278 m 0,12,13
 435 1278 435 1278 358.5 1200.5 c 128,-1,14
 282 1123 282 1123 282 1015 c 0,15,16
 282 906 282 906 359 829.5 c 128,-1,17
 436 753 436 753 544 753 c 256,18,19
 652 753 652 753 729.5 829.5 c 128,-1,20
 807 906 807 906 807 1015 c 0,21,22
 807 1123 807 1123 730.5 1200.5 c 128,-1,23
 654 1278 654 1278 544 1278 c 0,12,13
EndSplineSet
EndChar

StartChar: uniFFFC
Encoding: 65532 65532 68
Width: 2048
Flags: W
LayerCount: 2
Fore
SplineSet
2048 1150 m 1,0,-1
 1948 1150 l 1,1,-1
 1948 1373 l 1,2,-1
 1725 1373 l 1,3,-1
 1725 1473 l 1,4,-1
 2048 1473 l 1,5,-1
 2048 1150 l 1,0,-1
1473 1373 m 1,6,-1
 1150 1373 l 1,7,-1
 1150 1473 l 1,8,-1
 1473 1473 l 1,9,-1
 1473 1373 l 1,6,-1
2048 575 m 1,10,-1
 1948 575 l 1,11,-1
 1948 898 l 1,12,-1
 2048 898 l 1,13,-1
 2048 575 l 1,10,-1
1782 611 m 2,14,15
 1782 370 1782 370 1571 370 c 0,16,17
 1485 370 1485 370 1433 415 c 1,18,-1
 1506 494 l 1,19,20
 1531 468 1531 468 1571 468 c 0,21,22
 1666 468 1666 468 1666 606 c 2,23,-1
 1666 1090 l 1,24,-1
 1782 1090 l 1,25,-1
 1782 611 l 2,14,15
898 1373 m 1,26,-1
 575 1373 l 1,27,-1
 575 1473 l 1,28,-1
 898 1473 l 1,29,-1
 898 1373 l 1,26,-1
2048 0 m 1,30,-1
 1725 0 l 1,31,-1
 1725 100 l 1,32,-1
 1948 100 l 1,33,-1
 1948 323 l 1,34,-1
 2048 323 l 1,35,-1
 2048 0 l 1,30,-1
1423 591 m 0,36,37
 1423 382 1423 382 1149 382 c 2,38,-1
 909 382 l 1,39,-1
 909 1090 l 1,40,-1
 1144 1090 l 2,41,42
 1393 1090 1393 1090 1393 904 c 0,43,44
 1393 813 1393 813 1304 759 c 1,45,46
 1423 713 1423 713 1423 591 c 0,36,37
323 1373 m 1,47,-1
 100 1373 l 1,48,-1
 100 1150 l 1,49,-1
 0 1150 l 1,50,-1
 0 1473 l 1,51,-1
 323 1473 l 1,52,-1
 323 1373 l 1,47,-1
1473 0 m 1,53,-1
 1150 0 l 1,54,-1
 1150 100 l 1,55,-1
 1473 100 l 1,56,-1
 1473 0 l 1,53,-1
854 735 m 0,57,58
 854 562 854 562 772 466 c 128,-1,59
 690 370 690 370 537 370 c 256,60,61
 384 370 384 370 303.5 466 c 128,-1,62
 223 562 223 562 223 735 c 0,63,64
 223 910 223 910 303.5 1006 c 128,-1,65
 384 1102 384 1102 537 1102 c 256,66,67
 690 1102 690 1102 772 1006 c 128,-1,68
 854 910 854 910 854 735 c 0,57,58
100 575 m 1,69,-1
 0 575 l 1,70,-1
 0 898 l 1,71,-1
 100 898 l 1,72,-1
 100 575 l 1,69,-1
898 0 m 1,73,-1
 575 0 l 1,74,-1
 575 100 l 1,75,-1
 898 100 l 1,76,-1
 898 0 l 1,73,-1
323 0 m 1,77,-1
 0 0 l 1,78,-1
 0 323 l 1,79,-1
 100 323 l 1,80,-1
 100 100 l 1,81,-1
 323 100 l 1,82,-1
 323 0 l 1,77,-1
1277 893 m 0,83,84
 1277 992 1277 992 1114 992 c 2,85,-1
 1025 992 l 1,86,-1
 1025 798 l 1,87,-1
 1126 798 l 2,88,89
 1277 798 1277 798 1277 893 c 0,83,84
1307 591 m 0,90,91
 1307 700 1307 700 1136 700 c 2,92,-1
 1025 700 l 1,93,-1
 1025 480 l 1,94,-1
 1149 480 l 2,95,96
 1307 480 1307 480 1307 591 c 0,90,91
738 735 m 0,97,98
 738 1004 738 1004 537 1004 c 0,99,100
 339 1004 339 1004 339 735 c 0,101,102
 339 468 339 468 537 468 c 0,103,104
 738 468 738 468 738 735 c 0,97,98
EndSplineSet
EndChar

StartChar: zerowidthnonjoiner
Encoding: 8204 8204 88
Width: 0
GlyphClass: 2
Flags: W
LayerCount: 2
Fore
SplineSet
36 1289 m 1,0,-1
 36 -275 l 1,1,-1
 -36 -275 l 1,2,-1
 -36 1289 l 1,3,-1
 36 1289 l 1,0,-1
EndSplineSet
EndChar

StartChar: zerowidthjoiner
Encoding: 8205 8205 89
Width: 0
GlyphClass: 2
Flags: W
LayerCount: 2
Fore
SplineSet
36 -275 m 1,0,-1
 -36 -275 l 1,1,-1
 -36 1114 l 1,2,-1
 -170 978 l 1,3,-1
 -219 1027 l 1,4,-1
 -48 1196 l 1,5,-1
 -219 1364 l 1,6,-1
 -170 1413 l 1,7,-1
 0 1242 l 1,8,-1
 170 1413 l 1,9,-1
 219 1364 l 1,10,-1
 48 1196 l 1,11,-1
 219 1027 l 1,12,-1
 170 978 l 1,13,-1
 36 1114 l 1,14,-1
 36 -275 l 1,0,-1
EndSplineSet
EndChar

StartChar: lefttorightmark
Encoding: 8206 8206 90
Width: 0
GlyphClass: 2
Flags: W
LayerCount: 2
Fore
SplineSet
430 1198 m 1,0,-1
 213 984 l 1,1,-1
 164 1033 l 1,2,-1
 301 1163 l 1,3,-1
 35 1163 l 1,4,-1
 35 -275 l 1,5,-1
 -36 -275 l 1,6,-1
 -36 1234 l 1,7,-1
 301 1234 l 1,8,-1
 164 1364 l 1,9,-1
 213 1413 l 1,10,-1
 430 1198 l 1,0,-1
EndSplineSet
EndChar

StartChar: righttoleftmark
Encoding: 8207 8207 91
Width: 0
GlyphClass: 2
Flags: W
LayerCount: 2
Fore
SplineSet
35 -275 m 1,0,-1
 -36 -275 l 1,1,-1
 -36 1163 l 1,2,-1
 -302 1163 l 1,3,-1
 -165 1033 l 1,4,-1
 -214 984 l 1,5,-1
 -431 1198 l 1,6,-1
 -214 1413 l 1,7,-1
 -165 1364 l 1,8,-1
 -302 1234 l 1,9,-1
 35 1234 l 1,10,-1
 35 -275 l 1,0,-1
EndSplineSet
EndChar

StartChar: afii57388.001
Encoding: 1644 1644 92
Width: 353
GlyphClass: 2
Flags: W
LayerCount: 2
Fore
SplineSet
210 654 m 0,0,1
 200 627 200 627 185 603 c 0,2,3
 180 597 180 597 173.5 593.5 c 128,-1,4
 167 590 167 590 162 590 c 128,-1,5
 157 590 157 590 154.5 593 c 128,-1,6
 152 596 152 596 155 603 c 0,7,8
 187 660 187 660 202.5 713.5 c 128,-1,9
 218 767 218 767 218 800 c 1,10,11
 194 806 194 806 179 816 c 128,-1,12
 164 826 164 826 155 837.5 c 128,-1,13
 146 849 146 849 143 859 c 128,-1,14
 140 869 140 869 140 874 c 0,15,16
 140 890 140 890 145.5 907 c 128,-1,17
 151 924 151 924 160.5 937.5 c 128,-1,18
 170 951 170 951 183.5 959.5 c 128,-1,19
 197 968 197 968 213 968 c 0,20,21
 272 968 272 968 272 874 c 0,22,23
 272 859 272 859 268 835 c 128,-1,24
 264 811 264 811 256 781.5 c 128,-1,25
 248 752 248 752 236.5 719.5 c 128,-1,26
 225 687 225 687 210 654 c 0,0,1
EndSplineSet
EndChar

StartChar: afii57409
Encoding: 1569 1569 93
Width: 741
GlyphClass: 2
Flags: W
AnchorPoint: "Anchor-3" 390 -315 basechar 0
AnchorPoint: "Anchor-2" 405 630 basechar 0
LayerCount: 2
Fore
SplineSet
625 85 m 1,0,1
 400 54 400 54 257 -104 c 1,2,3
 278 13 278 13 347 91 c 1,4,5
 230 119 230 119 230 232 c 0,6,7
 230 315 230 315 332 437 c 0,8,9
 412 531 412 531 542 531 c 0,10,11
 625 531 625 531 625 476 c 0,12,13
 625 433 625 433 584 369 c 1,14,15
 545 383 545 383 514 383 c 0,16,17
 393 383 393 383 320 289 c 1,18,19
 412 203 412 203 552 203 c 0,20,21
 606 203 606 203 681 232 c 1,22,-1
 625 85 l 1,0,1
EndSplineSet
EndChar

StartChar: afii57440
Encoding: 1600 1600 94
Width: 514
GlyphClass: 2
Flags: W
LayerCount: 2
Fore
SplineSet
524 232 m 1,0,-1
 524 0 l 1,1,-1
 -6 0 l 1,2,-1
 -6 232 l 1,3,-1
 524 232 l 1,0,-1
EndSplineSet
EndChar

StartChar: afii57453
Encoding: 1613 1613 95
Width: 0
GlyphClass: 4
Flags: W
AnchorPoint: "Anchor-3" 0 0 mark 0
AnchorPoint: "Anchor-1" 0 0 mark 0
LayerCount: 2
Fore
SplineSet
214 73 m 1,0,1
 196 -24 196 -24 140 -45 c 2,2,-1
 -249 -179 l 1,3,4
 -239 -125 -239 -125 -217 -100.5 c 128,-1,5
 -195 -76 -195 -76 -127 -49 c 2,6,-1
 214 73 l 1,0,1
252 255 m 1,7,8
 234 157 234 157 179 137 c 2,9,-1
 -210 3 l 1,10,11
 -201 57 -201 57 -178.5 81.5 c 128,-1,12
 -156 106 -156 106 -88 132 c 2,13,-1
 252 255 l 1,7,8
EndSplineSet
EndChar

StartChar: afii57381
Encoding: 1642 1642 96
Width: 1351
GlyphClass: 2
Flags: W
LayerCount: 2
Fore
SplineSet
216 922 m 0,0,1
 218 1067 218 1067 361 1091 c 0,2,3
 439 1103 439 1103 507 1045.5 c 128,-1,4
 575 988 575 988 570 912 c 0,5,6
 568 842 568 842 520 796 c 128,-1,7
 472 750 472 750 402 746 c 0,8,9
 326 742 326 742 271 794.5 c 128,-1,10
 216 847 216 847 216 922 c 0,0,1
1050 1103 m 1,11,-1
 1177 1103 l 1,12,-1
 359 -199 l 1,13,-1
 232 -199 l 1,14,-1
 1050 1103 l 1,11,-1
812 2 m 0,15,16
 816 148 816 148 958 169 c 0,17,18
 1039 181 1039 181 1104 123.5 c 128,-1,19
 1169 66 1169 66 1166 -14 c 0,20,21
 1164 -84 1164 -84 1116 -131 c 128,-1,22
 1068 -178 1068 -178 1000 -180 c 0,23,24
 924 -182 924 -182 868 -125 c 128,-1,25
 812 -68 812 -68 812 2 c 0,15,16
EndSplineSet
EndChar

StartChar: afii57461
Encoding: 1643 1643 97
Width: 536
GlyphClass: 2
Flags: W
LayerCount: 2
Fore
SplineSet
518 521 m 1,0,-1
 115 -382 l 1,1,-1
 19 -352 l 1,2,-1
 425 551 l 1,3,-1
 518 521 l 1,0,-1
EndSplineSet
EndChar

StartChar: afii63167
Encoding: 1645 1645 98
Width: 1118
GlyphClass: 2
Flags: W
LayerCount: 2
Fore
SplineSet
694 729 m 1,0,-1
 1057 733 l 1,1,-1
 1057 610 l 1,2,-1
 702 612 l 1,3,-1
 971 352 l 1,4,-1
 883 264 l 1,5,-1
 616 539 l 1,6,-1
 623 168 l 1,7,-1
 498 168 l 1,8,-1
 502 539 l 1,9,-1
 236 264 l 1,10,-1
 147 352 l 1,11,-1
 422 614 l 1,12,-1
 63 610 l 1,13,-1
 63 733 l 1,14,-1
 420 729 l 1,15,-1
 170 975 l 1,16,-1
 258 1065 l 1,17,-1
 502 817 l 1,18,-1
 498 1176 l 1,19,-1
 623 1176 l 1,20,-1
 616 813 l 1,21,-1
 860 1065 l 1,22,-1
 948 975 l 1,23,-1
 694 729 l 1,0,-1
EndSplineSet
EndChar

StartChar: afii57459
Encoding: 65543 -1 99
Width: 730
GlyphClass: 2
Flags: W
LayerCount: 2
Fore
SplineSet
604 0 m 1,0,-1
 -22 0 l 1,1,-1
 -22 232 l 1,2,-1
 575 232 l 1,3,4
 580 275 580 275 580 329 c 0,5,6
 580 356 580 356 577 376 c 1,7,-1
 514 295 l 1,8,-1
 371 295 l 2,9,10
 284 295 284 295 253 300 c 0,11,12
 202 307 202 307 169.5 355 c 128,-1,13
 137 403 137 403 137 467 c 0,14,15
 137 580 137 580 209 698 c 0,16,17
 322 882 322 882 437 882 c 0,18,19
 474 882 474 882 500 865 c 0,20,21
 592 806 592 806 649.5 678.5 c 128,-1,22
 707 551 707 551 707 408 c 0,23,24
 707 275 707 275 612 19 c 1,25,-1
 604 0 l 1,0,-1
560 509 m 1,26,27
 554 584 554 584 514 643.5 c 128,-1,28
 474 703 474 703 425 703 c 0,29,30
 383 703 383 703 341 661 c 128,-1,31
 299 619 299 619 299 575 c 0,32,33
 299 509 299 509 418 509 c 2,34,-1
 560 509 l 1,26,27
EndSplineSet
EndChar

StartChar: afii57543
Encoding: 65544 -1 100
Width: 680
Flags: W
LayerCount: 2
Fore
SplineSet
359 0 m 1,0,-1
 -20 0 l 1,1,-1
 -20 232 l 1,2,-1
 329 232 l 1,3,4
 332 239 332 239 331 259 c 128,-1,5
 330 279 330 279 325 305 c 128,-1,6
 320 331 320 331 310 358.5 c 128,-1,7
 300 386 300 386 286 409 c 1,8,-1
 418 570 l 1,9,10
 438 566 438 566 451.5 547 c 128,-1,11
 465 528 465 528 473 499.5 c 128,-1,12
 481 471 481 471 484.5 436 c 128,-1,13
 488 401 488 401 487.5 365 c 128,-1,14
 487 329 487 329 483.5 294.5 c 128,-1,15
 480 260 480 260 474 232 c 1,16,-1
 697 232 l 1,17,-1
 697 0 l 1,18,-1
 462 0 l 1,19,-1
 425 89 l 1,20,-1
 359 0 l 1,0,-1
EndSplineSet
EndChar

StartChar: afii57534
Encoding: 1749 1749 101
Width: 832
GlyphClass: 2
Flags: W
LayerCount: 2
Fore
SplineSet
683 0 m 1,0,-1
 272 0 l 1,1,2
 234 5 234 5 211 18 c 0,3,4
 144 55 144 55 144 181 c 0,5,6
 146 296 146 296 257 613 c 0,7,8
 307 749 307 749 378 749 c 0,9,10
 518 749 518 749 640.5 616.5 c 128,-1,11
 763 484 763 484 782 313 c 1,12,-1
 782 288 l 1,13,-1
 683 0 l 1,0,-1
667 227 m 1,14,15
 658 341 658 341 602 427.5 c 128,-1,16
 546 514 546 514 438 552 c 0,17,18
 421 556 421 556 408 556 c 0,19,20
 358 556 358 556 324 457 c 0,21,22
 290 368 290 368 290 313 c 0,23,24
 290 227 290 227 412 227 c 2,25,-1
 667 227 l 1,14,15
EndSplineSet
EndChar

StartChar: afii64240
Encoding: 65546 -1 103
Width: 551
Flags: W
LayerCount: 2
Fore
SplineSet
103 168 m 1,0,-1
 239 290 l 1,1,-1
 410 133 l 1,2,-1
 275 4 l 1,3,-1
 103 168 l 1,0,-1
EndSplineSet
EndChar

StartChar: afii64241
Encoding: 65547 -1 104
Width: 756
Flags: W
LayerCount: 2
Fore
SplineSet
133 155 m 1,0,-1
 265 272 l 1,1,-1
 367 178 l 1,2,-1
 475 272 l 1,3,-1
 634 118 l 1,4,-1
 505 4 l 1,5,-1
 406 94 l 1,6,-1
 297 4 l 1,7,-1
 133 155 l 1,0,-1
EndSplineSet
EndChar

StartChar: afii63954
Encoding: 65548 -1 105
Width: 753
Flags: W
LayerCount: 2
Fore
SplineSet
613 121 m 1,0,-1
 481 5 l 1,1,-1
 379 99 l 1,2,-1
 271 5 l 1,3,-1
 112 159 l 1,4,-1
 241 273 l 1,5,-1
 340 183 l 1,6,-1
 449 273 l 1,7,-1
 613 121 l 1,0,-1
469 425 m 1,8,-1
 340 311 l 1,9,-1
 175 459 l 1,10,-1
 305 581 l 1,11,-1
 469 425 l 1,8,-1
EndSplineSet
EndChar

StartChar: afii57382
Encoding: 65549 -1 106
Width: 722
Flags: W
LayerCount: 2
Fore
SplineSet
117 -124 m 1,0,-1
 249 -7 l 1,1,-1
 351 -101 l 1,2,-1
 459 -7 l 1,3,-1
 619 -161 l 1,4,-1
 489 -275 l 1,5,-1
 391 -185 l 1,6,-1
 281 -275 l 1,7,-1
 117 -124 l 1,0,-1
261 -427 m 1,8,-1
 391 -313 l 1,9,-1
 555 -461 l 1,10,-1
 425 -583 l 1,11,-1
 261 -427 l 1,8,-1
EndSplineSet
EndChar

StartChar: afii64242
Encoding: 65550 -1 107
Width: 455
Flags: W
LayerCount: 2
Fore
SplineSet
-7 232 m 1,0,-1
 278 232 l 1,1,2
 276 371 276 371 187 492 c 1,3,-1
 316 666 l 1,4,5
 428 530 428 530 428 383 c 0,6,7
 428 298 428 298 377 152 c 0,8,9
 362 108 362 108 318 0 c 1,10,-1
 -7 0 l 1,11,-1
 -7 232 l 1,0,-1
EndSplineSet
EndChar

StartChar: afii57373
Encoding: 65551 -1 112
Width: 0
Flags: W
LayerCount: 2
Fore
SplineSet
421 1092 m 1,0,1
 247 1068 247 1068 137 946 c 1,2,3
 153 1036 153 1036 207 1097 c 1,4,5
 116 1118 116 1118 116 1206 c 0,6,7
 116 1270 116 1270 195 1364 c 0,8,9
 257 1437 257 1437 357 1437 c 0,10,11
 421 1437 421 1437 421 1395 c 0,12,13
 421 1361 421 1361 390 1312 c 1,14,15
 360 1322 360 1322 336 1322 c 0,16,17
 242 1322 242 1322 186 1250 c 1,18,19
 257 1184 257 1184 365 1184 c 0,20,21
 407 1184 407 1184 465 1206 c 1,22,-1
 421 1092 l 1,0,1
EndSplineSet
EndChar

StartChar: afii57374
Encoding: 65552 -1 113
Width: 872
GlyphClass: 2
Flags: W
LayerCount: 2
Fore
SplineSet
328 0 m 1,0,-1
 -6 0 l 1,1,-1
 -6 232 l 1,2,-1
 158 232 l 1,3,4
 154 241 154 241 154 256 c 0,5,6
 154 310 154 310 224 415 c 0,7,8
 451 750 451 750 598 750 c 0,9,10
 672 750 672 750 723.5 684.5 c 128,-1,11
 775 619 775 619 775 523 c 0,12,13
 775 391 775 391 677 232 c 1,14,-1
 892 232 l 1,15,-1
 892 0 l 1,16,-1
 490 0 l 1,17,-1
 397 56 l 1,18,-1
 328 0 l 1,0,-1
606 324 m 1,19,20
 618 361 618 361 618 406 c 0,21,22
 618 533 618 533 539 533 c 0,23,24
 494 533 494 533 430.5 470.5 c 128,-1,25
 367 408 367 408 340 352 c 1,26,-1
 451 265 l 2,27,28
 470 251 470 251 478 251 c 0,29,30
 482 253 482 253 500 260 c 2,31,-1
 606 324 l 1,19,20
EndSplineSet
EndChar

StartChar: afii57375
Encoding: 1619 1619 114
Width: 868
GlyphClass: 2
Flags: W
LayerCount: 2
Fore
SplineSet
118 1325 m 1,0,-1
 180 1414 l 2,1,2
 272 1547 272 1547 328 1553 c 0,3,4
 342 1554 342 1554 545 1492 c 0,5,6
 615 1470 615 1470 628 1473 c 0,7,8
 646 1475 646 1475 777 1544 c 1,9,10
 732 1485 732 1485 687 1426 c 0,11,12
 622 1349 622 1349 568 1343 c 0,13,14
 519 1340 519 1340 324 1404 c 0,15,16
 297 1410 297 1410 275 1408 c 0,17,18
 258 1407 258 1407 174 1361 c 1,19,-1
 118 1325 l 1,0,-1
EndSplineSet
EndChar

StartChar: afii57391
Encoding: 59450 59450 115
Width: 1024
GlyphClass: 2
Flags: W
LayerCount: 2
Fore
SplineSet
1024 0 m 1,0,-1
 -70 0 l 1,1,-1
 -70 188 l 1,2,-1
 1024 188 l 1,3,-1
 1024 0 l 1,0,-1
EndSplineSet
EndChar

StartChar: afii57471
Encoding: 65553 -1 116
Width: 1498
Flags: W
LayerCount: 2
Fore
SplineSet
1314 89 m 1,0,-1
 1248 0 l 1,1,-1
 337 0 l 2,2,3
 298 0 298 0 246 31 c 0,4,5
 131 97 131 97 131 264 c 0,6,7
 131 425 131 425 215 583 c 0,8,9
 219 591 219 591 225 596 c 128,-1,10
 231 601 231 601 235.5 601.5 c 128,-1,11
 240 602 240 602 242 597.5 c 128,-1,12
 244 593 244 593 242 583 c 0,13,14
 229 523 229 523 229 456 c 0,15,16
 229 306 229 306 322 256 c 0,17,18
 368 232 368 232 514 232 c 2,19,-1
 1218 232 l 1,20,21
 1222 239 1222 239 1221 259 c 128,-1,22
 1220 279 1220 279 1214.5 305 c 128,-1,23
 1209 331 1209 331 1199 358.5 c 128,-1,24
 1189 386 1189 386 1175 409 c 1,25,-1
 1307 570 l 1,26,27
 1327 566 1327 566 1340.5 547 c 128,-1,28
 1354 528 1354 528 1362 499.5 c 128,-1,29
 1370 471 1370 471 1373.5 436 c 128,-1,30
 1377 401 1377 401 1376.5 365 c 128,-1,31
 1376 329 1376 329 1372.5 294.5 c 128,-1,32
 1369 260 1369 260 1363 232 c 1,33,-1
 1514 232 l 1,34,-1
 1514 0 l 1,35,-1
 1351 0 l 1,36,-1
 1314 89 l 1,0,-1
EndSplineSet
EndChar

StartChar: afii52258
Encoding: 65554 -1 117
Width: 1754
GlyphClass: 2
Flags: W
LayerCount: 2
Fore
SplineSet
342 0 m 2,0,1
 302 0 302 0 251 31 c 0,2,3
 136 97 136 97 136 264 c 0,4,5
 136 425 136 425 220 583 c 0,6,7
 224 591 224 591 230 596 c 128,-1,8
 236 601 236 601 240.5 601.5 c 128,-1,9
 245 602 245 602 247 597.5 c 128,-1,10
 249 593 249 593 247 583 c 0,11,12
 234 523 234 523 234 456 c 0,13,14
 234 306 234 306 326 256 c 0,15,16
 373 232 373 232 518 232 c 2,17,-1
 1039 232 l 1,18,19
 1034 241 1034 241 1034 258 c 0,20,21
 1034 312 1034 312 1106 415 c 0,22,23
 1337 750 1337 750 1480 750 c 0,24,25
 1553 750 1553 750 1605.5 684.5 c 128,-1,26
 1658 619 1658 619 1658 523 c 0,27,28
 1658 394 1658 394 1558 232 c 1,29,-1
 1774 232 l 1,30,-1
 1774 0 l 1,31,-1
 1372 0 l 1,32,-1
 1280 56 l 1,33,-1
 1210 0 l 1,34,-1
 342 0 l 2,0,1
1487 324 m 1,35,36
 1499 361 1499 361 1499 406 c 0,37,38
 1499 533 1499 533 1421 533 c 0,39,40
 1376 533 1376 533 1312 470.5 c 128,-1,41
 1248 408 1248 408 1222 352 c 1,42,-1
 1332 265 l 2,43,44
 1351 251 1351 251 1360 251 c 0,45,46
 1364 253 1364 253 1381 260 c 2,47,-1
 1487 324 l 1,35,36
EndSplineSet
EndChar

StartChar: afii62889
Encoding: 65555 -1 123
Width: 1210
Flags: W
LayerCount: 2
Fore
SplineSet
511 -534 m 2,0,1
 356 -534 356 -534 258.5 -434 c 128,-1,2
 161 -334 161 -334 150 -163 c 1,3,4
 150 92 150 92 271 248 c 0,5,6
 296 277 296 277 305.5 273.5 c 128,-1,7
 315 270 315 270 307 248 c 0,8,9
 263 132 263 132 255 31 c 128,-1,10
 247 -70 247 -70 273 -145 c 128,-1,11
 299 -220 299 -220 360 -264 c 128,-1,12
 421 -308 421 -308 517 -310 c 0,13,14
 739 -312 739 -312 977 -148 c 1,15,16
 1001 -66 1001 -66 1004 0 c 1,17,-1
 854 -1 l 2,18,19
 761 -1 761 -1 712 8 c 0,20,21
 655 20 655 20 615.5 72 c 128,-1,22
 576 124 576 124 576 187 c 0,23,24
 576 365 576 365 716 548 c 1,25,26
 800 677 800 677 874 677 c 0,27,28
 986 677 986 677 1072 492 c 1,29,30
 1133 374 1133 374 1148 232 c 1,31,-1
 1229 232 l 1,32,-1
 1229 0 l 1,33,-1
 1140 0 l 1,34,35
 1128 -64 1128 -64 1110 -133 c 0,36,37
 1074 -245 1074 -245 1026 -347 c 1,38,39
 749 -534 749 -534 522 -534 c 2,40,-1
 511 -534 l 2,0,1
992 232 m 1,41,42
 965 458 965 458 857 458 c 0,43,44
 820 458 820 458 780 416 c 0,45,46
 731 362 731 362 731 311 c 0,47,48
 731 232 731 232 850 232 c 2,49,-1
 992 232 l 1,41,42
EndSplineSet
EndChar

StartChar: afii62887
Encoding: 65556 -1 124
Width: 1418
Flags: W
LayerCount: 2
Fore
SplineSet
1285 666 m 1,0,1
 1398 526 1398 526 1398 383 c 0,2,3
 1398 305 1398 305 1344 152 c 0,4,5
 1328 108 1328 108 1288 0 c 1,6,-1
 330 0 l 2,7,8
 290 0 290 0 239 31 c 0,9,10
 124 97 124 97 124 264 c 0,11,12
 124 425 124 425 208 583 c 0,13,14
 212 591 212 591 218 596 c 128,-1,15
 224 601 224 601 228.5 601.5 c 128,-1,16
 233 602 233 602 235 597.5 c 128,-1,17
 237 593 237 593 235 583 c 0,18,19
 222 523 222 523 222 456 c 0,20,21
 222 306 222 306 314 256 c 0,22,23
 361 232 361 232 506 232 c 2,24,-1
 1246 232 l 1,25,26
 1243 371 1243 371 1154 492 c 1,27,-1
 1285 666 l 1,0,1
EndSplineSet
EndChar

StartChar: afii62888
Encoding: 1697 1697 125
Width: 1524
GlyphClass: 2
Flags: W
LayerCount: 2
Fore
SplineSet
328 0 m 2,0,1
 288 0 288 0 236 31 c 0,2,3
 121 97 121 97 121 264 c 0,4,5
 121 425 121 425 205 583 c 0,6,7
 209 591 209 591 215 596 c 128,-1,8
 221 601 221 601 225.5 601.5 c 128,-1,9
 230 602 230 602 232.5 597.5 c 128,-1,10
 235 593 235 593 233 583 c 0,11,12
 220 523 220 523 220 456 c 0,13,14
 220 306 220 306 312 256 c 0,15,16
 359 232 359 232 504 232 c 2,17,-1
 1362 232 l 1,18,19
 1369 302 1369 302 1369 331 c 0,20,21
 1369 337 1369 337 1364 376 c 1,22,-1
 1300 295 l 1,23,-1
 1158 295 l 2,24,25
 1069 295 1069 295 1039 300 c 0,26,27
 990 307 990 307 957 355 c 128,-1,28
 924 403 924 403 924 467 c 0,29,30
 924 577 924 577 995 698 c 0,31,32
 1106 882 1106 882 1224 882 c 0,33,34
 1261 882 1261 882 1288 865 c 0,35,36
 1379 806 1379 806 1436.5 678.5 c 128,-1,37
 1494 551 1494 551 1494 408 c 0,38,39
 1494 275 1494 275 1398 19 c 2,40,-1
 1391 0 l 1,41,-1
 328 0 l 2,0,1
1346 509 m 1,42,43
 1344 584 1344 584 1302.5 643.5 c 128,-1,44
 1261 703 1261 703 1212 703 c 0,45,46
 1175 703 1175 703 1140 673 c 0,47,48
 1086 626 1086 626 1086 575 c 0,49,50
 1086 509 1086 509 1205 509 c 2,51,-1
 1346 509 l 1,42,43
EndSplineSet
Substitution2: "'medi' Medial Forms in Arabic lookup 3 subtable" afii57374
Substitution2: "'fina' Terminal Forms in Arabic lookup 2 subtable" afii52258
Substitution2: "'init' Initial Forms in Arabic lookup 1 subtable" afii57459
EndChar

StartChar: afii57567
Encoding: 1705 1705 132
Width: 1570
GlyphClass: 2
Flags: W
AnchorPoint: "Anchor-3" 630 -585 basechar 0
AnchorPoint: "Anchor-2" 510 1245 basechar 0
LayerCount: 2
Fore
SplineSet
301 0 m 2,0,1
 262 0 262 0 210 31 c 0,2,3
 95 97 95 97 95 264 c 0,4,5
 95 425 95 425 179 583 c 0,6,7
 183 591 183 591 189 596 c 128,-1,8
 195 601 195 601 199.5 601.5 c 128,-1,9
 204 602 204 602 206 597.5 c 128,-1,10
 208 593 208 593 206 583 c 0,11,12
 193 523 193 523 193 456 c 0,13,14
 193 306 193 306 286 256 c 0,15,16
 332 232 332 232 478 232 c 2,17,-1
 1240 232 l 1,18,-1
 839 676 l 1,19,-1
 802 636 l 1,20,-1
 716 720 l 2,21,22
 707 730 707 730 689 745 c 0,23,24
 665 769 665 769 665 794 c 0,25,26
 665 814 665 814 679 846 c 2,27,-1
 785 1081 l 1,28,-1
 1553 1294 l 1,29,-1
 1456 1082 l 1,30,-1
 881 914 l 1,31,-1
 1390 354 l 2,32,33
 1456 280 1456 280 1456 246 c 0,34,35
 1456 226 1456 226 1439 194 c 2,36,-1
 1338 0 l 1,37,-1
 301 0 l 2,0,1
EndSplineSet
Substitution2: "'medi' Medial Forms in Arabic lookup 3 subtable" afii52306
Substitution2: "'fina' Terminal Forms in Arabic lookup 2 subtable" afii62964
Substitution2: "'init' Initial Forms in Arabic lookup 1 subtable" afii52305
EndChar

StartChar: afii62964
Encoding: 64399 64399 133
Width: 1686
GlyphClass: 2
Flags: W
AnchorPoint: "Anchor-3" 780 -600 basechar 0
AnchorPoint: "Anchor-2" 585 1170 basechar 0
LayerCount: 2
Fore
SplineSet
370 0 m 2,0,1
 330 0 330 0 278 31 c 0,2,3
 163 97 163 97 163 264 c 0,4,5
 163 425 163 425 247 583 c 0,6,7
 251 591 251 591 257 596 c 128,-1,8
 263 601 263 601 267.5 601.5 c 128,-1,9
 272 602 272 602 274.5 597.5 c 128,-1,10
 277 593 277 593 275 583 c 0,11,12
 262 523 262 523 262 456 c 0,13,14
 262 306 262 306 354 256 c 0,15,16
 401 232 401 232 546 232 c 2,17,-1
 1307 232 l 1,18,-1
 906 676 l 1,19,-1
 871 636 l 1,20,-1
 756 745 l 2,21,22
 732 767 732 767 732 794 c 0,23,24
 732 814 732 814 746 846 c 2,25,-1
 758 872 l 1,26,-1
 852 1081 l 1,27,-1
 1632 1303 l 1,28,-1
 1535 1092 l 1,29,-1
 948 914 l 1,30,-1
 1459 354 l 2,31,32
 1525 280 1525 280 1525 244 c 0,33,34
 1525 236 1525 236 1523 232 c 1,35,-1
 1697 232 l 1,36,-1
 1697 0 l 1,37,-1
 1499 0 l 1,38,-1
 1438 71 l 1,39,-1
 1393 0 l 1,40,-1
 370 0 l 2,0,1
EndSplineSet
EndChar

StartChar: afii52305
Encoding: 64400 64400 134
Width: 853
GlyphClass: 2
Flags: W
AnchorPoint: "Anchor-3" 345 -525 basechar 0
AnchorPoint: "Anchor-2" 150 1350 basechar 0
LayerCount: 2
Fore
SplineSet
823 1296 m 1,0,-1
 726 1085 l 1,1,-1
 138 914 l 1,2,-1
 647 354 l 2,3,4
 713 280 713 280 713 246 c 0,5,6
 713 226 713 226 696 194 c 2,7,-1
 595 0 l 1,8,-1
 -7 0 l 1,9,-1
 -7 232 l 1,10,-1
 497 232 l 1,11,-1
 96 676 l 1,12,-1
 59 636 l 1,13,-1
 -26 720 l 2,14,15
 -36 730 -36 730 -54 745 c 0,16,17
 -78 769 -78 769 -78 794 c 0,18,19
 -78 814 -78 814 -64 846 c 2,20,-1
 -52 872 l 1,21,-1
 42 1081 l 1,22,-1
 823 1296 l 1,0,-1
EndSplineSet
EndChar

StartChar: afii52306
Encoding: 64401 64401 135
Width: 900
GlyphClass: 2
Flags: W
AnchorPoint: "Anchor-3" 285 -570 basechar 0
AnchorPoint: "Anchor-2" 255 1380 basechar 0
LayerCount: 2
Fore
SplineSet
-11 0 m 1,0,-1
 -11 232 l 1,1,-1
 517 232 l 1,2,-1
 116 676 l 1,3,-1
 82 636 l 1,4,-1
 -34 745 l 2,5,6
 -58 767 -58 767 -58 794 c 0,7,8
 -58 814 -58 814 -43 846 c 2,9,-1
 -31 872 l 1,10,-1
 62 1081 l 1,11,-1
 847 1300 l 1,12,-1
 750 1088 l 1,13,-1
 158 914 l 1,14,-1
 670 354 l 2,15,16
 736 280 736 280 736 244 c 0,17,18
 736 236 736 236 733 232 c 1,19,-1
 919 232 l 1,20,-1
 919 0 l 1,21,-1
 709 0 l 1,22,-1
 648 71 l 1,23,-1
 604 0 l 1,24,-1
 -11 0 l 1,0,-1
EndSplineSet
EndChar

StartChar: afii57509
Encoding: 1711 1711 136
Width: 1672
GlyphClass: 2
Flags: W
AnchorPoint: "Anchor-3" 615 -570 basechar 0
AnchorPoint: "Anchor-2" 495 1320 basechar 0
LayerCount: 2
Fore
SplineSet
298 0 m 2,0,1
 258 0 258 0 206 31 c 0,2,3
 91 97 91 97 91 264 c 0,4,5
 91 425 91 425 175 583 c 0,6,7
 179 591 179 591 185 596 c 128,-1,8
 191 601 191 601 195.5 601.5 c 128,-1,9
 200 602 200 602 202.5 597.5 c 128,-1,10
 205 593 205 593 203 583 c 0,11,12
 190 523 190 523 190 456 c 0,13,14
 190 306 190 306 282 256 c 0,15,16
 329 232 329 232 474 232 c 2,17,-1
 1240 232 l 1,18,-1
 886 548 l 1,19,-1
 848 509 l 1,20,-1
 763 593 l 2,21,22
 754 602 754 602 736 618 c 0,23,24
 712 642 712 642 712 667 c 0,25,26
 712 686 712 686 726 719 c 2,27,-1
 738 745 l 1,28,-1
 832 954 l 1,29,-1
 1600 1169 l 1,30,-1
 1502 958 l 1,31,-1
 928 787 l 1,32,-1
 1390 354 l 1,33,34
 1456 280 1456 280 1456 246 c 0,35,36
 1456 226 1456 226 1439 194 c 2,37,-1
 1338 0 l 1,38,-1
 298 0 l 2,0,1
1611 1361 m 1,39,-1
 1559 1239 l 1,40,-1
 863 1055 l 1,41,-1
 916 1182 l 1,42,-1
 1611 1361 l 1,39,-1
EndSplineSet
Substitution2: "'medi' Medial Forms in Arabic lookup 3 subtable" afii62966
Substitution2: "'fina' Terminal Forms in Arabic lookup 2 subtable" afii62967
Substitution2: "'init' Initial Forms in Arabic lookup 1 subtable" afii62965
EndChar

StartChar: afii62967
Encoding: 64403 64403 137
Width: 1686
GlyphClass: 2
Flags: W
AnchorPoint: "Anchor-3" 810 -600 basechar 0
AnchorPoint: "Anchor-2" 540 1275 basechar 0
LayerCount: 2
Fore
SplineSet
370 0 m 2,0,1
 330 0 330 0 278 31 c 0,2,3
 163 97 163 97 163 264 c 0,4,5
 163 425 163 425 247 583 c 0,6,7
 251 591 251 591 257 596 c 128,-1,8
 263 601 263 601 267.5 601.5 c 128,-1,9
 272 602 272 602 274.5 597.5 c 128,-1,10
 277 593 277 593 275 583 c 0,11,12
 262 523 262 523 262 456 c 0,13,14
 262 306 262 306 354 256 c 0,15,16
 401 232 401 232 546 232 c 2,17,-1
 1307 232 l 1,18,-1
 965 544 l 1,19,-1
 930 504 l 1,20,-1
 815 613 l 2,21,22
 791 635 791 635 791 662 c 0,23,24
 791 682 791 682 805 714 c 2,25,-1
 817 740 l 1,26,-1
 911 949 l 1,27,-1
 1684 1162 l 1,28,-1
 1586 950 l 1,29,-1
 1007 782 l 1,30,-1
 1459 354 l 1,31,32
 1525 280 1525 280 1525 244 c 0,33,34
 1525 236 1525 236 1523 232 c 1,35,-1
 1697 232 l 1,36,-1
 1697 0 l 1,37,-1
 1499 0 l 1,38,-1
 1438 71 l 1,39,-1
 1393 0 l 1,40,-1
 370 0 l 2,0,1
1739 1380 m 1,41,-1
 1687 1258 l 1,42,-1
 947 1055 l 1,43,-1
 1000 1182 l 1,44,-1
 1739 1380 l 1,41,-1
EndSplineSet
EndChar

StartChar: afii62965
Encoding: 64404 64404 138
Width: 931
GlyphClass: 2
Flags: W
AnchorPoint: "Anchor-3" 330 -510 basechar 0
AnchorPoint: "Anchor-2" 360 1515 basechar 0
LayerCount: 2
Fore
SplineSet
898 1175 m 1,0,-1
 800 964 l 1,1,-1
 218 793 l 1,2,-1
 666 354 l 1,3,4
 732 280 732 280 732 246 c 0,5,6
 732 226 732 226 715 194 c 2,7,-1
 614 0 l 1,8,-1
 -12 0 l 1,9,-1
 -12 232 l 1,10,-1
 516 232 l 1,11,-1
 176 554 l 1,12,-1
 139 515 l 1,13,-1
 54 599 l 2,14,15
 44 608 44 608 26 624 c 0,16,17
 2 648 2 648 2 673 c 0,18,19
 2 692 2 692 17 725 c 2,20,-1
 29 751 l 1,21,-1
 122 960 l 1,22,-1
 898 1175 l 1,0,-1
901 1362 m 1,23,-1
 849 1240 l 1,24,-1
 143 1043 l 1,25,-1
 196 1170 l 1,26,-1
 901 1362 l 1,23,-1
EndSplineSet
EndChar

StartChar: afii62966
Encoding: 64405 64405 139
Width: 940
GlyphClass: 2
Flags: W
AnchorPoint: "Anchor-3" 390 -555 basechar 0
AnchorPoint: "Anchor-2" 405 1500 basechar 0
LayerCount: 2
Fore
SplineSet
-19 0 m 1,0,-1
 -19 232 l 1,1,-1
 557 232 l 1,2,-1
 211 553 l 1,3,-1
 176 514 l 1,4,-1
 61 623 l 2,5,6
 37 644 37 644 37 672 c 0,7,8
 37 691 37 691 52 724 c 2,9,-1
 64 750 l 1,10,-1
 157 959 l 1,11,-1
 924 1171 l 1,12,-1
 827 960 l 1,13,-1
 253 792 l 1,14,-1
 709 354 l 1,15,16
 775 280 775 280 775 244 c 0,17,18
 775 236 775 236 773 232 c 1,19,-1
 959 232 l 1,20,-1
 959 0 l 1,21,-1
 749 0 l 1,22,-1
 688 71 l 1,23,-1
 643 0 l 1,24,-1
 -19 0 l 1,0,-1
970 1380 m 1,25,-1
 918 1258 l 1,26,-1
 178 1055 l 1,27,-1
 230 1182 l 1,28,-1
 970 1380 l 1,25,-1
EndSplineSet
EndChar

StartChar: afii57555
Encoding: 1740 1740 140
Width: 1219
GlyphClass: 2
Flags: W
AnchorPoint: "Anchor-3" 450 -870 basechar 0
AnchorPoint: "Anchor-2" 585 840 basechar 0
LayerCount: 2
Fore
SplineSet
977 32 m 1,0,1
 1019 73 1019 73 936 89 c 1,2,-1
 656 173 l 2,3,4
 594 193 594 193 578 206.5 c 128,-1,5
 562 220 562 220 558 253 c 0,6,7
 553 307 553 307 599 418 c 1,8,9
 775 786 775 786 1060 815 c 0,10,11
 1162 824 1162 824 1170 755 c 0,12,13
 1170 742 1170 742 1134 582 c 1,14,15
 1067 602 1067 602 1001 596 c 0,16,17
 829 580 829 580 718 401 c 1,18,-1
 1033 298 l 2,19,20
 1133 264 1133 264 1151 230 c 0,21,22
 1181 181 1181 181 1122 -76 c 1,23,24
 1080 -151 1080 -151 884 -289 c 128,-1,25
 688 -427 688 -427 526 -444 c 0,26,27
 371 -460 371 -460 263.5 -369 c 128,-1,28
 156 -278 156 -278 127 -90 c 0,29,30
 119 -33 119 -33 123 25 c 128,-1,31
 127 83 127 83 137.5 137 c 128,-1,32
 148 191 148 191 164.5 238 c 128,-1,33
 181 285 181 285 199 319 c 0,34,35
 205 328 205 328 211 333.5 c 128,-1,36
 217 339 217 339 222 339.5 c 128,-1,37
 227 340 227 340 229 335.5 c 128,-1,38
 231 331 231 331 228 319 c 0,39,40
 198 199 198 199 203.5 98.5 c 128,-1,41
 209 -2 209 -2 247 -72.5 c 128,-1,42
 285 -143 285 -143 354.5 -179 c 128,-1,43
 424 -215 424 -215 522 -204 c 0,44,45
 642 -192 642 -192 858 -53 c 1,46,-1
 977 32 l 1,0,1
EndSplineSet
Substitution2: "'medi' Medial Forms in Arabic lookup 3 subtable" afii62832
Substitution2: "'fina' Terminal Forms in Arabic lookup 2 subtable" afii52364
Substitution2: "'init' Initial Forms in Arabic lookup 1 subtable" uniFBFE
EndChar

StartChar: afii52364
Encoding: 64509 64509 141
Width: 1255
GlyphClass: 2
Flags: W
AnchorPoint: "Anchor-3" 525 -975 basechar 0
AnchorPoint: "Anchor-2" 465 585 basechar 0
LayerCount: 2
Fore
SplineSet
450 -556 m 1,0,1
 295 -556 295 -556 197.5 -455.5 c 128,-1,2
 100 -355 100 -355 89 -175 c 0,3,4
 87 -114 87 -114 97 -52 c 128,-1,5
 107 10 107 10 124.5 66 c 128,-1,6
 142 122 142 122 164.5 168.5 c 128,-1,7
 187 215 187 215 210 245 c 0,8,9
 225 265 225 265 236.5 265 c 128,-1,10
 248 265 248 265 240 245 c 0,11,12
 195 127 195 127 187.5 23.5 c 128,-1,13
 180 -80 180 -80 208.5 -157 c 128,-1,14
 237 -234 237 -234 301.5 -279 c 128,-1,15
 366 -324 366 -324 464 -324 c 256,16,17
 562 -324 562 -324 667 -281 c 0,18,19
 773 -239 773 -239 850 -172 c 0,20,21
 886 -140 886 -140 930 -84 c 1,22,23
 815 5 815 5 604 5 c 2,24,-1
 587 5 l 1,25,-1
 686 232 l 1,26,-1
 1276 232 l 1,27,-1
 1276 0 l 1,28,-1
 1134 0 l 1,29,-1
 1117 -37 l 2,30,31
 1097 -82 1097 -82 1051 -180 c 0,32,33
 997 -288 997 -288 962 -352 c 1,34,35
 700 -548 700 -548 450 -556 c 1,0,1
EndSplineSet
EndChar

StartChar: afii62945
Encoding: 65557 -1 147
Width: 2245
GlyphClass: 3
Flags: W
LayerCount: 2
Fore
SplineSet
1466 1108 m 1,0,-1
 1463 282 l 2,1,2
 1463 233 1463 233 1525 233 c 2,3,-1
 1964 232 l 1,4,-1
 1898 912 l 1,5,6
 1837 929 1837 929 1837 971 c 0,7,8
 1837 988 1837 988 1854 1015 c 2,9,-1
 1960 1189 l 1,10,11
 1962 1135 1962 1135 1987 1111 c 0,12,13
 2002 1096 2002 1096 2051 1074 c 2,14,-1
 2201 1008 l 1,15,-1
 2122 826 l 1,16,-1
 2077 842 l 1,17,-1
 2119 371 l 1,18,19
 2119 298 2119 298 2070 150 c 1,20,-1
 2068 143 l 1,21,-1
 2030 37 l 1,22,-1
 2016 0 l 1,23,-1
 1378 1 l 2,24,25
 1289 1 1289 1 1274 72 c 1,26,-1
 1223 1 l 1,27,-1
 756 0 l 1,28,-1
 726 138 l 1,29,-1
 653 32 l 1,30,-1
 121 110 l 1,31,-1
 205 366 l 2,32,33
 212 386 212 386 224 417 c 128,-1,34
 236 448 236 448 294 476 c 2,35,-1
 618 654 l 1,36,-1
 606 708 l 1,37,-1
 770 851 l 1,38,-1
 895 232 l 1,39,-1
 1274 233 l 1,40,-1
 1278 906 l 1,41,-1
 1466 1108 l 1,0,-1
644 526 m 1,42,-1
 372 376 l 2,43,44
 332 354 332 354 323 314 c 1,45,-1
 698 258 l 1,46,-1
 644 526 l 1,42,-1
EndSplineSet
EndChar

StartChar: afii64184
Encoding: 65010 65010 148
Width: 2245
GlyphClass: 3
Flags: W
AnchorPoint: "Anchor-1" 1980 -420 baselig 0
AnchorPoint: "Anchor-0" 1965 1320 baselig 0
AnchorPoint: "Anchor-1" 1290 -570 baselig 1
AnchorPoint: "Anchor-0" 1425 1200 baselig 1
AnchorPoint: "Anchor-1" 525 -525 baselig 2
AnchorPoint: "Anchor-0" 540 960 baselig 2
LayerCount: 2
Fore
SplineSet
1466 1108 m 1,0,-1
 1463 282 l 2,1,2
 1463 233 1463 233 1525 233 c 2,3,-1
 1964 232 l 1,4,-1
 1898 912 l 1,5,6
 1837 929 1837 929 1837 971 c 0,7,8
 1837 988 1837 988 1854 1015 c 2,9,-1
 1960 1189 l 1,10,11
 1962 1135 1962 1135 1987 1111 c 0,12,13
 2002 1096 2002 1096 2051 1074 c 2,14,-1
 2201 1008 l 1,15,-1
 2122 826 l 1,16,-1
 2077 842 l 1,17,-1
 2119 371 l 1,18,19
 2119 298 2119 298 2070 150 c 1,20,-1
 2068 143 l 1,21,-1
 2030 37 l 1,22,-1
 2016 0 l 1,23,-1
 1378 1 l 2,24,25
 1289 1 1289 1 1274 72 c 1,26,-1
 1223 1 l 1,27,-1
 756 0 l 1,28,-1
 726 138 l 1,29,-1
 653 32 l 1,30,-1
 121 110 l 1,31,-1
 205 366 l 2,32,33
 212 386 212 386 224 417 c 128,-1,34
 236 448 236 448 294 476 c 2,35,-1
 618 654 l 1,36,-1
 606 708 l 1,37,-1
 770 851 l 1,38,-1
 895 232 l 1,39,-1
 1274 233 l 1,40,-1
 1278 906 l 1,41,-1
 1466 1108 l 1,0,-1
644 526 m 1,42,-1
 372 376 l 2,43,44
 332 354 332 354 323 314 c 1,45,-1
 698 258 l 1,46,-1
 644 526 l 1,42,-1
1442 1708 m 0,47,48
 1442 1646 1442 1646 1336 1536 c 1,49,50
 1348 1652 1348 1652 1348 1692 c 0,51,52
 1348 1708 1348 1708 1309 1894 c 1,53,-1
 1394 1968 l 1,54,55
 1442 1787 1442 1787 1442 1708 c 0,47,48
1540 1484 m 1,56,57
 1617 1392 1617 1392 1617 1321 c 0,58,59
 1617 1281 1617 1281 1589 1213 c 1,60,-1
 1441 1213 l 1,61,-1
 1417 1250 l 1,62,-1
 1377 1213 l 1,63,64
 1239 1213 1239 1213 1213 1225 c 0,65,66
 1161 1254 1161 1254 1161 1322 c 0,67,68
 1161 1389 1161 1389 1207 1462 c 1,69,70
 1198 1408 1198 1408 1198 1389 c 0,71,72
 1198 1303 1198 1303 1299 1303 c 2,73,-1
 1383 1303 l 1,74,-1
 1305 1419 l 1,75,-1
 1349 1466 l 1,76,-1
 1463 1303 l 1,77,-1
 1561 1303 l 1,78,79
 1547 1376 1547 1376 1487 1432 c 1,80,-1
 1540 1484 l 1,56,57
EndSplineSet
Ligature2: "'rlig' Required Ligatures in Arabic lookup 5 subtable" afii62817 afii62818 uniFC63 afii62828
Ligature2: "'rlig' Required Ligatures in Arabic lookup 5 subtable" afii62817 afii62818 afii57457 uni0670 afii62828
EndChar

StartChar: afii57415.001
Encoding: 1575 1575 162
Width: 463
GlyphClass: 2
Flags: W
AnchorPoint: "Anchor-3" 300 -405 basechar 0
AnchorPoint: "Anchor-2" 285 1425 basechar 0
LayerCount: 2
Fore
SplineSet
209 -82 m 1,0,1
 223 108 223 108 223 239 c 0,2,3
 223 413 223 413 206 710 c 0,4,5
 192 954 192 954 174 1076 c 1,6,-1
 371 1320 l 1,7,-1
 418 1030 l 1,8,-1
 373 978 l 1,9,-1
 376 949 l 1,10,11
 391 683 391 683 392.5 483 c 128,-1,12
 394 283 394 283 368 202 c 0,13,14
 334 103 334 103 209 -82 c 1,0,1
EndSplineSet
Substitution2: "'fina' Terminal Forms in Arabic lookup 2 subtable" afii62760
PairPos2: "'kern' Horizontal Kerning in Arabic lookup 0 subtable" afii57410 dx=0 dy=0 dh=0 dv=0 dx=0 dy=0 dh=-100 dv=0
PairPos2: "'kern' Horizontal Kerning in Arabic lookup 0 subtable" afii62965 dx=0 dy=0 dh=0 dv=0 dx=0 dy=0 dh=-100 dv=0
PairPos2: "'kern' Horizontal Kerning in Arabic lookup 0 subtable" afii57509 dx=0 dy=0 dh=0 dv=0 dx=0 dy=0 dh=-100 dv=0
PairPos2: "'kern' Horizontal Kerning in Arabic lookup 0 subtable" afii52305 dx=0 dy=0 dh=0 dv=0 dx=0 dy=0 dh=-100 dv=0
PairPos2: "'kern' Horizontal Kerning in Arabic lookup 0 subtable" afii57567 dx=0 dy=0 dh=0 dv=0 dx=0 dy=0 dh=-100 dv=0
EndChar

StartChar: afii62760.001
Encoding: 65558 -1 163
Width: 505
GlyphClass: 2
Flags: W
LayerCount: 2
Fore
SplineSet
522 0 m 1,0,-1
 258 0 l 2,1,2
 229 0 229 0 196.5 14 c 128,-1,3
 164 28 164 28 162 86 c 2,4,-1
 160 133 l 1,5,-1
 145 1123 l 1,6,-1
 332 1320 l 1,7,-1
 328 329 l 2,8,9
 328 270 328 270 337.5 251 c 128,-1,10
 347 232 347 232 416 232 c 2,11,-1
 522 232 l 1,12,-1
 522 0 l 1,0,-1
EndSplineSet
EndChar

StartChar: afii57421
Encoding: 1581 1581 182
Width: 1264
GlyphClass: 2
Flags: W
AnchorPoint: "Anchor-3" 525 -1140 basechar 0
AnchorPoint: "Anchor-2" 675 1065 basechar 0
LayerCount: 2
Fore
SplineSet
1128 541 m 1,0,1
 980 539 980 539 868 514 c 0,2,3
 598 457 598 457 417 285 c 128,-1,4
 236 113 236 113 236 -84 c 0,5,6
 236 -176 236 -176 280 -239 c 128,-1,7
 324 -302 324 -302 397 -347 c 0,8,9
 571 -451 571 -451 810 -451 c 0,10,11
 899 -451 899 -451 996 -439 c 0,12,13
 1080 -430 1080 -430 1216 -397 c 1,14,15
 1181 -425 1181 -425 1146 -456 c 0,16,17
 1097 -503 1097 -503 1052 -553.5 c 128,-1,18
 1007 -604 1007 -604 974 -618 c 0,19,20
 874 -667 874 -667 679 -667 c 0,21,22
 397 -667 397 -667 242 -540 c 0,23,24
 152 -463 152 -463 119 -364.5 c 128,-1,25
 86 -266 86 -266 86 -185 c 0,26,27
 86 223 86 223 487 544 c 1,28,29
 391 565 391 565 326 565 c 0,30,31
 211 565 211 565 110 516 c 1,32,-1
 172 652 l 2,33,34
 228 774 228 774 347 774 c 0,35,36
 383 774 383 774 445 769 c 2,37,-1
 568 760 l 2,38,39
 784 742 784 742 978 742 c 0,40,41
 1130 742 1130 742 1246 757 c 1,42,-1
 1128 541 l 1,0,1
EndSplineSet
Substitution2: "'medi' Medial Forms in Arabic lookup 3 subtable" afii62775
Substitution2: "'fina' Terminal Forms in Arabic lookup 2 subtable" afii62776
Substitution2: "'init' Initial Forms in Arabic lookup 1 subtable" afii62774
EndChar

StartChar: afii62776
Encoding: 65186 65186 183
Width: 1368
GlyphClass: 2
Flags: W
AnchorPoint: "Anchor-3" 510 -1170 basechar 0
AnchorPoint: "Anchor-2" 735 1110 basechar 0
LayerCount: 2
Fore
SplineSet
970 236 m 1,0,-1
 899 510 l 1,1,2
 634 454 634 454 456 283 c 0,3,4
 275 112 275 112 275 -85 c 0,5,6
 275 -178 275 -178 318.5 -241 c 128,-1,7
 362 -304 362 -304 436 -348 c 0,8,9
 610 -452 610 -452 848 -452 c 0,10,11
 937 -452 937 -452 1034 -440 c 0,12,13
 1118 -431 1118 -431 1254 -398 c 1,14,15
 1219 -426 1219 -426 1184 -457 c 0,16,17
 1135 -504 1135 -504 1090 -554.5 c 128,-1,18
 1045 -605 1045 -605 1013 -619 c 0,19,20
 912 -668 912 -668 718 -668 c 0,21,22
 436 -668 436 -668 281 -541 c 0,23,24
 191 -464 191 -464 158 -366 c 128,-1,25
 125 -268 125 -268 125 -186 c 0,26,27
 125 222 125 222 526 542 c 1,28,29
 430 564 430 564 365 564 c 0,30,31
 250 564 250 564 149 515 c 1,32,-1
 210 650 l 2,33,34
 266 773 266 773 385 773 c 0,35,36
 421 773 421 773 484 768 c 2,37,-1
 606 758 l 2,38,39
 822 740 822 740 1016 740 c 0,40,41
 1169 740 1169 740 1284 756 c 1,42,-1
 1166 540 l 1,43,44
 1098 539 1098 539 1038 533 c 1,45,-1
 1117 324 l 2,46,47
 1141 260 1141 260 1163 246 c 0,48,49
 1183 232 1183 232 1252 232 c 2,50,-1
 1390 232 l 1,51,-1
 1390 0 l 1,52,-1
 1195 0 l 2,53,54
 1094 0 1094 0 1050 37 c 0,55,56
 1006 76 1006 76 982 182 c 2,57,-1
 970 236 l 1,0,-1
EndSplineSet
EndChar

StartChar: afii62774
Encoding: 65187 65187 184
Width: 1136
GlyphClass: 2
Flags: W
AnchorPoint: "Anchor-3" 405 -600 basechar 0
AnchorPoint: "Anchor-2" 465 1005 basechar 0
LayerCount: 2
Fore
SplineSet
1120 368 m 1,0,-1
 995 169 l 1,1,2
 886 192 886 192 812 192 c 0,3,4
 608 192 608 192 466 59 c 0,5,6
 421 17 421 17 402 8.5 c 128,-1,7
 383 0 383 0 329 0 c 2,8,-1
 -24 0 l 1,9,-1
 -24 232 l 1,10,-1
 409 232 l 1,11,12
 463 275 463 275 524 298 c 1,13,14
 416 386 416 386 298.5 444 c 128,-1,15
 181 502 181 502 109 502 c 0,16,17
 97 502 97 502 62 494 c 1,18,-1
 139 570 l 2,19,20
 224 656 224 656 299 656 c 0,21,22
 355 656 355 656 461 600 c 0,23,24
 684 479 684 479 866 418 c 0,25,26
 970 383 970 383 1092 371 c 2,27,-1
 1120 368 l 1,0,-1
EndSplineSet
EndChar

StartChar: afii62775
Encoding: 65188 65188 185
Width: 1302
GlyphClass: 2
Flags: W
AnchorPoint: "Anchor-3" 495 -540 basechar 0
AnchorPoint: "Anchor-2" 540 960 basechar 0
LayerCount: 2
Fore
SplineSet
1106 296 m 1,0,1
 1090 296 1090 296 1069.5 296 c 128,-1,2
 1049 296 1049 296 1027.5 295.5 c 128,-1,3
 1006 295 1006 295 985.5 293.5 c 128,-1,4
 965 292 965 292 949 290 c 1,5,6
 967 227 967 227 1024 232 c 1,7,-1
 1320 232 l 1,8,-1
 1320 0 l 1,9,-1
 1021 0 l 2,10,11
 932 0 932 0 895 14 c 0,12,13
 836 40 836 40 815 133 c 2,14,-1
 787 257 l 1,15,16
 666 232 666 232 514 59 c 0,17,18
 473 17 473 17 449.5 8 c 128,-1,19
 426 -1 426 -1 377 0 c 2,20,-1
 -18 0 l 1,21,-1
 -18 232 l 1,22,-1
 431 232 l 1,23,24
 535 326 535 326 596 349 c 1,25,26
 474 426 474 426 356.5 483.5 c 128,-1,27
 239 541 239 541 167 541 c 0,28,29
 155 541 155 541 120 534 c 1,30,-1
 194 610 l 2,31,32
 282 696 282 696 356 696 c 0,33,34
 410 696 410 696 518 643 c 0,35,36
 779 520 779 520 919.5 486 c 128,-1,37
 1060 452 1060 452 1177 446 c 1,38,-1
 1106 296 l 1,0,1
EndSplineSet
EndChar

StartChar: afii57423
Encoding: 1583 1583 190
Width: 740
GlyphClass: 2
Flags: W
AnchorPoint: "Anchor-3" 300 -510 basechar 0
AnchorPoint: "Anchor-2" 375 1005 basechar 0
LayerCount: 2
Fore
SplineSet
394 760 m 1,0,1
 680 635 680 635 719 364 c 1,2,3
 719 270 719 270 676 157 c 2,4,-1
 613 0 l 1,5,-1
 122 0 l 1,6,-1
 174 232 l 1,7,-1
 575 232 l 1,8,9
 568 352 568 352 496.5 436 c 128,-1,10
 425 520 425 520 305 578 c 1,11,-1
 394 760 l 1,0,1
EndSplineSet
Substitution2: "'fina' Terminal Forms in Arabic lookup 2 subtable" afii62780
PairPos2: "'kern' Horizontal Kerning in Arabic lookup 0 subtable" afii62817 dx=0 dy=0 dh=0 dv=0 dx=0 dy=0 dh=-60 dv=0
PairPos2: "'kern' Horizontal Kerning in Arabic lookup 0 subtable" afii57410 dx=0 dy=0 dh=0 dv=0 dx=0 dy=0 dh=-50 dv=0
PairPos2: "'kern' Horizontal Kerning in Arabic lookup 0 subtable" afii57443 dx=0 dy=0 dh=0 dv=0 dx=0 dy=0 dh=-60 dv=0
PairPos2: "'kern' Horizontal Kerning in Arabic lookup 0 subtable" afii62965 dx=0 dy=0 dh=0 dv=0 dx=0 dy=0 dh=-50 dv=0
PairPos2: "'kern' Horizontal Kerning in Arabic lookup 0 subtable" afii57509 dx=0 dy=0 dh=0 dv=0 dx=0 dy=0 dh=-50 dv=0
PairPos2: "'kern' Horizontal Kerning in Arabic lookup 0 subtable" afii52305 dx=0 dy=0 dh=0 dv=0 dx=0 dy=0 dh=-50 dv=0
PairPos2: "'kern' Horizontal Kerning in Arabic lookup 0 subtable" afii57567 dx=0 dy=0 dh=0 dv=0 dx=0 dy=0 dh=-50 dv=0
EndChar

StartChar: afii62780
Encoding: 65194 65194 191
Width: 984
GlyphClass: 2
Flags: W
AnchorPoint: "Anchor-3" 405 -600 basechar 0
AnchorPoint: "Anchor-2" 360 990 basechar 0
LayerCount: 2
Fore
SplineSet
997 232 m 1,0,-1
 997 0 l 1,1,-1
 835 0 l 1,2,-1
 793 79 l 1,3,-1
 737 0 l 1,4,-1
 304 0 l 2,5,6
 214 0 214 0 181 17 c 0,7,8
 134 42 134 42 134 108 c 0,9,10
 134 157 134 157 164 239 c 0,11,12
 172 256 172 256 196 312 c 1,13,14
 211 263 211 263 241.5 247.5 c 128,-1,15
 272 232 272 232 353 232 c 2,16,-1
 707 232 l 1,17,-1
 498 595 l 1,18,-1
 601 772 l 1,19,-1
 916 232 l 1,20,-1
 997 232 l 1,0,-1
EndSplineSet
PairPos2: "'kern' Horizontal Kerning in Arabic lookup 0 subtable" afii62817 dx=0 dy=0 dh=0 dv=0 dx=0 dy=0 dh=-60 dv=0
PairPos2: "'kern' Horizontal Kerning in Arabic lookup 0 subtable" afii57410 dx=0 dy=0 dh=0 dv=0 dx=0 dy=0 dh=-50 dv=0
PairPos2: "'kern' Horizontal Kerning in Arabic lookup 0 subtable" afii57443 dx=0 dy=0 dh=0 dv=0 dx=0 dy=0 dh=-60 dv=0
PairPos2: "'kern' Horizontal Kerning in Arabic lookup 0 subtable" afii62965 dx=0 dy=0 dh=0 dv=0 dx=0 dy=0 dh=-50 dv=0
PairPos2: "'kern' Horizontal Kerning in Arabic lookup 0 subtable" afii57509 dx=0 dy=0 dh=0 dv=0 dx=0 dy=0 dh=-50 dv=0
PairPos2: "'kern' Horizontal Kerning in Arabic lookup 0 subtable" afii52305 dx=0 dy=0 dh=0 dv=0 dx=0 dy=0 dh=-50 dv=0
PairPos2: "'kern' Horizontal Kerning in Arabic lookup 0 subtable" afii57567 dx=0 dy=0 dh=0 dv=0 dx=0 dy=0 dh=-50 dv=0
EndChar

StartChar: afii57425
Encoding: 1585 1585 194
Width: 660
GlyphClass: 2
Flags: W
AnchorPoint: "Anchor-3" 270 -885 basechar 0
AnchorPoint: "Anchor-2" 420 795 basechar 0
LayerCount: 2
Fore
SplineSet
527 481 m 1,0,1
 653 293 653 293 641 112 c 0,2,3
 630 -64 630 -64 504 -259 c 0,4,5
 360 -486 360 -486 222 -478 c 0,6,7
 173 -474 173 -474 103.5 -405.5 c 128,-1,8
 34 -337 34 -337 -22 -245 c 2,9,-1
 -36 -220 l 1,10,11
 43 -260 43 -260 127 -266 c 0,12,13
 235 -274 235 -274 345 -188.5 c 128,-1,14
 455 -103 455 -103 527 42 c 1,15,16
 506 122 506 122 469.5 197 c 128,-1,17
 433 272 433 272 388 338 c 1,18,-1
 527 481 l 1,0,1
EndSplineSet
Substitution2: "'fina' Terminal Forms in Arabic lookup 2 subtable" afii62782
PairPos2: "'kern' Horizontal Kerning in Arabic lookup 1 subtable" afii57470 dx=0 dy=0 dh=0 dv=0 dx=0 dy=0 dh=-100 dv=0
PairPos2: "'kern' Horizontal Kerning in Arabic lookup 1 subtable" afii57415 dx=0 dy=0 dh=0 dv=0 dx=0 dy=0 dh=-100 dv=0
PairPos2: "'kern' Horizontal Kerning in Arabic lookup 1 subtable" afii62840 dx=0 dy=0 dh=0 dv=0 dx=0 dy=0 dh=-200 dv=0
PairPos2: "'kern' Horizontal Kerning in Arabic lookup 1 subtable" afii62838 dx=0 dy=0 dh=0 dv=0 dx=0 dy=0 dh=-200 dv=0
PairPos2: "'kern' Horizontal Kerning in Arabic lookup 1 subtable" afii62836 dx=0 dy=0 dh=0 dv=0 dx=0 dy=0 dh=-200 dv=0
PairPos2: "'kern' Horizontal Kerning in Arabic lookup 1 subtable" afii62834 dx=0 dy=0 dh=0 dv=0 dx=0 dy=0 dh=-200 dv=0
PairPos2: "'kern' Horizontal Kerning in Arabic lookup 1 subtable" afii57415.001 dx=0 dy=0 dh=0 dv=0 dx=0 dy=0 dh=-100 dv=0
PairPos2: "'kern' Horizontal Kerning in Arabic lookup 1 subtable" afii52400 dx=0 dy=0 dh=0 dv=0 dx=0 dy=0 dh=-150 dv=0
PairPos2: "'kern' Horizontal Kerning in Arabic lookup 0 subtable" uniFBFE dx=0 dy=0 dh=0 dv=0 dx=0 dy=0 dh=100 dv=0
PairPos2: "'kern' Horizontal Kerning in Arabic lookup 0 subtable" afii62831 dx=0 dy=0 dh=0 dv=0 dx=0 dy=0 dh=100 dv=0
PairPos2: "'kern' Horizontal Kerning in Arabic lookup 0 subtable" afii62817 dx=0 dy=0 dh=0 dv=0 dx=0 dy=0 dh=-80 dv=0
PairPos2: "'kern' Horizontal Kerning in Arabic lookup 0 subtable" afii57410 dx=0 dy=0 dh=0 dv=0 dx=0 dy=0 dh=-100 dv=0
PairPos2: "'kern' Horizontal Kerning in Arabic lookup 0 subtable" afii57443 dx=0 dy=0 dh=0 dv=0 dx=0 dy=0 dh=-80 dv=0
PairPos2: "'kern' Horizontal Kerning in Arabic lookup 0 subtable" afii57434 dx=0 dy=0 dh=0 dv=0 dx=0 dy=0 dh=150 dv=0
PairPos2: "'kern' Horizontal Kerning in Arabic lookup 0 subtable" afii57433 dx=0 dy=0 dh=0 dv=0 dx=0 dy=0 dh=150 dv=0
PairPos2: "'kern' Horizontal Kerning in Arabic lookup 0 subtable" afii62761 dx=0 dy=0 dh=0 dv=0 dx=0 dy=0 dh=100 dv=0
PairPos2: "'kern' Horizontal Kerning in Arabic lookup 0 subtable" afii57413 dx=0 dy=0 dh=0 dv=0 dx=0 dy=0 dh=-100 dv=0
PairPos2: "'kern' Horizontal Kerning in Arabic lookup 0 subtable" afii52399 dx=0 dy=0 dh=0 dv=0 dx=0 dy=0 dh=-50 dv=0
PairPos2: "'kern' Horizontal Kerning in Arabic lookup 0 subtable" afii62965 dx=0 dy=0 dh=0 dv=0 dx=0 dy=0 dh=-100 dv=0
PairPos2: "'kern' Horizontal Kerning in Arabic lookup 0 subtable" afii57509 dx=0 dy=0 dh=0 dv=0 dx=0 dy=0 dh=-100 dv=0
PairPos2: "'kern' Horizontal Kerning in Arabic lookup 0 subtable" afii52305 dx=0 dy=0 dh=0 dv=0 dx=0 dy=0 dh=-100 dv=0
PairPos2: "'kern' Horizontal Kerning in Arabic lookup 0 subtable" afii57567 dx=0 dy=0 dh=0 dv=0 dx=0 dy=0 dh=-100 dv=0
PairPos2: "'kern' Horizontal Kerning in Arabic lookup 0 subtable" afii62956 dx=0 dy=0 dh=0 dv=0 dx=0 dy=0 dh=100 dv=0
EndChar

StartChar: afii62782
Encoding: 65198 65198 195
Width: 701
GlyphClass: 2
Flags: W
AnchorPoint: "Anchor-3" 255 -975 basechar 0
AnchorPoint: "Anchor-2" 330 720 basechar 0
LayerCount: 2
Fore
SplineSet
520 481 m 1,0,1
 605 354 605 354 628 232 c 1,2,-1
 719 232 l 1,3,-1
 719 0 l 1,4,-1
 616 0 l 1,5,6
 583 -125 583 -125 497 -259 c 0,7,8
 353 -486 353 -486 215 -478 c 0,9,10
 166 -474 166 -474 96 -405.5 c 128,-1,11
 26 -337 26 -337 -29 -245 c 2,12,-1
 -43 -220 l 1,13,14
 36 -260 36 -260 120 -266 c 0,15,16
 228 -274 228 -274 338 -188.5 c 128,-1,17
 448 -103 448 -103 520 42 c 1,18,19
 499 122 499 122 462.5 197 c 128,-1,20
 426 272 426 272 380 338 c 1,21,-1
 520 481 l 1,0,1
EndSplineSet
PairPos2: "'kern' Horizontal Kerning in Arabic lookup 1 subtable" afii57470 dx=0 dy=0 dh=0 dv=0 dx=0 dy=0 dh=-100 dv=0
PairPos2: "'kern' Horizontal Kerning in Arabic lookup 1 subtable" afii57415 dx=0 dy=0 dh=0 dv=0 dx=0 dy=0 dh=-100 dv=0
PairPos2: "'kern' Horizontal Kerning in Arabic lookup 1 subtable" afii62840 dx=0 dy=0 dh=0 dv=0 dx=0 dy=0 dh=-200 dv=0
PairPos2: "'kern' Horizontal Kerning in Arabic lookup 1 subtable" afii62838 dx=0 dy=0 dh=0 dv=0 dx=0 dy=0 dh=-200 dv=0
PairPos2: "'kern' Horizontal Kerning in Arabic lookup 1 subtable" afii62836 dx=0 dy=0 dh=0 dv=0 dx=0 dy=0 dh=-200 dv=0
PairPos2: "'kern' Horizontal Kerning in Arabic lookup 1 subtable" afii62834 dx=0 dy=0 dh=0 dv=0 dx=0 dy=0 dh=-200 dv=0
PairPos2: "'kern' Horizontal Kerning in Arabic lookup 1 subtable" afii57415.001 dx=0 dy=0 dh=0 dv=0 dx=0 dy=0 dh=-100 dv=0
PairPos2: "'kern' Horizontal Kerning in Arabic lookup 1 subtable" afii52400 dx=0 dy=0 dh=0 dv=0 dx=0 dy=0 dh=-150 dv=0
PairPos2: "'kern' Horizontal Kerning in Arabic lookup 0 subtable" uniFBFE dx=0 dy=0 dh=0 dv=0 dx=0 dy=0 dh=100 dv=0
PairPos2: "'kern' Horizontal Kerning in Arabic lookup 0 subtable" afii62831 dx=0 dy=0 dh=0 dv=0 dx=0 dy=0 dh=100 dv=0
PairPos2: "'kern' Horizontal Kerning in Arabic lookup 0 subtable" afii62817 dx=0 dy=0 dh=0 dv=0 dx=0 dy=0 dh=-50 dv=0
PairPos2: "'kern' Horizontal Kerning in Arabic lookup 0 subtable" afii57410 dx=0 dy=0 dh=0 dv=0 dx=0 dy=0 dh=-100 dv=0
PairPos2: "'kern' Horizontal Kerning in Arabic lookup 0 subtable" afii57443 dx=0 dy=0 dh=0 dv=0 dx=0 dy=0 dh=-50 dv=0
PairPos2: "'kern' Horizontal Kerning in Arabic lookup 0 subtable" afii57434 dx=0 dy=0 dh=0 dv=0 dx=0 dy=0 dh=150 dv=0
PairPos2: "'kern' Horizontal Kerning in Arabic lookup 0 subtable" afii57433 dx=0 dy=0 dh=0 dv=0 dx=0 dy=0 dh=150 dv=0
PairPos2: "'kern' Horizontal Kerning in Arabic lookup 0 subtable" afii57422 dx=0 dy=0 dh=0 dv=0 dx=0 dy=0 dh=50 dv=0
PairPos2: "'kern' Horizontal Kerning in Arabic lookup 0 subtable" afii57421 dx=0 dy=0 dh=0 dv=0 dx=0 dy=0 dh=50 dv=0
PairPos2: "'kern' Horizontal Kerning in Arabic lookup 0 subtable" afii57420 dx=0 dy=0 dh=0 dv=0 dx=0 dy=0 dh=50 dv=0
PairPos2: "'kern' Horizontal Kerning in Arabic lookup 0 subtable" afii62761 dx=0 dy=0 dh=0 dv=0 dx=0 dy=0 dh=100 dv=0
PairPos2: "'kern' Horizontal Kerning in Arabic lookup 0 subtable" afii57413 dx=0 dy=0 dh=0 dv=0 dx=0 dy=0 dh=-100 dv=0
PairPos2: "'kern' Horizontal Kerning in Arabic lookup 0 subtable" afii52399 dx=0 dy=0 dh=0 dv=0 dx=0 dy=0 dh=-100 dv=0
PairPos2: "'kern' Horizontal Kerning in Arabic lookup 0 subtable" afii62965 dx=0 dy=0 dh=0 dv=0 dx=0 dy=0 dh=-100 dv=0
PairPos2: "'kern' Horizontal Kerning in Arabic lookup 0 subtable" afii57509 dx=0 dy=0 dh=0 dv=0 dx=0 dy=0 dh=-100 dv=0
PairPos2: "'kern' Horizontal Kerning in Arabic lookup 0 subtable" afii52305 dx=0 dy=0 dh=0 dv=0 dx=0 dy=0 dh=-100 dv=0
PairPos2: "'kern' Horizontal Kerning in Arabic lookup 0 subtable" afii57567 dx=0 dy=0 dh=0 dv=0 dx=0 dy=0 dh=-100 dv=0
PairPos2: "'kern' Horizontal Kerning in Arabic lookup 0 subtable" afii57507 dx=0 dy=0 dh=0 dv=0 dx=0 dy=0 dh=50 dv=0
PairPos2: "'kern' Horizontal Kerning in Arabic lookup 0 subtable" afii62956 dx=0 dy=0 dh=0 dv=0 dx=0 dy=0 dh=100 dv=0
EndChar

StartChar: afii57427
Encoding: 1587 1587 198
Width: 1868
GlyphClass: 2
Flags: W
AnchorPoint: "Anchor-3" 1005 -930 basechar 0
AnchorPoint: "Anchor-2" 1320 915 basechar 0
LayerCount: 2
Fore
SplineSet
450 -470 m 1,0,1
 295 -470 295 -470 197.5 -370 c 128,-1,2
 100 -270 100 -270 89 -90 c 0,3,4
 87 -27 87 -27 98 34 c 128,-1,5
 109 95 109 95 127.5 149.5 c 128,-1,6
 146 204 146 204 169 249 c 128,-1,7
 192 294 192 294 215 323 c 256,8,9
 238 352 238 352 247.5 349.5 c 128,-1,10
 257 347 257 347 247 323 c 0,11,12
 201 203 201 203 192 99.5 c 128,-1,13
 183 -4 183 -4 210 -80.5 c 128,-1,14
 237 -157 237 -157 301 -201.5 c 128,-1,15
 365 -246 365 -246 464 -246 c 0,16,17
 565 -246 565 -246 680 -196 c 0,18,19
 796 -145 796 -145 877 -73 c 1,20,21
 870 64 870 64 840 167 c 0,22,23
 814 263 814 263 727 394 c 1,24,-1
 860 551 l 1,25,26
 965 397 965 397 997 232 c 1,27,-1
 1241 232 l 1,28,29
 1244 239 1244 239 1243 259 c 128,-1,30
 1242 279 1242 279 1237 305 c 128,-1,31
 1232 331 1232 331 1222 358.5 c 128,-1,32
 1212 386 1212 386 1198 409 c 1,33,-1
 1330 570 l 1,34,35
 1350 566 1350 566 1363.5 547 c 128,-1,36
 1377 528 1377 528 1385 499.5 c 128,-1,37
 1393 471 1393 471 1396.5 436 c 128,-1,38
 1400 401 1400 401 1399.5 365 c 128,-1,39
 1399 329 1399 329 1395.5 294.5 c 128,-1,40
 1392 260 1392 260 1386 232 c 1,41,-1
 1696 232 l 1,42,-1
 1696 241 l 2,43,44
 1696 256 1696 256 1687 298 c 0,45,46
 1670 401 1670 401 1604 492 c 1,47,-1
 1732 666 l 1,48,49
 1846 530 1846 530 1846 378 c 0,50,51
 1846 260 1846 260 1734 0 c 1,52,-1
 1374 0 l 1,53,-1
 1337 89 l 1,54,-1
 1271 0 l 1,55,-1
 1002 0 l 1,56,57
 982 -118 982 -118 910 -289 c 1,58,59
 673 -460 673 -460 450 -470 c 1,0,1
EndSplineSet
Substitution2: "'medi' Medial Forms in Arabic lookup 3 subtable" afii62785
Substitution2: "'fina' Terminal Forms in Arabic lookup 2 subtable" afii62786
Substitution2: "'init' Initial Forms in Arabic lookup 1 subtable" afii62784
EndChar

StartChar: afii62786
Encoding: 65202 65202 199
Width: 2029
GlyphClass: 2
Flags: W
AnchorPoint: "Anchor-3" 1140 -810 basechar 0
AnchorPoint: "Anchor-2" 1320 885 basechar 0
LayerCount: 2
Fore
SplineSet
482 -470 m 1,0,1
 328 -470 328 -470 230 -370 c 128,-1,2
 132 -270 132 -270 121 -90 c 0,3,4
 119 -27 119 -27 130 34 c 128,-1,5
 141 95 141 95 159.5 149.5 c 128,-1,6
 178 204 178 204 201 249 c 128,-1,7
 224 294 224 294 247 323 c 256,8,9
 270 352 270 352 280 349.5 c 128,-1,10
 290 347 290 347 280 323 c 0,11,12
 233 203 233 203 224 99.5 c 128,-1,13
 215 -4 215 -4 242.5 -80.5 c 128,-1,14
 270 -157 270 -157 334 -201.5 c 128,-1,15
 398 -246 398 -246 497 -246 c 0,16,17
 598 -246 598 -246 713 -196 c 0,18,19
 828 -145 828 -145 910 -73 c 1,20,21
 902 64 902 64 872 167 c 0,22,23
 846 263 846 263 760 394 c 1,24,-1
 893 551 l 1,25,26
 997 397 997 397 1030 232 c 1,27,-1
 1277 232 l 1,28,29
 1280 239 1280 239 1279 259 c 128,-1,30
 1278 279 1278 279 1273 305 c 128,-1,31
 1268 331 1268 331 1258 358.5 c 128,-1,32
 1248 386 1248 386 1234 409 c 1,33,-1
 1366 570 l 1,34,35
 1386 566 1386 566 1399.5 547 c 128,-1,36
 1413 528 1413 528 1421 499.5 c 128,-1,37
 1429 471 1429 471 1432.5 436 c 128,-1,38
 1436 401 1436 401 1435.5 365 c 128,-1,39
 1435 329 1435 329 1431.5 294.5 c 128,-1,40
 1428 260 1428 260 1422 232 c 1,41,-1
 1721 232 l 1,42,43
 1724 239 1724 239 1723 259 c 128,-1,44
 1722 279 1722 279 1717 305 c 128,-1,45
 1712 331 1712 331 1702 358.5 c 128,-1,46
 1692 386 1692 386 1678 409 c 1,47,-1
 1810 570 l 1,48,49
 1830 566 1830 566 1843.5 547 c 128,-1,50
 1857 528 1857 528 1865 499.5 c 128,-1,51
 1873 471 1873 471 1876.5 436 c 128,-1,52
 1880 401 1880 401 1879.5 365 c 128,-1,53
 1879 329 1879 329 1875.5 294.5 c 128,-1,54
 1872 260 1872 260 1866 232 c 1,55,-1
 2044 232 l 1,56,-1
 2046 0 l 1,57,-1
 1854 0 l 1,58,-1
 1817 89 l 1,59,-1
 1751 0 l 1,60,-1
 1410 0 l 1,61,-1
 1373 89 l 1,62,-1
 1307 0 l 1,63,-1
 1034 0 l 1,64,65
 1014 -118 1014 -118 942 -289 c 1,66,67
 706 -460 706 -460 482 -470 c 1,0,1
EndSplineSet
EndChar

StartChar: afii62784
Encoding: 65203 65203 200
Width: 1319
GlyphClass: 2
Flags: W
AnchorPoint: "Anchor-3" 675 -585 basechar 0
AnchorPoint: "Anchor-2" 660 930 basechar 0
LayerCount: 2
Fore
SplineSet
721 0 m 1,0,-1
 380 0 l 1,1,-1
 343 89 l 1,2,-1
 277 0 l 1,3,-1
 -28 0 l 1,4,-1
 -26 232 l 1,5,-1
 247 232 l 1,6,7
 251 239 251 239 250 259 c 128,-1,8
 249 279 249 279 243.5 305 c 128,-1,9
 238 331 238 331 228 358.5 c 128,-1,10
 218 386 218 386 204 409 c 1,11,-1
 336 570 l 1,12,13
 356 566 356 566 369.5 547 c 128,-1,14
 383 528 383 528 391 499.5 c 128,-1,15
 399 471 399 471 402.5 436 c 128,-1,16
 406 401 406 401 405.5 365 c 128,-1,17
 405 329 405 329 401.5 294.5 c 128,-1,18
 398 260 398 260 392 232 c 1,19,-1
 691 232 l 1,20,21
 695 239 695 239 694 259 c 128,-1,22
 693 279 693 279 687.5 305 c 128,-1,23
 682 331 682 331 672 358.5 c 128,-1,24
 662 386 662 386 648 409 c 1,25,-1
 780 570 l 1,26,27
 800 566 800 566 813.5 547 c 128,-1,28
 827 528 827 528 835 499.5 c 128,-1,29
 843 471 843 471 846.5 436 c 128,-1,30
 850 401 850 401 849.5 365 c 128,-1,31
 849 329 849 329 845.5 294.5 c 128,-1,32
 842 260 842 260 836 232 c 1,33,-1
 1146 232 l 1,34,-1
 1146 241 l 2,35,36
 1146 256 1146 256 1138 298 c 0,37,38
 1121 401 1121 401 1055 492 c 1,39,-1
 1182 666 l 1,40,41
 1296 530 1296 530 1296 378 c 0,42,43
 1296 260 1296 260 1184 0 c 1,44,-1
 824 0 l 1,45,-1
 787 89 l 1,46,-1
 721 0 l 1,0,-1
EndSplineSet
EndChar

StartChar: afii62785
Encoding: 65204 65204 201
Width: 1390
GlyphClass: 2
Flags: W
AnchorPoint: "Anchor-3" 645 -585 basechar 0
AnchorPoint: "Anchor-2" 630 885 basechar 0
LayerCount: 2
Fore
SplineSet
1111 0 m 1,0,-1
 770 0 l 1,1,-1
 733 89 l 1,2,-1
 667 0 l 1,3,-1
 326 0 l 1,4,-1
 289 89 l 1,5,-1
 223 0 l 1,6,-1
 -22 0 l 1,7,-1
 -20 232 l 1,8,-1
 193 232 l 1,9,10
 197 239 197 239 196 259 c 128,-1,11
 195 279 195 279 189.5 305 c 128,-1,12
 184 331 184 331 174 358.5 c 128,-1,13
 164 386 164 386 150 409 c 1,14,-1
 282 570 l 1,15,16
 302 566 302 566 315.5 547 c 128,-1,17
 329 528 329 528 337 499.5 c 128,-1,18
 345 471 345 471 348.5 436 c 128,-1,19
 352 401 352 401 351.5 365 c 128,-1,20
 351 329 351 329 347.5 294.5 c 128,-1,21
 344 260 344 260 338 232 c 1,22,-1
 637 232 l 1,23,24
 641 239 641 239 640 259 c 128,-1,25
 639 279 639 279 633.5 305 c 128,-1,26
 628 331 628 331 618 358.5 c 128,-1,27
 608 386 608 386 594 409 c 1,28,-1
 726 570 l 1,29,30
 746 566 746 566 759.5 547 c 128,-1,31
 773 528 773 528 781 499.5 c 128,-1,32
 789 471 789 471 792.5 436 c 128,-1,33
 796 401 796 401 795.5 365 c 128,-1,34
 795 329 795 329 791.5 294.5 c 128,-1,35
 788 260 788 260 782 232 c 1,36,-1
 1081 232 l 1,37,38
 1085 239 1085 239 1084 259 c 128,-1,39
 1083 279 1083 279 1077.5 305 c 128,-1,40
 1072 331 1072 331 1062 358.5 c 128,-1,41
 1052 386 1052 386 1038 409 c 1,42,-1
 1170 570 l 1,43,44
 1190 566 1190 566 1203.5 547 c 128,-1,45
 1217 528 1217 528 1225 499.5 c 128,-1,46
 1233 471 1233 471 1236.5 436 c 128,-1,47
 1240 401 1240 401 1239.5 365 c 128,-1,48
 1239 329 1239 329 1235.5 294.5 c 128,-1,49
 1232 260 1232 260 1226 232 c 1,50,-1
 1404 232 l 1,51,-1
 1406 0 l 1,52,-1
 1214 0 l 1,53,-1
 1177 89 l 1,54,-1
 1111 0 l 1,0,-1
EndSplineSet
EndChar

StartChar: afii57429
Encoding: 1589 1589 206
Width: 2140
GlyphClass: 2
Flags: W
AnchorPoint: "Anchor-3" 1185 -795 basechar 0
AnchorPoint: "Anchor-2" 1170 930 basechar 0
LayerCount: 2
Fore
SplineSet
446 -470 m 1,0,1
 292 -470 292 -470 194 -370 c 128,-1,2
 96 -270 96 -270 85 -90 c 0,3,4
 83 -27 83 -27 94 34 c 128,-1,5
 105 95 105 95 123.5 149.5 c 128,-1,6
 142 204 142 204 165 249 c 128,-1,7
 188 294 188 294 211 323 c 256,8,9
 234 352 234 352 244 349.5 c 128,-1,10
 254 347 254 347 244 323 c 0,11,12
 197 203 197 203 188 99.5 c 128,-1,13
 179 -4 179 -4 206.5 -80.5 c 128,-1,14
 234 -157 234 -157 298 -201.5 c 128,-1,15
 362 -246 362 -246 461 -246 c 0,16,17
 562 -246 562 -246 677 -196 c 0,18,19
 792 -145 792 -145 874 -73 c 1,20,21
 866 64 866 64 836 167 c 0,22,23
 810 263 810 263 724 394 c 1,24,-1
 857 551 l 1,25,26
 958 402 958 402 991 242 c 1,27,-1
 1423 553 l 2,28,29
 1468 582 1468 582 1541 624 c 0,30,31
 1679 708 1679 708 1751 708 c 0,32,33
 1854 708 1854 708 1979 582 c 0,34,35
 2089 472 2089 472 2089 326 c 0,36,37
 2089 251 2089 251 2004 42 c 1,38,-1
 1986 0 l 1,39,-1
 998 0 l 1,40,41
 978 -118 978 -118 906 -289 c 1,42,43
 670 -460 670 -460 446 -470 c 1,0,1
1960 232 m 1,44,45
 1927 354 1927 354 1840 442 c 128,-1,46
 1753 530 1753 530 1662 530 c 0,47,48
 1642 530 1642 530 1625 526 c 0,49,50
 1585 514 1585 514 1465 440 c 1,51,-1
 1152 232 l 1,52,-1
 1960 232 l 1,44,45
EndSplineSet
Substitution2: "'medi' Medial Forms in Arabic lookup 3 subtable" afii62791
Substitution2: "'fina' Terminal Forms in Arabic lookup 2 subtable" afii62792
Substitution2: "'init' Initial Forms in Arabic lookup 1 subtable" afii62790
EndChar

StartChar: afii62792
Encoding: 65210 65210 207
Width: 2222
GlyphClass: 2
Flags: W
AnchorPoint: "Anchor-3" 1305 -645 basechar 0
AnchorPoint: "Anchor-2" 1245 990 basechar 0
LayerCount: 2
Fore
SplineSet
473 -470 m 1,0,1
 318 -470 318 -470 220 -370 c 128,-1,2
 122 -270 122 -270 112 -90 c 0,3,4
 110 -27 110 -27 121 34 c 128,-1,5
 132 95 132 95 150.5 149.5 c 128,-1,6
 169 204 169 204 192 249 c 128,-1,7
 215 294 215 294 238 323 c 256,8,9
 261 352 261 352 270.5 349.5 c 128,-1,10
 280 347 280 347 270 323 c 0,11,12
 223 203 223 203 214 99.5 c 128,-1,13
 205 -4 205 -4 232.5 -80.5 c 128,-1,14
 260 -157 260 -157 324 -201.5 c 128,-1,15
 388 -246 388 -246 487 -246 c 0,16,17
 588 -246 588 -246 703 -196 c 0,18,19
 818 -145 818 -145 900 -73 c 1,20,21
 893 64 893 64 863 167 c 0,22,23
 836 263 836 263 750 394 c 1,24,-1
 883 551 l 1,25,26
 988 397 988 397 1021 238 c 1,27,-1
 1472 553 l 2,28,29
 1517 582 1517 582 1580 624 c 0,30,31
 1718 708 1718 708 1790 708 c 0,32,33
 1894 708 1894 708 2018 582 c 0,34,35
 2129 472 2129 472 2129 326 c 0,36,37
 2129 293 2129 293 2112 232 c 1,38,-1
 2249 232 l 1,39,-1
 2249 0 l 1,40,-1
 1025 0 l 1,41,42
 1004 -118 1004 -118 932 -289 c 1,43,44
 696 -460 696 -460 473 -470 c 1,0,1
1999 232 m 1,45,46
 1967 354 1967 354 1880 442 c 128,-1,47
 1793 530 1793 530 1702 530 c 0,48,49
 1681 530 1681 530 1664 526 c 0,50,51
 1625 514 1625 514 1505 434 c 2,52,-1
 1193 232 l 1,53,-1
 1999 232 l 1,45,46
EndSplineSet
EndChar

StartChar: afii62790
Encoding: 65211 65211 208
Width: 1537
GlyphClass: 2
Flags: W
AnchorPoint: "Anchor-3" 600 -645 basechar 0
AnchorPoint: "Anchor-2" 675 1065 basechar 0
LayerCount: 2
Fore
SplineSet
-16 0 m 1,0,-1
 -16 232 l 1,1,-1
 238 232 l 1,2,3
 241 239 241 239 240 259 c 128,-1,4
 239 279 239 279 234 305 c 128,-1,5
 229 331 229 331 219 358.5 c 128,-1,6
 209 386 209 386 194 409 c 1,7,-1
 326 570 l 1,8,9
 345 566 345 566 358.5 548 c 128,-1,10
 372 530 372 530 380.5 503 c 128,-1,11
 389 476 389 476 392.5 442.5 c 128,-1,12
 396 409 396 409 396.5 374 c 128,-1,13
 397 339 397 339 393.5 304.5 c 128,-1,14
 390 270 390 270 385 242 c 1,15,-1
 822 553 l 2,16,17
 866 582 866 582 940 624 c 0,18,19
 1078 708 1078 708 1148 708 c 0,20,21
 1252 708 1252 708 1378 582 c 0,22,23
 1488 472 1488 472 1488 326 c 0,24,25
 1488 270 1488 270 1402 42 c 1,26,-1
 1394 22 l 1,27,-1
 1385 0 l 1,28,-1
 -16 0 l 1,0,-1
1358 232 m 1,29,30
 1326 354 1326 354 1238.5 442 c 128,-1,31
 1151 530 1151 530 1061 530 c 0,32,33
 1040 530 1040 530 1024 526 c 0,34,35
 984 514 984 514 880 443 c 2,36,-1
 570 232 l 1,37,-1
 1358 232 l 1,29,30
EndSplineSet
EndChar

StartChar: afii62791
Encoding: 65212 65212 209
Width: 1553
GlyphClass: 2
Flags: W
AnchorPoint: "Anchor-3" 615 -585 basechar 0
AnchorPoint: "Anchor-2" 540 1020 basechar 0
LayerCount: 2
Fore
SplineSet
1559 0 m 1,0,-1
 -24 0 l 1,1,-1
 -24 232 l 1,2,-1
 205 232 l 1,3,4
 209 239 209 239 208 259.5 c 128,-1,5
 207 280 207 280 201.5 305.5 c 128,-1,6
 196 331 196 331 186 358.5 c 128,-1,7
 176 386 176 386 162 409 c 1,8,-1
 294 570 l 1,9,10
 313 566 313 566 326.5 548 c 128,-1,11
 340 530 340 530 348 503 c 128,-1,12
 356 476 356 476 360 442.5 c 128,-1,13
 364 409 364 409 364 374 c 128,-1,14
 364 339 364 339 361 304.5 c 128,-1,15
 358 270 358 270 353 242 c 1,16,-1
 790 553 l 2,17,18
 834 582 834 582 907 624 c 0,19,20
 1045 708 1045 708 1116 708 c 0,21,22
 1219 708 1219 708 1345 582 c 0,23,24
 1456 472 1456 472 1456 326 c 0,25,26
 1456 299 1456 299 1436 232 c 1,27,-1
 1559 232 l 1,28,-1
 1559 0 l 1,0,-1
1326 232 m 1,29,30
 1294 354 1294 354 1206 442 c 128,-1,31
 1118 530 1118 530 1028 530 c 0,32,33
 1008 530 1008 530 991 526 c 0,34,35
 952 514 952 514 847 443 c 2,36,-1
 538 232 l 1,37,-1
 1326 232 l 1,29,30
EndSplineSet
EndChar

StartChar: afii57431
Encoding: 1591 1591 214
Width: 1564
GlyphClass: 2
Flags: W
AnchorPoint: "Anchor-3" 855 -540 basechar 0
AnchorPoint: "Anchor-2" 1095 1275 basechar 0
LayerCount: 2
Fore
SplineSet
239 0 m 1,0,-1
 89 232 l 1,1,-1
 414 232 l 1,2,-1
 521 307 l 1,3,-1
 456 1055 l 1,4,5
 395 1074 395 1074 395 1111 c 0,6,7
 395 1130 395 1130 425 1177 c 2,8,-1
 521 1330 l 1,9,10
 526 1273 526 1273 544 1254.5 c 128,-1,11
 562 1236 562 1236 646 1199 c 2,12,-1
 758 1150 l 1,13,-1
 680 968 l 1,14,-1
 634 985 l 1,15,-1
 658 661 l 2,16,17
 660 629 660 629 660 584 c 0,18,19
 660 472 660 472 622 376 c 1,20,-1
 911 593 l 1,21,22
 1079 709 1079 709 1174 708 c 0,23,24
 1225 708 1225 708 1295 668 c 0,25,26
 1393 612 1393 612 1462.5 513.5 c 128,-1,27
 1532 415 1532 415 1532 335 c 0,28,29
 1532 280 1532 280 1452 91 c 2,30,-1
 1412 0 l 1,31,-1
 239 0 l 1,0,-1
1386 232 m 1,32,33
 1354 354 1354 354 1267 442 c 128,-1,34
 1180 530 1180 530 1091 530 c 0,35,36
 1012 530 1012 530 814 383 c 1,37,-1
 601 232 l 1,38,-1
 1386 232 l 1,32,33
EndSplineSet
Substitution2: "'medi' Medial Forms in Arabic lookup 3 subtable" afii62797
Substitution2: "'fina' Terminal Forms in Arabic lookup 2 subtable" afii62798
Substitution2: "'init' Initial Forms in Arabic lookup 1 subtable" afii62796
EndChar

StartChar: afii62798
Encoding: 65218 65218 215
Width: 1598
GlyphClass: 2
Flags: W
AnchorPoint: "Anchor-3" 795 -495 basechar 0
AnchorPoint: "Anchor-2" 1140 1245 basechar 0
LayerCount: 2
Fore
SplineSet
1612 232 m 1,0,-1
 1612 0 l 1,1,-1
 242 0 l 1,2,-1
 92 232 l 1,3,-1
 402 232 l 1,4,-1
 509 307 l 1,5,-1
 444 1055 l 1,6,7
 383 1074 383 1074 383 1111 c 0,8,9
 383 1130 383 1130 413 1177 c 2,10,-1
 509 1330 l 1,11,12
 514 1273 514 1273 532 1254.5 c 128,-1,13
 550 1236 550 1236 634 1199 c 2,14,-1
 746 1150 l 1,15,-1
 668 968 l 1,16,-1
 622 985 l 1,17,-1
 646 661 l 2,18,19
 648 629 648 629 648 584 c 0,20,21
 648 472 648 472 610 376 c 1,22,-1
 899 593 l 1,23,24
 1067 709 1067 709 1162 708 c 0,25,26
 1213 708 1213 708 1283 668 c 0,27,28
 1381 612 1381 612 1450.5 513.5 c 128,-1,29
 1520 415 1520 415 1520 335 c 0,30,31
 1520 304 1520 304 1496 232 c 1,32,-1
 1612 232 l 1,0,-1
1374 232 m 1,33,34
 1342 354 1342 354 1255 442 c 128,-1,35
 1168 530 1168 530 1079 530 c 0,36,37
 1000 530 1000 530 802 383 c 1,38,-1
 589 232 l 1,39,-1
 1374 232 l 1,33,34
EndSplineSet
EndChar

StartChar: afii62796
Encoding: 65219 65219 216
Width: 1316
GlyphClass: 2
Flags: W
AnchorPoint: "Anchor-3" 540 -555 basechar 0
AnchorPoint: "Anchor-2" 855 1215 basechar 0
LayerCount: 2
Fore
SplineSet
-16 0 m 1,0,-1
 -16 232 l 1,1,-1
 167 232 l 1,2,-1
 274 307 l 1,3,-1
 209 1055 l 1,4,5
 148 1074 148 1074 148 1111 c 0,6,7
 148 1130 148 1130 178 1177 c 2,8,-1
 274 1330 l 1,9,10
 278 1273 278 1273 296 1254.5 c 128,-1,11
 314 1236 314 1236 398 1199 c 2,12,-1
 511 1150 l 1,13,-1
 433 968 l 1,14,-1
 386 985 l 1,15,-1
 410 661 l 2,16,17
 413 629 413 629 413 584 c 0,18,19
 413 472 413 472 374 376 c 1,20,-1
 664 593 l 1,21,22
 832 709 832 709 926 708 c 0,23,24
 978 708 978 708 1048 668 c 0,25,26
 1146 612 1146 612 1215.5 513.5 c 128,-1,27
 1285 415 1285 415 1285 335 c 0,28,29
 1285 280 1285 280 1205 91 c 2,30,-1
 1165 0 l 1,31,-1
 -16 0 l 1,0,-1
1139 232 m 1,32,33
 1106 354 1106 354 1019 442 c 128,-1,34
 932 530 932 530 844 530 c 0,35,36
 764 530 764 530 566 383 c 1,37,-1
 354 232 l 1,38,-1
 1139 232 l 1,32,33
EndSplineSet
EndChar

StartChar: afii62797
Encoding: 65220 65220 217
Width: 1350
GlyphClass: 2
Flags: W
AnchorPoint: "Anchor-3" 480 -570 basechar 0
AnchorPoint: "Anchor-2" 780 1275 basechar 0
LayerCount: 2
Fore
SplineSet
1374 232 m 1,0,-1
 1374 0 l 1,1,-1
 -18 0 l 1,2,-1
 -18 232 l 1,3,-1
 164 232 l 1,4,-1
 271 307 l 1,5,-1
 206 1055 l 1,6,7
 145 1074 145 1074 145 1111 c 0,8,9
 145 1130 145 1130 175 1177 c 2,10,-1
 271 1330 l 1,11,12
 276 1273 276 1273 294 1254.5 c 128,-1,13
 312 1236 312 1236 396 1199 c 2,14,-1
 509 1150 l 1,15,-1
 431 968 l 1,16,-1
 384 985 l 1,17,-1
 408 661 l 2,18,19
 410 629 410 629 410 584 c 0,20,21
 410 472 410 472 372 376 c 1,22,-1
 661 593 l 1,23,24
 829 709 829 709 924 708 c 0,25,26
 976 708 976 708 1045 668 c 0,27,28
 1144 612 1144 612 1213.5 513.5 c 128,-1,29
 1283 415 1283 415 1283 335 c 0,30,31
 1283 304 1283 304 1259 232 c 1,32,-1
 1374 232 l 1,0,-1
1136 232 m 1,33,34
 1104 354 1104 354 1017 442 c 128,-1,35
 930 530 930 530 841 530 c 0,36,37
 762 530 762 530 564 383 c 1,38,-1
 352 232 l 1,39,-1
 1136 232 l 1,33,34
EndSplineSet
EndChar

StartChar: afii57433
Encoding: 1593 1593 222
Width: 1039
GlyphClass: 2
Flags: W
AnchorPoint: "Anchor-3" 645 -1215 basechar 0
AnchorPoint: "Anchor-2" 525 1185 basechar 0
LayerCount: 2
Fore
SplineSet
980 361 m 1,0,-1
 905 133 l 1,1,-1
 688 133 l 2,2,3
 590 133 590 133 530 125 c 0,4,5
 401 108 401 108 311 26 c 128,-1,6
 221 -56 221 -56 221 -162 c 0,7,8
 221 -305 221 -305 395.5 -409.5 c 128,-1,9
 570 -514 570 -514 809 -514 c 0,10,11
 898 -514 898 -514 995 -502 c 0,12,13
 1079 -492 1079 -492 1214 -460 c 1,14,15
 1180 -487 1180 -487 1145 -518 c 0,16,17
 1096 -565 1096 -565 1051 -615.5 c 128,-1,18
 1006 -666 1006 -666 973 -680 c 0,19,20
 872 -730 872 -730 678 -730 c 0,21,22
 396 -730 396 -730 241 -603 c 128,-1,23
 86 -476 86 -476 86 -251 c 0,24,25
 86 -35 86 -35 226 160 c 0,26,27
 256 202 256 202 319 268 c 1,28,29
 169 398 169 398 169 511 c 0,30,31
 169 590 169 590 236 701 c 0,32,33
 371 924 371 924 533 924 c 0,34,35
 730 924 730 924 835 656 c 1,36,37
 797 680 797 680 776 690 c 0,38,39
 694 739 694 739 598 739 c 0,40,41
 406 739 406 739 288 528 c 1,42,43
 326 479 326 479 375.5 437.5 c 128,-1,44
 425 396 425 396 481 361 c 1,45,-1
 980 361 l 1,0,-1
EndSplineSet
Substitution2: "'medi' Medial Forms in Arabic lookup 3 subtable" afii62803
Substitution2: "'fina' Terminal Forms in Arabic lookup 2 subtable" afii62804
Substitution2: "'init' Initial Forms in Arabic lookup 1 subtable" afii62802
EndChar

StartChar: afii62804
Encoding: 65226 65226 223
Width: 929
GlyphClass: 2
Flags: W
AnchorPoint: "Anchor-3" 480 -1245 basechar 0
AnchorPoint: "Anchor-2" 420 1125 basechar 0
LayerCount: 2
Fore
SplineSet
950 232 m 1,0,-1
 950 0 l 1,1,-1
 539 0 l 1,2,-1
 484 118 l 1,3,4
 232 -19 232 -19 232 -187 c 0,5,6
 232 -319 232 -319 391 -418 c 0,7,8
 530 -504 530 -504 779 -504 c 0,9,10
 966 -504 966 -504 1192 -455 c 1,11,12
 1175 -472 1175 -472 1142 -494 c 0,13,14
 1128 -506 1128 -506 1081 -556 c 0,15,16
 1064 -575 1064 -575 1045.5 -594.5 c 128,-1,17
 1027 -614 1027 -614 1006 -638 c 0,18,19
 978 -671 978 -671 943 -680 c 0,20,21
 830 -718 830 -718 666 -718 c 0,22,23
 389 -718 389 -718 237.5 -599.5 c 128,-1,24
 86 -481 86 -481 86 -265 c 0,25,26
 86 47 86 47 416 300 c 1,27,28
 330 490 330 490 143 510 c 1,29,-1
 253 737 l 1,30,31
 415 785 415 785 570 791 c 1,32,33
 835 791 835 791 835 600 c 0,34,35
 835 467 835 467 631 232 c 1,36,-1
 950 232 l 1,0,-1
600 395 m 1,37,38
 660 484 660 484 660 518 c 0,39,40
 660 568 660 568 584 568 c 0,41,42
 565 568 565 568 474 558 c 1,43,44
 508 533 508 533 542 498.5 c 128,-1,45
 576 464 576 464 600 395 c 1,37,38
EndSplineSet
EndChar

StartChar: afii62802
Encoding: 65227 65227 224
Width: 894
GlyphClass: 2
Flags: W
AnchorPoint: "Anchor-3" 330 -525 basechar 0
AnchorPoint: "Anchor-2" 360 1095 basechar 0
LayerCount: 2
Fore
SplineSet
868 232 m 1,0,-1
 785 0 l 1,1,-1
 -25 0 l 1,2,-1
 -25 232 l 1,3,-1
 158 232 l 1,4,5
 114 300 114 300 114 371 c 0,6,7
 114 455 114 455 168 548 c 0,8,9
 306 788 306 788 486 788 c 0,10,11
 587 788 587 788 677 694 c 0,12,13
 739 629 739 629 778 516 c 1,14,15
 648 605 648 605 542 605 c 0,16,17
 362 605 362 605 230 406 c 1,18,-1
 242 394 l 2,19,20
 329 307 329 307 343 293 c 0,21,22
 388 253 388 253 430 232 c 1,23,-1
 868 232 l 1,0,-1
EndSplineSet
EndChar

StartChar: afii62803
Encoding: 65228 65228 225
Width: 774
GlyphClass: 2
Flags: W
AnchorPoint: "Anchor-3" 360 -525 basechar 0
AnchorPoint: "Anchor-2" 345 975 basechar 0
LayerCount: 2
Fore
SplineSet
792 232 m 1,0,-1
 792 0 l 1,1,-1
 419 0 l 1,2,-1
 382 79 l 1,3,-1
 316 0 l 1,4,-1
 -11 0 l 1,5,-1
 -11 232 l 1,6,-1
 316 232 l 1,7,8
 233 440 233 440 37 457 c 1,9,-1
 148 691 l 1,10,11
 335 743 335 743 470 743 c 0,12,13
 724 745 724 745 724 546 c 0,14,15
 724 497 724 497 708 457 c 0,16,17
 674 366 674 366 539 232 c 1,18,-1
 792 232 l 1,0,-1
476 352 m 1,19,20
 553 428 553 428 553 463 c 0,21,22
 553 512 553 512 470 508 c 0,23,24
 445 508 445 508 362 499 c 1,25,26
 409 468 409 468 436.5 432 c 128,-1,27
 464 396 464 396 476 352 c 1,19,20
EndSplineSet
EndChar

StartChar: afii57443
Encoding: 1603 1603 238
Width: 1482
GlyphClass: 2
Flags: W
AnchorPoint: "Anchor-3" 555 -525 basechar 0
AnchorPoint: "Anchor-2" 735 1215 basechar 0
LayerCount: 2
Fore
SplineSet
1268 0 m 1,0,-1
 286 0 l 2,1,2
 246 0 246 0 194 31 c 0,3,4
 79 97 79 97 79 264 c 0,5,6
 79 425 79 425 163 583 c 0,7,8
 167 591 167 591 173 596 c 128,-1,9
 179 601 179 601 183.5 601.5 c 128,-1,10
 188 602 188 602 190.5 597.5 c 128,-1,11
 193 593 193 593 191 583 c 0,12,13
 178 523 178 523 178 456 c 0,14,15
 178 306 178 306 270 256 c 0,16,17
 317 232 317 232 462 232 c 2,18,-1
 1214 232 l 1,19,-1
 1147 1046 l 1,20,21
 1088 1067 1088 1067 1088 1102 c 0,22,23
 1088 1123 1088 1123 1121 1177 c 2,24,-1
 1210 1325 l 1,25,26
 1217 1268 1217 1268 1236 1246 c 0,27,28
 1248 1234 1248 1234 1302 1210 c 2,29,-1
 1452 1142 l 1,30,-1
 1374 961 l 1,31,-1
 1330 978 l 1,32,-1
 1364 502 l 2,33,34
 1372 398 1372 398 1372 371 c 0,35,36
 1372 290 1372 290 1320 143 c 0,37,38
 1308 108 1308 108 1280 37 c 1,39,-1
 1268 0 l 1,0,-1
866 667 m 1,40,41
 841 623 841 623 817 596 c 0,42,43
 785 557 785 557 740 534 c 0,44,45
 684 510 684 510 616 510 c 2,46,-1
 602 510 l 2,47,48
 574 510 574 510 517.5 516 c 128,-1,49
 461 522 461 522 445 534 c 1,50,51
 485 545 485 545 522 555.5 c 128,-1,52
 559 566 559 566 600 583 c 0,53,54
 709 620 709 620 733 655 c 1,55,56
 630 655 630 655 598 665 c 0,57,58
 527 679 527 679 527 733 c 0,59,60
 527 761 527 761 546 800 c 2,61,-1
 569 839 l 1,62,-1
 595 874 l 2,63,64
 649 940 649 940 719 984 c 0,65,66
 750 1004 750 1004 783.5 1016 c 128,-1,67
 817 1028 817 1028 846 1028 c 2,68,-1
 866 1028 l 1,69,-1
 874 1026 l 1,70,-1
 876 1004 l 2,71,72
 876 962 876 962 866 930 c 0,73,74
 858 895 858 895 844 876 c 1,75,-1
 820 883 l 1,76,-1
 799 886 l 1,77,78
 763 886 763 886 724 862 c 1,79,80
 691 836 691 836 670 810 c 1,81,82
 680 786 680 786 714 785 c 0,83,84
 776 782 776 782 823 776 c 128,-1,85
 870 770 870 770 877 746 c 128,-1,86
 884 722 884 722 866 667 c 1,40,41
EndSplineSet
Substitution2: "'medi' Medial Forms in Arabic lookup 3 subtable" afii52306
Substitution2: "'fina' Terminal Forms in Arabic lookup 2 subtable" afii62816
Substitution2: "'init' Initial Forms in Arabic lookup 1 subtable" afii52305
EndChar

StartChar: afii62816
Encoding: 65242 65242 239
Width: 1529
GlyphClass: 2
Flags: W
AnchorPoint: "Anchor-3" 630 -585 basechar 0
AnchorPoint: "Anchor-2" 750 1230 basechar 0
LayerCount: 2
Fore
SplineSet
1402 1319 m 1,0,-1
 1397 232 l 1,1,-1
 1546 232 l 1,2,-1
 1546 0 l 1,3,-1
 1424 0 l 1,4,-1
 1373 71 l 1,5,6
 1358 0 1358 0 1270 0 c 2,7,-1
 296 0 l 2,8,9
 257 0 257 0 205 31 c 0,10,11
 90 97 90 97 90 264 c 0,12,13
 90 425 90 425 174 583 c 0,14,15
 178 591 178 591 184 596 c 128,-1,16
 190 601 190 601 194.5 601.5 c 128,-1,17
 199 602 199 602 201.5 597.5 c 128,-1,18
 204 593 204 593 202 583 c 0,19,20
 188 523 188 523 188 456 c 0,21,22
 188 306 188 306 281 256 c 0,23,24
 328 232 328 232 473 232 c 2,25,-1
 1162 232 l 2,26,27
 1223 232 1223 232 1223 280 c 2,28,-1
 1212 1116 l 1,29,-1
 1402 1319 l 1,0,-1
913 667 m 1,30,31
 888 623 888 623 864 596 c 0,32,33
 832 557 832 557 787 534 c 0,34,35
 731 510 731 510 662 510 c 2,36,-1
 649 510 l 2,37,38
 620 510 620 510 564 516 c 128,-1,39
 508 522 508 522 492 534 c 1,40,41
 532 545 532 545 569 555.5 c 128,-1,42
 606 566 606 566 647 583 c 0,43,44
 756 620 756 620 780 655 c 1,45,46
 677 655 677 655 644 665 c 0,47,48
 574 679 574 679 574 733 c 0,49,50
 574 761 574 761 593 800 c 2,51,-1
 616 839 l 1,52,-1
 642 874 l 2,53,54
 696 940 696 940 766 984 c 0,55,56
 797 1004 797 1004 830.5 1016 c 128,-1,57
 864 1028 864 1028 893 1028 c 2,58,-1
 913 1028 l 1,59,-1
 920 1026 l 1,60,-1
 923 1004 l 1,61,62
 923 962 923 962 913 930 c 0,63,64
 905 895 905 895 890 876 c 1,65,-1
 866 883 l 1,66,-1
 846 886 l 1,67,68
 810 886 810 886 770 862 c 1,69,70
 738 836 738 836 716 810 c 1,71,72
 727 786 727 786 761 785 c 0,73,74
 823 782 823 782 870 776 c 128,-1,75
 917 770 917 770 924 746 c 128,-1,76
 931 722 931 722 913 667 c 1,30,31
EndSplineSet
EndChar

StartChar: afii57444
Encoding: 1604 1604 242
Width: 1094
GlyphClass: 2
Flags: W
AnchorPoint: "Anchor-3" 435 -960 basechar 0
AnchorPoint: "Anchor-2" 645 1395 basechar 0
LayerCount: 2
Fore
SplineSet
421 -463 m 2,0,1
 266 -463 266 -463 168.5 -363 c 128,-1,2
 71 -263 71 -263 61 -83 c 0,3,4
 59 -18 59 -18 71 46 c 128,-1,5
 83 110 83 110 102.5 166.5 c 128,-1,6
 122 223 122 223 146.5 268 c 128,-1,7
 171 313 171 313 194 340 c 0,8,9
 204 350 204 350 210 353.5 c 128,-1,10
 216 357 216 357 219 355.5 c 128,-1,11
 222 354 222 354 222.5 349.5 c 128,-1,12
 223 345 223 345 221 340 c 0,13,14
 174 220 174 220 163.5 115 c 128,-1,15
 153 10 153 10 178.5 -68 c 128,-1,16
 204 -146 204 -146 266 -192.5 c 128,-1,17
 328 -239 328 -239 425 -242 c 1,18,19
 619 -236 619 -236 818 -71 c 1,20,21
 836 -29 836 -29 813 264.5 c 128,-1,22
 790 558 790 558 762 1046 c 1,23,24
 696 1069 696 1069 696 1106 c 0,25,26
 696 1126 696 1126 713 1153 c 2,27,-1
 730 1180 l 1,28,-1
 818 1320 l 1,29,30
 821 1276 821 1276 837 1257 c 128,-1,31
 853 1238 853 1238 919 1210 c 2,32,-1
 1062 1145 l 1,33,-1
 983 961 l 1,34,-1
 941 978 l 1,35,-1
 976 457 l 2,36,37
 983 356 983 356 983 248 c 0,38,39
 983 0 983 0 880 -283 c 1,40,41
 653 -448 653 -448 439 -463 c 1,42,-1
 421 -463 l 2,0,1
EndSplineSet
Substitution2: "'medi' Medial Forms in Arabic lookup 3 subtable" afii62818
Substitution2: "'fina' Terminal Forms in Arabic lookup 2 subtable" afii62819
Substitution2: "'init' Initial Forms in Arabic lookup 1 subtable" afii62817
EndChar

StartChar: afii62817
Encoding: 65247 65247 243
Width: 497
GlyphClass: 2
Flags: W
AnchorPoint: "Anchor-3" 240 -510 basechar 0
AnchorPoint: "Anchor-2" 195 1395 basechar 0
LayerCount: 2
Fore
SplineSet
476 1142 m 1,0,-1
 397 961 l 1,1,-1
 354 978 l 1,2,-1
 395 371 l 1,3,4
 395 298 395 298 346 150 c 1,5,-1
 343 143 l 1,6,-1
 307 37 l 1,7,-1
 292 0 l 1,8,-1
 -12 0 l 1,9,-1
 -12 232 l 1,10,-1
 240 232 l 1,11,-1
 174 1046 l 1,12,13
 113 1064 113 1064 113 1106 c 0,14,15
 113 1123 113 1123 130 1150 c 2,16,-1
 148 1177 l 1,17,-1
 235 1325 l 1,18,19
 238 1271 238 1271 263 1246 c 0,20,21
 277 1231 277 1231 326 1210 c 2,22,-1
 476 1142 l 1,0,-1
EndSplineSet
EndChar

StartChar: afii62818
Encoding: 65248 65248 244
Width: 469
GlyphClass: 2
Flags: W
AnchorPoint: "Anchor-3" 210 -525 basechar 0
AnchorPoint: "Anchor-2" 240 1500 basechar 0
LayerCount: 2
Fore
SplineSet
342 1319 m 1,0,-1
 337 232 l 1,1,-1
 490 232 l 1,2,-1
 486 0 l 1,3,-1
 305 0 l 1,4,-1
 242 71 l 1,5,-1
 194 0 l 1,6,-1
 -22 0 l 1,7,-1
 -22 232 l 1,8,-1
 102 232 l 2,9,10
 163 232 163 232 163 280 c 2,11,-1
 152 1116 l 1,12,-1
 342 1319 l 1,0,-1
EndSplineSet
EndChar

StartChar: afii57445
Encoding: 1605 1605 245
Width: 1159
GlyphClass: 2
Flags: W
AnchorPoint: "Anchor-3" 675 -915 basechar 0
AnchorPoint: "Anchor-2" 720 1050 basechar 0
LayerCount: 2
Fore
SplineSet
432 298 m 1,0,1
 559 594 559 594 606 690 c 0,2,3
 648 773 648 773 716 773 c 0,4,5
 772 773 772 773 830 730 c 0,6,7
 954 629 954 629 1031 519 c 128,-1,8
 1108 409 1108 409 1108 322 c 0,9,10
 1108 293 1108 293 1033 64 c 1,11,-1
 328 64 l 1,12,-1
 355 -377 l 2,13,14
 358 -424 358 -424 358 -413 c 1,15,16
 358 -436 358 -436 346.5 -467.5 c 128,-1,17
 335 -499 335 -499 321.5 -531 c 128,-1,18
 308 -563 308 -563 259 -649 c 2,19,-1
 227 -706 l 1,20,21
 193 -347 193 -347 182 -232 c 0,22,23
 178 -157 178 -157 178 -116 c 0,24,25
 178 -5 178 -5 242 137 c 1,26,27
 318 294 318 294 355 294 c 0,28,29
 360 294 360 294 432 298 c 1,0,1
560 295 m 1,30,-1
 990 295 l 1,31,32
 970 342 970 342 929.5 396.5 c 128,-1,33
 889 451 889 451 831 499.5 c 128,-1,34
 773 548 773 548 733 548 c 0,35,36
 694 548 694 548 671 511 c 2,37,-1
 656 487 l 1,38,-1
 560 295 l 1,30,-1
EndSplineSet
Substitution2: "'medi' Medial Forms in Arabic lookup 3 subtable" afii62821
Substitution2: "'fina' Terminal Forms in Arabic lookup 2 subtable" afii62822
Substitution2: "'init' Initial Forms in Arabic lookup 1 subtable" afii62820
EndChar

StartChar: afii62822
Encoding: 65250 65250 246
Width: 1172
GlyphClass: 2
Flags: W
AnchorPoint: "Anchor-3" 540 -930 basechar 0
AnchorPoint: "Anchor-2" 555 855 basechar 0
LayerCount: 2
Fore
SplineSet
1189 232 m 1,0,-1
 1189 0 l 1,1,-1
 1004 0 l 1,2,-1
 923 -174 l 1,3,-1
 451 164 l 1,4,-1
 467 318 l 1,5,6
 407 295 407 295 354.5 262 c 128,-1,7
 302 229 302 229 270 188 c 1,8,-1
 308 -253 l 2,9,10
 308 -270 308 -270 311 -288 c 0,11,12
 311 -305 311 -305 311 -310 c 0,13,14
 311 -382 311 -382 272 -462 c 0,15,16
 240 -530 240 -530 221 -563 c 2,17,-1
 186 -622 l 1,18,-1
 132 -74 l 2,19,20
 122 19 122 19 122 40 c 0,21,22
 122 91 122 91 174 218 c 0,23,24
 239 374 239 374 346 442 c 0,25,26
 472 521 472 521 635 575 c 128,-1,27
 798 629 798 629 893 629 c 0,28,29
 979 629 979 629 1009.5 597 c 128,-1,30
 1040 565 1040 565 1040 474 c 2,31,-1
 1040 232 l 1,32,-1
 1189 232 l 1,0,-1
906 98 m 1,33,-1
 906 342 l 2,34,35
 906 398 906 398 887.5 416 c 128,-1,36
 869 434 869 434 810 434 c 1,37,38
 686 422 686 422 577 368 c 1,39,-1
 906 98 l 1,33,-1
EndSplineSet
EndChar

StartChar: afii62820
Encoding: 65251 65251 247
Width: 838
GlyphClass: 2
Flags: W
AnchorPoint: "Anchor-3" 360 -585 basechar 0
AnchorPoint: "Anchor-2" 465 870 basechar 0
LayerCount: 2
Fore
SplineSet
-18 0 m 1,0,-1
 -18 232 l 1,1,-1
 115 232 l 1,2,-1
 260 422 l 2,3,4
 356 551 356 551 404 594 c 0,5,6
 458 647 458 647 522 647 c 0,7,8
 620 647 620 647 707 497 c 128,-1,9
 794 347 794 347 794 230 c 0,10,11
 794 190 794 190 763 128 c 0,12,13
 745 90 745 90 653 -78 c 1,14,-1
 642 -97 l 1,15,-1
 167 107 l 1,16,-1
 98 0 l 1,17,-1
 -18 0 l 1,0,-1
644 144 m 1,18,19
 673 266 673 266 580 380 c 0,20,21
 529 439 529 439 485 439 c 0,22,23
 430 439 430 439 302 295 c 1,24,-1
 305 294 l 1,25,-1
 644 144 l 1,18,19
EndSplineSet
EndChar

StartChar: afii57446
Encoding: 1606 1606 248
Width: 988
GlyphClass: 2
Flags: W
AnchorPoint: "Anchor-3" 345 -930 basechar 0
AnchorPoint: "Anchor-2" 480 1140 basechar 0
LayerCount: 2
Fore
SplineSet
391 -392 m 1,0,1
 236 -392 236 -392 138.5 -292 c 128,-1,2
 41 -192 41 -192 30 -12 c 0,3,4
 28 52 28 52 39 114.5 c 128,-1,5
 50 177 50 177 69.5 232.5 c 128,-1,6
 89 288 89 288 113 332.5 c 128,-1,7
 137 377 137 377 161 406 c 0,8,9
 172 419 172 419 179.5 424 c 128,-1,10
 187 429 187 429 191.5 427.5 c 128,-1,11
 196 426 196 426 196.5 420 c 128,-1,12
 197 414 197 414 193 406 c 0,13,14
 146 285 146 285 136 180.5 c 128,-1,15
 126 76 126 76 152.5 -1.5 c 128,-1,16
 179 -79 179 -79 242.5 -123.5 c 128,-1,17
 306 -168 306 -168 406 -168 c 256,18,19
 506 -168 506 -168 621.5 -117.5 c 128,-1,20
 737 -67 737 -67 818 5 c 1,21,22
 811 142 811 142 781 245 c 0,23,24
 755 341 755 341 668 472 c 1,25,-1
 802 629 l 1,26,27
 952 409 952 409 952 162 c 0,28,29
 952 36 952 36 851 -202 c 1,30,31
 614 -385 614 -385 391 -392 c 1,0,1
301 764 m 1,32,-1
 437 887 l 1,33,-1
 608 730 l 1,34,-1
 473 601 l 1,35,-1
 301 764 l 1,32,-1
EndSplineSet
Substitution2: "'medi' Medial Forms in Arabic lookup 3 subtable" afii62824
Substitution2: "'fina' Terminal Forms in Arabic lookup 2 subtable" afii62825
Substitution2: "'init' Initial Forms in Arabic lookup 1 subtable" afii62823
EndChar

StartChar: afii62825
Encoding: 65254 65254 249
Width: 1090
GlyphClass: 2
Flags: W
AnchorPoint: "Anchor-3" 450 -945 basechar 0
AnchorPoint: "Anchor-2" 465 1020 basechar 0
LayerCount: 2
Fore
SplineSet
439 -470 m 1,0,1
 284 -470 284 -470 186.5 -370 c 128,-1,2
 89 -270 89 -270 78 -90 c 0,3,4
 76 -27 76 -27 87 34 c 128,-1,5
 98 95 98 95 116.5 149.5 c 128,-1,6
 135 204 135 204 158 249 c 128,-1,7
 181 294 181 294 204 323 c 256,8,9
 227 352 227 352 237 349.5 c 128,-1,10
 247 347 247 347 236 323 c 0,11,12
 190 203 190 203 181 99.5 c 128,-1,13
 172 -4 172 -4 199.5 -80.5 c 128,-1,14
 227 -157 227 -157 290.5 -201.5 c 128,-1,15
 354 -246 354 -246 454 -246 c 256,16,17
 554 -246 554 -246 670 -196 c 0,18,19
 785 -145 785 -145 866 -73 c 1,20,21
 859 64 859 64 829 167 c 0,22,23
 803 263 803 263 716 394 c 1,24,-1
 850 551 l 1,25,26
 954 397 954 397 986 232 c 1,27,-1
 1102 232 l 1,28,-1
 1102 0 l 1,29,-1
 991 0 l 1,30,31
 971 -118 971 -118 899 -289 c 1,32,33
 662 -460 662 -460 439 -470 c 1,0,1
349 704 m 1,34,-1
 485 827 l 1,35,-1
 656 670 l 1,36,-1
 521 541 l 1,37,-1
 349 704 l 1,34,-1
EndSplineSet
EndChar

StartChar: afii62828
Encoding: 65258 65258 253
Width: 925
GlyphClass: 2
Flags: W
AnchorPoint: "Anchor-3" 300 -600 basechar 0
AnchorPoint: "Anchor-2" 390 960 basechar 0
LayerCount: 2
Fore
SplineSet
712 883 m 1,0,-1
 842 232 l 1,1,-1
 936 232 l 1,2,-1
 936 0 l 1,3,-1
 703 0 l 1,4,-1
 673 138 l 1,5,-1
 600 32 l 1,6,-1
 68 110 l 1,7,-1
 152 366 l 2,8,9
 160 386 160 386 172.5 417 c 128,-1,10
 185 448 185 448 241 476 c 2,11,-1
 565 654 l 1,12,-1
 547 740 l 1,13,-1
 712 883 l 1,0,-1
593 526 m 1,14,-1
 319 376 l 2,15,16
 280 354 280 354 270 314 c 1,17,-1
 647 258 l 1,18,-1
 593 526 l 1,14,-1
EndSplineSet
EndChar

StartChar: afii57448
Encoding: 1608 1608 254
Width: 804
GlyphClass: 2
Flags: W
AnchorPoint: "Anchor-3" 330 -990 basechar 0
AnchorPoint: "Anchor-2" 435 915 basechar 0
LayerCount: 2
Fore
SplineSet
454 0 m 2,0,1
 365 0 365 0 334 5 c 0,2,3
 269 14 269 14 226.5 64.5 c 128,-1,4
 184 115 184 115 184 182 c 0,5,6
 184 283 184 283 238 402 c 128,-1,7
 292 521 292 521 374 610 c 0,8,9
 424 661 424 661 486 661 c 0,10,11
 564 661 564 661 638 558 c 0,12,13
 761 383 761 383 761 143 c 0,14,15
 761 -133 761 -133 578 -359 c 0,16,17
 478 -484 478 -484 392 -484 c 0,18,19
 296 -484 296 -484 116 -251 c 1,20,21
 205 -283 205 -283 274 -283 c 0,22,23
 385 -283 385 -283 478 -207 c 128,-1,24
 571 -131 571 -131 620 0 c 1,25,-1
 454 0 l 2,0,1
604 232 m 1,26,27
 576 457 576 457 468 457 c 0,28,29
 421 457 421 457 381 408 c 128,-1,30
 341 359 341 359 341 305 c 0,31,32
 341 232 341 232 432 232 c 2,33,-1
 604 232 l 1,26,27
EndSplineSet
Substitution2: "'fina' Terminal Forms in Arabic lookup 2 subtable" afii62829
PairPos2: "'kern' Horizontal Kerning in Arabic lookup 1 subtable" afii62840 dx=0 dy=0 dh=0 dv=0 dx=0 dy=0 dh=-100 dv=0
PairPos2: "'kern' Horizontal Kerning in Arabic lookup 1 subtable" afii62838 dx=0 dy=0 dh=0 dv=0 dx=0 dy=0 dh=-100 dv=0
PairPos2: "'kern' Horizontal Kerning in Arabic lookup 1 subtable" afii62836 dx=0 dy=0 dh=0 dv=0 dx=0 dy=0 dh=-100 dv=0
PairPos2: "'kern' Horizontal Kerning in Arabic lookup 1 subtable" afii62834 dx=0 dy=0 dh=0 dv=0 dx=0 dy=0 dh=-100 dv=0
PairPos2: "'kern' Horizontal Kerning in Arabic lookup 1 subtable" afii52400 dx=0 dy=0 dh=0 dv=0 dx=0 dy=0 dh=-100 dv=0
PairPos2: "'kern' Horizontal Kerning in Arabic lookup 0 subtable" afii62817 dx=0 dy=0 dh=0 dv=0 dx=0 dy=0 dh=-50 dv=0
PairPos2: "'kern' Horizontal Kerning in Arabic lookup 0 subtable" afii57410 dx=0 dy=0 dh=0 dv=0 dx=0 dy=0 dh=-70 dv=0
PairPos2: "'kern' Horizontal Kerning in Arabic lookup 0 subtable" afii57443 dx=0 dy=0 dh=0 dv=0 dx=0 dy=0 dh=-50 dv=0
PairPos2: "'kern' Horizontal Kerning in Arabic lookup 0 subtable" afii62965 dx=0 dy=0 dh=0 dv=0 dx=0 dy=0 dh=-70 dv=0
PairPos2: "'kern' Horizontal Kerning in Arabic lookup 0 subtable" afii57509 dx=0 dy=0 dh=0 dv=0 dx=0 dy=0 dh=-70 dv=0
PairPos2: "'kern' Horizontal Kerning in Arabic lookup 0 subtable" afii52305 dx=0 dy=0 dh=0 dv=0 dx=0 dy=0 dh=-70 dv=0
PairPos2: "'kern' Horizontal Kerning in Arabic lookup 0 subtable" afii57567 dx=0 dy=0 dh=0 dv=0 dx=0 dy=0 dh=-70 dv=0
EndChar

StartChar: afii62829
Encoding: 65262 65262 255
Width: 818
GlyphClass: 2
Flags: W
AnchorPoint: "Anchor-3" 405 -915 basechar 0
AnchorPoint: "Anchor-2" 465 960 basechar 0
LayerCount: 2
Fore
SplineSet
842 232 m 1,0,-1
 842 0 l 1,1,-1
 748 0 l 1,2,3
 727 -110 727 -110 666 -226 c 0,4,5
 530 -484 530 -484 394 -484 c 0,6,7
 298 -484 298 -484 118 -251 c 1,8,9
 206 -283 206 -283 275 -283 c 0,10,11
 386 -283 386 -283 479 -207 c 128,-1,12
 572 -131 572 -131 622 0 c 1,13,-1
 455 0 l 2,14,15
 366 0 366 0 335 5 c 0,16,17
 270 14 270 14 227.5 64.5 c 128,-1,18
 185 115 185 115 185 182 c 0,19,20
 185 283 185 283 239 402 c 128,-1,21
 293 521 293 521 376 610 c 0,22,23
 425 661 425 661 487 661 c 0,24,25
 575 661 575 661 656 533.5 c 128,-1,26
 737 406 737 406 757 232 c 1,27,-1
 842 232 l 1,0,-1
605 232 m 1,28,29
 577 457 577 457 469 457 c 0,30,31
 422 457 422 457 382 408 c 128,-1,32
 342 359 342 359 342 305 c 0,33,34
 342 232 342 232 433 232 c 2,35,-1
 605 232 l 1,28,29
EndSplineSet
PairPos2: "'kern' Horizontal Kerning in Arabic lookup 1 subtable" afii62840 dx=0 dy=0 dh=0 dv=0 dx=0 dy=0 dh=-100 dv=0
PairPos2: "'kern' Horizontal Kerning in Arabic lookup 1 subtable" afii62838 dx=0 dy=0 dh=0 dv=0 dx=0 dy=0 dh=-100 dv=0
PairPos2: "'kern' Horizontal Kerning in Arabic lookup 1 subtable" afii62836 dx=0 dy=0 dh=0 dv=0 dx=0 dy=0 dh=-100 dv=0
PairPos2: "'kern' Horizontal Kerning in Arabic lookup 1 subtable" afii62834 dx=0 dy=0 dh=0 dv=0 dx=0 dy=0 dh=-100 dv=0
PairPos2: "'kern' Horizontal Kerning in Arabic lookup 1 subtable" afii52400 dx=0 dy=0 dh=0 dv=0 dx=0 dy=0 dh=-100 dv=0
PairPos2: "'kern' Horizontal Kerning in Arabic lookup 0 subtable" afii57410 dx=0 dy=0 dh=0 dv=0 dx=0 dy=0 dh=-70 dv=0
PairPos2: "'kern' Horizontal Kerning in Arabic lookup 0 subtable" afii62965 dx=0 dy=0 dh=0 dv=0 dx=0 dy=0 dh=-70 dv=0
PairPos2: "'kern' Horizontal Kerning in Arabic lookup 0 subtable" afii57509 dx=0 dy=0 dh=0 dv=0 dx=0 dy=0 dh=-70 dv=0
PairPos2: "'kern' Horizontal Kerning in Arabic lookup 0 subtable" afii52305 dx=0 dy=0 dh=0 dv=0 dx=0 dy=0 dh=-70 dv=0
PairPos2: "'kern' Horizontal Kerning in Arabic lookup 0 subtable" afii57567 dx=0 dy=0 dh=0 dv=0 dx=0 dy=0 dh=-70 dv=0
EndChar

StartChar: afii62840
Encoding: 65275 65275 268
Width: 1256
GlyphClass: 3
Flags: W
AnchorPoint: "Anchor-1" 810 -435 baselig 0
AnchorPoint: "Anchor-0" 1005 1485 baselig 0
AnchorPoint: "Anchor-1" 285 -525 baselig 1
AnchorPoint: "Anchor-0" 165 1395 baselig 1
LayerCount: 2
Fore
SplineSet
1038 956 m 1,0,1
 894 708 894 708 785 566 c 1,2,3
 923 395 923 395 952.5 351 c 128,-1,4
 982 307 982 307 982 263 c 0,5,6
 982 221 982 221 954 148 c 2,7,-1
 900 0 l 1,8,-1
 253 0 l 1,9,-1
 300 280 l 1,10,11
 389 354 389 354 484.5 441.5 c 128,-1,12
 580 529 580 529 601 560 c 1,13,14
 400 802 400 802 298 840 c 1,15,16
 276 788 276 788 244 788 c 0,17,18
 220 788 220 788 199 809 c 0,19,20
 112 914 112 914 96 990 c 1,21,22
 96 1037 96 1037 148 1133 c 0,23,24
 185 1199 185 1199 214 1199 c 0,25,26
 246 1199 246 1199 295 1157 c 0,27,28
 414 1064 414 1064 694 688 c 1,29,30
 858 954 858 954 881 1067 c 1,31,32
 839 1104 839 1104 839 1135 c 0,33,34
 839 1158 839 1158 854 1177 c 128,-1,35
 869 1196 869 1196 902 1229 c 2,36,-1
 1008 1332 l 1,37,38
 1003 1297 1003 1297 1003 1290 c 0,39,40
 1003 1246 1003 1246 1064 1196 c 2,41,-1
 1202 1088 l 1,42,-1
 1078 924 l 1,43,-1
 1038 956 l 1,0,1
690 463 m 1,44,45
 577 352 577 352 426 232 c 1,46,-1
 851 232 l 1,47,-1
 853 236 l 2,48,49
 856 244 856 244 856 253 c 0,50,51
 856 270 856 270 844 288 c 2,52,-1
 690 463 l 1,44,45
EndSplineSet
Ligature2: "'rlig' Required Ligatures in Arabic lookup 6 subtable" afii62817 afii62760
Substitution2: "'fina' Terminal Forms in Arabic lookup 2 subtable" afii62841
EndChar

StartChar: afii62841
Encoding: 65276 65276 269
Width: 1257
GlyphClass: 3
Flags: W
AnchorPoint: "Anchor-1" 900 -465 baselig 0
AnchorPoint: "Anchor-0" 990 1455 baselig 0
AnchorPoint: "Anchor-1" 345 -465 baselig 1
AnchorPoint: "Anchor-0" 330 1455 baselig 1
LayerCount: 2
Fore
SplineSet
929 1128 m 1,0,-1
 1114 1325 l 1,1,-1
 1114 322 l 2,2,3
 1114 260 1114 260 1132.5 246 c 128,-1,4
 1151 232 1151 232 1227 232 c 2,5,-1
 1267 232 l 1,6,-1
 1267 0 l 1,7,-1
 1133 0 l 2,8,9
 1143 0 1143 0 1084 2 c 0,10,11
 997 7 997 7 959 66 c 0,12,13
 929 113 929 113 929 248 c 2,14,-1
 929 305 l 1,15,-1
 863 211 l 1,16,-1
 829 160 l 2,17,18
 767 66 767 66 709.5 33 c 128,-1,19
 652 0 652 0 578 -7 c 0,20,21
 493 -17 493 -17 352 -17 c 0,22,23
 217 -17 217 -17 97 -7 c 1,24,25
 286 44 286 44 413 101 c 0,26,27
 505 140 505 140 585 185 c 0,28,29
 645 216 645 216 711 263 c 1,30,-1
 701 295 l 2,31,32
 625 546 625 546 544 683 c 0,33,34
 490 776 490 776 385 905 c 1,35,36
 364 856 364 856 331 856 c 0,37,38
 305 856 305 856 286 887 c 0,39,40
 209 1008 209 1008 209 1060 c 0,41,42
 209 1091 209 1091 268 1180 c 0,43,44
 315 1248 315 1248 340 1248 c 0,45,46
 441 1248 441 1248 582 969 c 128,-1,47
 723 690 723 690 802 337 c 1,48,-1
 849 380 l 1,49,-1
 896 427 l 2,50,51
 925 456 925 456 927 490 c 2,52,-1
 929 1128 l 1,0,-1
EndSplineSet
Ligature2: "'rlig' Required Ligatures in Arabic lookup 6 subtable" afii62818 afii62760
EndChar

StartChar: afii59759
Encoding: 3663 3663 276
Width: 1233
GlyphClass: 2
Flags: W
LayerCount: 2
Fore
SplineSet
616 983 m 0,0,1
 823 983 823 983 969.5 836.5 c 128,-1,2
 1116 690 1116 690 1116 483 c 0,3,4
 1116 277 1116 277 969.5 130.5 c 128,-1,5
 823 -16 823 -16 616 -16 c 0,6,7
 410 -16 410 -16 263.5 130.5 c 128,-1,8
 117 277 117 277 117 483 c 0,9,10
 117 690 117 690 263.5 836.5 c 128,-1,11
 410 983 410 983 616 983 c 0,0,1
616 147 m 0,12,13
 758 147 758 147 849 242 c 128,-1,14
 940 337 940 337 940 483 c 256,15,16
 940 629 940 629 849 724 c 128,-1,17
 758 819 758 819 616 819 c 0,18,19
 475 819 475 819 384 724 c 128,-1,20
 293 629 293 629 293 483 c 256,21,22
 293 337 293 337 384 242 c 128,-1,23
 475 147 475 147 616 147 c 0,12,13
616 598 m 0,24,25
 664 598 664 598 697.5 565 c 128,-1,26
 731 532 731 532 731 485 c 256,27,28
 731 438 731 438 697.5 404.5 c 128,-1,29
 664 371 664 371 616 371 c 0,30,31
 569 371 569 371 535.5 404.5 c 128,-1,32
 502 438 502 438 502 485 c 256,33,34
 502 532 502 532 535.5 565 c 128,-1,35
 569 598 569 598 616 598 c 0,24,25
EndSplineSet
EndChar

StartChar: afii59760
Encoding: 3664 3664 277
Width: 1233
GlyphClass: 2
Flags: W
LayerCount: 2
Fore
SplineSet
616 924 m 0,0,1
 834 924 834 924 975 794.5 c 128,-1,2
 1116 665 1116 665 1116 453 c 0,3,4
 1116 242 1116 242 975 113 c 128,-1,5
 834 -16 834 -16 616 -16 c 0,6,7
 399 -16 399 -16 258 113 c 128,-1,8
 117 242 117 242 117 453 c 0,9,10
 117 665 117 665 258 794.5 c 128,-1,11
 399 924 399 924 616 924 c 0,0,1
616 150 m 0,12,13
 765 150 765 150 852.5 231 c 128,-1,14
 940 312 940 312 940 453 c 256,15,16
 940 594 940 594 852 677 c 128,-1,17
 764 760 764 760 616 760 c 0,18,19
 469 760 469 760 381 677 c 128,-1,20
 293 594 293 594 293 453 c 0,21,22
 293 310 293 310 381.5 230 c 128,-1,23
 470 150 470 150 616 150 c 0,12,13
EndSplineSet
EndChar

StartChar: glyph279
Encoding: 65559 -1 279
Width: 0
GlyphClass: 2
Flags: W
LayerCount: 2
Fore
SplineSet
36 1831 m 1,0,-1
 36 863 l 1,1,-1
 -36 863 l 1,2,-1
 -36 1831 l 1,3,-1
 36 1831 l 1,0,-1
36 543 m 1,4,-1
 36 -423 l 1,5,-1
 -36 -423 l 1,6,-1
 -36 543 l 1,7,-1
 36 543 l 1,4,-1
EndSplineSet
EndChar

StartChar: glyph280
Encoding: 65560 -1 280
Width: 0
GlyphClass: 2
Flags: W
LayerCount: 2
Fore
SplineSet
-234 -423 m 1,0,-1
 -234 -352 l 1,1,-1
 -36 -352 l 1,2,-1
 -36 1760 l 1,3,-1
 -234 1760 l 1,4,-1
 -234 1831 l 1,5,-1
 234 1831 l 1,6,-1
 234 1760 l 1,7,-1
 36 1760 l 1,8,-1
 36 -352 l 1,9,-1
 234 -352 l 1,10,-1
 234 -423 l 1,11,-1
 -234 -423 l 1,0,-1
EndSplineSet
EndChar

StartChar: glyph281
Encoding: 65561 -1 281
Width: 0
GlyphClass: 2
Flags: W
LayerCount: 2
Fore
SplineSet
224 1646 m 1,0,-1
 36 1504 l 1,1,-1
 36 -423 l 1,2,-1
 -36 -423 l 1,3,-1
 -36 1831 l 1,4,-1
 224 1646 l 1,0,-1
EndSplineSet
EndChar

StartChar: glyph282
Encoding: 65562 -1 282
Width: 0
GlyphClass: 2
Flags: W
LayerCount: 2
Fore
SplineSet
36 1831 m 1,0,-1
 36 -423 l 1,1,-1
 -36 -423 l 1,2,-1
 -36 1504 l 1,3,-1
 -224 1646 l 1,4,-1
 36 1831 l 1,0,-1
EndSplineSet
EndChar

StartChar: glyph283
Encoding: 65563 -1 283
Width: 0
GlyphClass: 2
Flags: W
LayerCount: 2
Fore
SplineSet
36 1831 m 1,0,-1
 36 -352 l 1,1,-1
 234 -352 l 1,2,-1
 234 -423 l 1,3,-1
 -36 -423 l 1,4,-1
 -36 1831 l 1,5,-1
 36 1831 l 1,0,-1
EndSplineSet
EndChar

StartChar: glyph284
Encoding: 65564 -1 284
Width: 0
GlyphClass: 2
Flags: W
LayerCount: 2
Fore
SplineSet
224 1646 m 1,0,-1
 36 1504 l 1,1,-1
 36 -423 l 1,2,-1
 -36 -423 l 1,3,-1
 -36 1504 l 1,4,-1
 -224 1641 l 1,5,-1
 0 1831 l 1,6,-1
 224 1646 l 1,0,-1
EndSplineSet
EndChar

StartChar: uni0670
Encoding: 1648 1648 297
Width: 0
GlyphClass: 4
Flags: W
AnchorPoint: "Anchor-2" 0 0 mark 0
AnchorPoint: "Anchor-0" 0 0 mark 0
LayerCount: 2
Fore
SplineSet
79 176 m 0,0,1
 79 114 79 114 -27 4 c 1,2,3
 -15 120 -15 120 -15 160 c 0,4,5
 -15 176 -15 176 -54 362 c 1,6,-1
 31 436 l 1,7,8
 79 255 79 255 79 176 c 0,0,1
EndSplineSet
EndChar

StartChar: glyph298
Encoding: 65565 -1 298
Width: 458
GlyphClass: 2
Flags: W
LayerCount: 2
Fore
SplineSet
235 1433 m 2,0,1
 266 1457 266 1457 294 1461.5 c 128,-1,2
 322 1466 322 1466 343 1455 c 128,-1,3
 364 1444 364 1444 377 1419 c 128,-1,4
 390 1394 390 1394 390 1357 c 2,5,-1
 389 1277 l 1,6,-1
 69 1277 l 1,7,-1
 69 1335 l 1,8,-1
 123 1335 l 1,9,-1
 235 1433 l 2,0,1
203 1335 m 1,10,-1
 331 1335 l 1,11,-1
 331 1365 l 2,12,13
 329 1394 329 1394 311 1402 c 128,-1,14
 293 1410 293 1410 263 1388 c 2,15,-1
 203 1335 l 1,10,-1
EndSplineSet
EndChar

StartChar: glyph299
Encoding: 65566 -1 299
Width: 1099
GlyphClass: 2
Flags: W
LayerCount: 2
Fore
SplineSet
401 -499 m 2,0,1
 246 -499 246 -499 148 -399 c 128,-1,2
 50 -299 50 -299 40 -128 c 1,3,4
 40 140 40 140 173 299 c 0,5,6
 186 315 186 315 194.5 316 c 128,-1,7
 203 317 203 317 197 299 c 0,8,9
 150 180 150 180 140.5 76 c 128,-1,10
 131 -28 131 -28 157.5 -105 c 128,-1,11
 184 -182 184 -182 246.5 -227.5 c 128,-1,12
 309 -273 309 -273 407 -275 c 0,13,14
 629 -277 629 -277 866 -113 c 1,15,16
 894 7 894 7 894 78 c 2,17,-1
 894 101 l 1,18,19
 887 88 887 88 859 54 c 1,20,-1
 744 54 l 2,21,22
 650 54 650 54 601 64 c 0,23,24
 545 76 545 76 505.5 127.5 c 128,-1,25
 466 179 466 179 466 242 c 0,26,27
 466 420 466 420 606 604 c 0,28,29
 690 712 690 712 763 712 c 0,30,31
 876 712 876 712 961 547.5 c 128,-1,32
 1046 383 1046 383 1044 167 c 1,33,34
 1034 53 1034 53 999 -78.5 c 128,-1,35
 964 -210 964 -210 916 -312 c 1,36,37
 638 -499 638 -499 412 -499 c 2,38,-1
 401 -499 l 2,0,1
882 284 m 1,39,40
 854 514 854 514 746 514 c 0,41,42
 709 514 709 514 670 472 c 0,43,44
 620 418 620 418 620 364 c 0,45,46
 620 284 620 284 739 284 c 2,47,-1
 882 284 l 1,39,40
EndSplineSet
EndChar

StartChar: uni06DD
Encoding: 1757 1757 388
Width: 2300
GlyphClass: 2
Flags: W
LayerCount: 2
Fore
SplineSet
2250 715 m 256,0,1
 2250 469 2250 469 2146 249 c 0,2,3
 2046 35 2046 35 1867 -119 c 1,4,5
 1870 -133 1870 -133 1870 -148 c 0,6,7
 1870 -203 1870 -203 1831 -241.5 c 128,-1,8
 1792 -280 1792 -280 1737 -280 c 0,9,10
 1697 -280 1697 -280 1664 -258 c 1,11,12
 1424 -385 1424 -385 1149 -385 c 0,13,14
 876 -385 876 -385 636 -258 c 1,15,16
 603 -280 603 -280 563 -280 c 0,17,18
 508 -280 508 -280 469 -241.5 c 128,-1,19
 430 -203 430 -203 430 -148 c 0,20,21
 430 -133 430 -133 433 -119 c 1,22,23
 254 35 254 35 154 249 c 0,24,25
 50 469 50 469 50 715 c 256,26,27
 50 961 50 961 154 1181 c 0,28,29
 254 1394 254 1394 433 1548 c 1,30,31
 430 1562 430 1562 430 1577 c 0,32,33
 430 1632 430 1632 469 1670.5 c 128,-1,34
 508 1709 508 1709 563 1709 c 0,35,36
 603 1709 603 1709 636 1687 c 1,37,38
 876 1814 876 1814 1151 1814 c 0,39,40
 1424 1814 1424 1814 1664 1687 c 1,41,42
 1697 1709 1697 1709 1737 1709 c 0,43,44
 1792 1709 1792 1709 1831 1670.5 c 128,-1,45
 1870 1632 1870 1632 1870 1577 c 0,46,47
 1870 1562 1870 1562 1867 1548 c 1,48,49
 2046 1394 2046 1394 2146 1181 c 0,50,51
 2250 961 2250 961 2250 715 c 256,0,1
1816 1576 m 0,52,53
 1816 1609 1816 1609 1793 1632 c 128,-1,54
 1770 1655 1770 1655 1738 1655 c 256,55,56
 1706 1655 1706 1655 1682.5 1631.5 c 128,-1,57
 1659 1608 1659 1608 1659 1576 c 256,58,59
 1659 1544 1659 1544 1682 1521 c 128,-1,60
 1705 1498 1705 1498 1738 1498 c 0,61,62
 1770 1498 1770 1498 1793 1521 c 128,-1,63
 1816 1544 1816 1544 1816 1576 c 0,52,53
1602 1595 m 1,64,65
 1390 1704 1390 1704 1151 1704 c 0,66,67
 910 1704 910 1704 698 1595 c 1,68,-1
 1602 1595 l 1,64,65
641 1576 m 256,69,70
 641 1608 641 1608 617.5 1631.5 c 128,-1,71
 594 1655 594 1655 562 1655 c 256,72,73
 530 1655 530 1655 507 1632 c 128,-1,74
 484 1609 484 1609 484 1576 c 0,75,76
 484 1544 484 1544 507 1521 c 128,-1,77
 530 1498 530 1498 562 1498 c 0,78,79
 595 1498 595 1498 618 1521 c 128,-1,80
 641 1544 641 1544 641 1576 c 256,69,70
2140 714 m 0,81,82
 2140 933 2140 933 2048 1131 c 0,83,84
 1960 1321 1960 1321 1801 1460 c 1,85,86
 1772 1444 1772 1444 1737 1444 c 0,87,88
 1681 1444 1681 1444 1642 1485 c 1,89,-1
 658 1485 l 1,90,91
 619 1444 619 1444 563 1444 c 0,92,93
 528 1444 528 1444 499 1460 c 1,94,95
 340 1321 340 1321 252 1131 c 0,96,97
 160 933 160 933 160 714 c 0,98,99
 160 265 160 265 499 -31 c 1,100,101
 528 -15 528 -15 563 -15 c 0,102,103
 619 -15 619 -15 658 -56 c 1,104,-1
 1642 -56 l 1,105,106
 1681 -15 1681 -15 1737 -15 c 0,107,108
 1772 -15 1772 -15 1801 -31 c 1,109,110
 2140 265 2140 265 2140 714 c 0,81,82
1816 -147 m 0,111,112
 1816 -115 1816 -115 1793 -92 c 128,-1,113
 1770 -69 1770 -69 1738 -69 c 0,114,115
 1705 -69 1705 -69 1682 -92 c 128,-1,116
 1659 -115 1659 -115 1659 -147 c 256,117,118
 1659 -179 1659 -179 1682.5 -202.5 c 128,-1,119
 1706 -226 1706 -226 1738 -226 c 256,120,121
 1770 -226 1770 -226 1793 -203 c 128,-1,122
 1816 -180 1816 -180 1816 -147 c 0,111,112
1602 -166 m 1,123,-1
 698 -166 l 1,124,125
 910 -275 910 -275 1151 -275 c 0,126,127
 1390 -275 1390 -275 1602 -166 c 1,123,-1
641 -147 m 256,128,129
 641 -115 641 -115 618 -92 c 128,-1,130
 595 -69 595 -69 562 -69 c 0,131,132
 530 -69 530 -69 507 -92 c 128,-1,133
 484 -115 484 -115 484 -147 c 0,134,135
 484 -180 484 -180 507 -203 c 128,-1,136
 530 -226 530 -226 562 -226 c 256,137,138
 594 -226 594 -226 617.5 -202.5 c 128,-1,139
 641 -179 641 -179 641 -147 c 256,128,129
EndSplineSet
EndChar

StartChar: uni06DE
Encoding: 1758 1758 389
Width: 2221
GlyphClass: 2
Flags: W
LayerCount: 2
Fore
SplineSet
2171 750 m 1,0,-1
 1861 439 l 1,1,-1
 1861 0 l 1,2,-1
 1421 0 l 1,3,-1
 1111 -311 l 1,4,-1
 800 0 l 1,5,-1
 361 0 l 1,6,-1
 361 439 l 1,7,-1
 50 750 l 1,8,-1
 361 1061 l 1,9,-1
 361 1500 l 1,10,-1
 800 1500 l 1,11,-1
 1111 1811 l 1,12,-1
 1421 1500 l 1,13,-1
 1861 1500 l 1,14,-1
 1861 1061 l 1,15,-1
 2171 750 l 1,0,-1
436 364 m 1,16,-1
 436 75 l 1,17,-1
 725 75 l 1,18,-1
 436 364 l 1,16,-1
725 1425 m 1,19,-1
 436 1425 l 1,20,-1
 436 1136 l 1,21,-1
 725 1425 l 1,19,-1
1786 1136 m 1,22,-1
 1786 1425 l 1,23,-1
 1496 1425 l 1,24,-1
 1786 1136 l 1,22,-1
1786 75 m 1,25,-1
 1786 364 l 1,26,-1
 1496 75 l 1,27,-1
 1786 75 l 1,25,-1
906 0 m 1,28,-1
 1111 -205 l 1,29,-1
 1315 0 l 1,30,-1
 906 0 l 1,28,-1
361 955 m 1,31,-1
 156 750 l 1,32,-1
 361 545 l 1,33,-1
 361 955 l 1,31,-1
1315 1500 m 1,34,-1
 1111 1705 l 1,35,-1
 906 1500 l 1,36,-1
 1315 1500 l 1,34,-1
1786 1030 m 1,37,-1
 1390 1425 l 1,38,-1
 831 1425 l 1,39,-1
 436 1030 l 1,40,-1
 436 470 l 1,41,-1
 831 75 l 1,42,-1
 1390 75 l 1,43,-1
 1786 470 l 1,44,-1
 1786 1030 l 1,37,-1
2065 750 m 1,45,-1
 1861 955 l 1,46,-1
 1861 545 l 1,47,-1
 2065 750 l 1,45,-1
1328 750 m 256,48,49
 1328 660 1328 660 1264.5 596 c 128,-1,50
 1201 532 1201 532 1111 532 c 256,51,52
 1021 532 1021 532 957 596 c 128,-1,53
 893 660 893 660 893 750 c 256,54,55
 893 840 893 840 957 903.5 c 128,-1,56
 1021 967 1021 967 1111 967 c 256,57,58
 1201 967 1201 967 1264.5 903.5 c 128,-1,59
 1328 840 1328 840 1328 750 c 256,48,49
1253 750 m 256,60,61
 1253 809 1253 809 1211 850.5 c 128,-1,62
 1169 892 1169 892 1110 892 c 256,63,64
 1051 892 1051 892 1009 850.5 c 128,-1,65
 967 809 967 809 967 750 c 256,66,67
 967 691 967 691 1009 649 c 128,-1,68
 1051 607 1051 607 1110 607 c 256,69,70
 1169 607 1169 607 1211 649 c 128,-1,71
 1253 691 1253 691 1253 750 c 256,60,61
EndSplineSet
EndChar

StartChar: uni06DF
Encoding: 1759 1759 390
Width: 0
GlyphClass: 2
Flags: W
LayerCount: 2
Fore
SplineSet
75 1429 m 256,0,1
 75 1398 75 1398 53 1376 c 128,-1,2
 31 1354 31 1354 0 1354 c 256,3,4
 -31 1354 -31 1354 -53 1376 c 128,-1,5
 -75 1398 -75 1398 -75 1429 c 256,6,7
 -75 1460 -75 1460 -53 1482 c 128,-1,8
 -31 1504 -31 1504 0 1504 c 256,9,10
 31 1504 31 1504 53 1482 c 128,-1,11
 75 1460 75 1460 75 1429 c 256,0,1
EndSplineSet
EndChar

StartChar: uni06E9
Encoding: 1769 1769 391
Width: 1229
GlyphClass: 2
Flags: W
LayerCount: 2
Fore
SplineSet
1179 0 m 1,0,-1
 50 0 l 1,1,-1
 278 261 l 1,2,-1
 278 849 l 1,3,-1
 50 1108 l 1,4,-1
 614 1676 l 1,5,-1
 1179 1108 l 1,6,-1
 951 849 l 1,7,-1
 951 261 l 1,8,-1
 1179 0 l 1,0,-1
1101 1108 m 1,9,-1
 614 1598 l 1,10,-1
 128 1108 l 1,11,-1
 338 871 l 1,12,-1
 338 239 l 1,13,-1
 178 56 l 1,14,-1
 1051 56 l 1,15,-1
 891 239 l 1,16,-1
 891 871 l 1,17,-1
 1101 1108 l 1,9,-1
995 1108 m 1,18,-1
 845 937 l 1,19,-1
 845 131 l 1,20,-1
 384 131 l 1,21,-1
 384 937 l 1,22,-1
 234 1108 l 1,23,-1
 614 1489 l 1,24,-1
 995 1108 l 1,18,-1
922 1108 m 1,25,-1
 614 1416 l 1,26,-1
 307 1108 l 1,27,-1
 433 968 l 1,28,-1
 433 186 l 1,29,-1
 796 186 l 1,30,-1
 796 968 l 1,31,-1
 922 1108 l 1,25,-1
833 1108 m 1,32,-1
 745 1011 l 1,33,-1
 745 267 l 1,34,-1
 484 267 l 1,35,-1
 484 1011 l 1,36,-1
 396 1108 l 1,37,-1
 614 1331 l 1,38,-1
 833 1108 l 1,32,-1
780 1108 m 1,39,-1
 614 1278 l 1,40,-1
 449 1108 l 1,41,-1
 523 1027 l 1,42,-1
 523 309 l 1,43,-1
 705 309 l 1,44,-1
 705 1027 l 1,45,-1
 780 1108 l 1,39,-1
EndSplineSet
EndChar

StartChar: uni06EB
Encoding: 1771 1771 393
Width: 0
GlyphClass: 2
Flags: W
LayerCount: 2
Fore
SplineSet
168 1522 m 1,0,-1
 -1 1354 l 1,1,-1
 -168 1521 l 1,2,-1
 1 1689 l 1,3,-1
 168 1522 l 1,0,-1
104 1522 m 1,4,-1
 0 1626 l 1,5,-1
 -104 1521 l 1,6,-1
 0 1417 l 1,7,-1
 104 1522 l 1,4,-1
EndSplineSet
EndChar

StartChar: comma
Encoding: 44 44 402
Width: 557
Flags: W
LayerCount: 2
Fore
SplineSet
152 -270 m 1,0,1
 249 -202 249 -202 293.5 -147 c 128,-1,2
 338 -92 338 -92 338 -42 c 0,3,4
 338 -28 338 -28 329 -17.5 c 128,-1,5
 320 -7 320 -7 308 -7 c 2,6,-1
 295 -7 l 1,7,-1
 274 -10 l 1,8,-1
 261 -10 l 2,9,10
 253 -10 253 -10 242.5 -7.5 c 128,-1,11
 232 -5 232 -5 221.5 -1 c 128,-1,12
 211 3 211 3 201 8.5 c 128,-1,13
 191 14 191 14 184 20 c 0,14,15
 162 36 162 36 151 62.5 c 128,-1,16
 140 89 140 89 140 122 c 0,17,18
 140 187 140 187 179 225.5 c 128,-1,19
 218 264 218 264 281 264 c 0,20,21
 319 264 319 264 351 249.5 c 128,-1,22
 383 235 383 235 406 209 c 128,-1,23
 429 183 429 183 441.5 147 c 128,-1,24
 454 111 454 111 454 67 c 0,25,26
 454 12 454 12 437 -37.5 c 128,-1,27
 420 -87 420 -87 386 -132.5 c 128,-1,28
 352 -178 352 -178 298.5 -221.5 c 128,-1,29
 245 -265 245 -265 171 -308 c 1,30,-1
 152 -270 l 1,0,1
EndSplineSet
EndChar

StartChar: afii57407
Encoding: 1567 1567 403
Width: 919
GlyphClass: 2
Flags: W
LayerCount: 2
Fore
SplineSet
826 1018 m 1,0,1
 748 1138 748 1138 628 1138 c 0,2,3
 593 1138 593 1138 556 1121 c 0,4,5
 506 1098 506 1098 455 1030 c 1,6,-1
 696 840 l 2,7,8
 794 764 794 764 794 720 c 0,9,10
 794 688 794 688 745 610 c 2,11,-1
 605 386 l 1,12,-1
 614 476 l 1,13,-1
 619 528 l 1,14,-1
 619 565 l 2,15,16
 619 610 619 610 551 664 c 2,17,-1
 415 769 l 2,18,19
 364 809 364 809 342 833 c 0,20,21
 307 870 307 870 307 917 c 0,22,23
 307 1042 307 1042 403 1214 c 0,24,25
 467 1327 467 1327 595 1327 c 0,26,27
 701 1327 701 1327 780.5 1276.5 c 128,-1,28
 860 1226 860 1226 860 1158 c 0,29,30
 860 1133 860 1133 826 1018 c 1,0,1
750 96 m 1,31,-1
 628 -10 l 1,32,-1
 485 131 l 1,33,-1
 610 239 l 1,34,-1
 750 96 l 1,31,-1
EndSplineSet
EndChar

StartChar: afii57392
Encoding: 1776 1776 404
Width: 1006
Flags: W
LayerCount: 2
Fore
SplineSet
673 521 m 1,0,-1
 541 284 l 1,1,-1
 331 420 l 1,2,-1
 464 654 l 1,3,-1
 673 521 l 1,0,-1
EndSplineSet
EndChar

StartChar: afii57393
Encoding: 1777 1777 405
Width: 671
Flags: W
LayerCount: 2
Fore
SplineSet
160 1027 m 1,0,-1
 322 1217 l 1,1,2
 486 880 486 880 486 464 c 0,3,4
 486 305 486 305 457 197 c 0,5,6
 432 103 432 103 310 -96 c 1,7,8
 324 35 324 35 324 167 c 0,9,10
 324 371 324 371 307 504 c 0,11,12
 265 835 265 835 160 1027 c 1,0,-1
EndSplineSet
EndChar

StartChar: afii57394
Encoding: 1778 1778 406
Width: 878
Flags: W
LayerCount: 2
Fore
SplineSet
710 980 m 0,0,1
 685 863 685 863 630 807.5 c 128,-1,2
 575 752 575 752 496 752 c 0,3,4
 460 752 460 752 413 762 c 1,5,6
 442 619 442 619 442 467 c 0,7,8
 442 331 442 331 410 216 c 0,9,10
 373 89 373 89 263 -96 c 1,11,12
 268 -68 268 -68 270 -59 c 0,13,14
 280 59 280 59 280 199 c 0,15,16
 280 356 280 356 268 486 c 0,17,18
 240 784 240 784 120 1039 c 1,19,-1
 268 1229 l 1,20,21
 331 1109 331 1109 373 997 c 1,22,23
 427 985 427 985 472 985 c 0,24,25
 558 985 558 985 608.5 1030.5 c 128,-1,26
 659 1076 659 1076 659 1154 c 0,27,28
 659 1169 659 1169 657.5 1180.5 c 128,-1,29
 656 1192 656 1192 654 1201 c 1,30,-1
 692 1241 l 1,31,32
 718 1165 718 1165 718 1079 c 0,33,34
 718 1020 718 1020 710 980 c 0,0,1
EndSplineSet
EndChar

StartChar: afii57395
Encoding: 1779 1779 407
Width: 1069
Flags: W
LayerCount: 2
Fore
SplineSet
919 1241 m 1,0,1
 943 1145 943 1145 943 1060 c 0,2,3
 943 752 943 752 722 752 c 0,4,5
 659 752 659 752 607 786 c 1,6,7
 565 752 565 752 486 752 c 0,8,9
 450 752 450 752 403 762 c 1,10,11
 432 619 432 619 432 467 c 0,12,13
 432 331 432 331 401 216 c 0,14,15
 364 89 364 89 253 -96 c 1,16,17
 258 -68 258 -68 260 -59 c 0,18,19
 270 59 270 59 270 199 c 0,20,21
 270 356 270 356 258 486 c 0,22,23
 230 784 230 784 110 1039 c 1,24,-1
 258 1229 l 1,25,26
 322 1109 322 1109 364 997 c 1,27,28
 418 985 418 985 462 985 c 0,29,30
 548 985 548 985 598.5 1030.5 c 128,-1,31
 649 1076 649 1076 649 1154 c 0,32,33
 649 1169 649 1169 647.5 1180.5 c 128,-1,34
 646 1192 646 1192 644 1201 c 1,35,-1
 683 1241 l 1,36,37
 708 1165 708 1165 708 1079 c 0,38,39
 708 1020 708 1020 697 980 c 1,40,41
 884 992 884 992 884 1145 c 0,42,43
 884 1177 884 1177 882 1199 c 1,44,-1
 919 1241 l 1,0,1
EndSplineSet
EndChar

StartChar: afii62843
Encoding: 1780 1780 408
Width: 990
Flags: W
LayerCount: 2
Fore
SplineSet
784 1187 m 1,0,1
 739 1192 739 1192 720 1194 c 128,-1,2
 701 1196 701 1196 676 1196 c 0,3,4
 629 1196 629 1196 598.5 1188 c 128,-1,5
 568 1180 568 1180 539 1160 c 0,6,7
 487 1123 487 1123 464 1054 c 0,8,9
 452 1018 452 1018 437 895 c 1,10,11
 478 874 478 874 574.5 879 c 128,-1,12
 671 884 671 884 742.5 931 c 128,-1,13
 814 978 814 978 826 1079 c 1,14,-1
 875 1126 l 1,15,16
 881 1099 881 1099 881.5 1044.5 c 128,-1,17
 882 990 882 990 869 934 c 128,-1,18
 856 878 856 878 819 823.5 c 128,-1,19
 782 769 782 769 751 748 c 0,20,21
 704 713 704 713 644 693 c 128,-1,22
 584 673 584 673 521 673 c 0,23,24
 499 673 499 673 483 674.5 c 128,-1,25
 467 676 467 676 434 679 c 1,26,27
 448 602 448 602 452.5 560 c 128,-1,28
 457 518 457 518 457 467 c 0,29,30
 457 356 457 356 430.5 254 c 128,-1,31
 404 152 404 152 375.5 87 c 128,-1,32
 347 22 347 22 328.5 -5 c 128,-1,33
 310 -32 310 -32 272 -79 c 1,34,35
 313 142 313 142 278.5 476 c 128,-1,36
 244 810 244 810 127 1022 c 1,37,-1
 275 1208 l 1,38,39
 312 1159 312 1159 352 1060 c 1,40,41
 352 1088 352 1088 353.5 1108 c 128,-1,42
 355 1128 355 1128 357.5 1144 c 128,-1,43
 360 1160 360 1160 363 1173.5 c 128,-1,44
 366 1187 366 1187 371 1204 c 0,45,46
 418 1327 418 1327 541 1331 c 1,47,48
 643 1327 643 1327 705 1273 c 128,-1,49
 767 1219 767 1219 784 1187 c 1,0,1
EndSplineSet
EndChar

StartChar: afii62844
Encoding: 1781 1781 409
Width: 1054
Flags: W
LayerCount: 2
Fore
SplineSet
505 1150 m 2,0,1
 518 1164 518 1164 538 1164 c 0,2,3
 550 1164 550 1164 553 1162 c 0,4,5
 570 1154 570 1154 604 1113 c 128,-1,6
 638 1072 638 1072 688.5 991.5 c 128,-1,7
 739 911 739 911 781 817 c 1,8,9
 850 641 850 641 865 440 c 0,10,11
 871 367 871 367 868.5 295 c 128,-1,12
 866 223 866 223 857 155 c 0,13,14
 845 79 845 79 814 19 c 0,15,16
 794 -24 794 -24 752 -50 c 128,-1,17
 710 -76 710 -76 662 -76 c 0,18,19
 602 -76 602 -76 562 -43 c 0,20,21
 551 -36 551 -36 543 -24.5 c 128,-1,22
 535 -13 535 -13 512 19 c 1,23,24
 498 -13 498 -13 494 -18.5 c 128,-1,25
 490 -24 490 -24 484 -36 c 0,26,27
 470 -53 470 -53 455 -60 c 0,28,29
 412 -84 412 -84 356 -84 c 0,30,31
 295 -84 295 -84 253 -64 c 0,32,33
 166 -19 166 -19 156 119 c 0,34,35
 150 210 150 210 163 301 c 0,36,37
 174 384 174 384 198 466 c 128,-1,38
 222 548 222 548 265 649 c 0,39,40
 284 696 284 696 306 741.5 c 128,-1,41
 328 787 328 787 347 826 c 0,42,43
 365 857 365 857 392.5 901.5 c 128,-1,44
 420 946 420 946 434.5 967 c 128,-1,45
 449 988 449 988 472 1016 c 1,46,-1
 419 1082 l 1,47,-1
 505 1150 l 2,0,1
557 908 m 1,48,49
 538 882 538 882 515 846.5 c 128,-1,50
 492 811 492 811 456.5 745.5 c 128,-1,51
 421 680 421 680 398 623 c 0,52,53
 386 592 386 592 375 557.5 c 128,-1,54
 364 523 364 523 353 484 c 0,55,56
 335 418 335 418 328.5 367 c 128,-1,57
 322 316 322 316 324 280 c 0,58,59
 325 269 325 269 327 257.5 c 128,-1,60
 329 246 329 246 335 233 c 0,61,62
 341 209 341 209 364.5 196.5 c 128,-1,63
 388 184 388 184 416 184 c 0,64,65
 448 184 448 184 473 200 c 0,66,67
 493 215 493 215 506 248 c 1,68,69
 526 212 526 212 546 196 c 1,70,71
 575 182 575 182 612 181 c 0,72,73
 628 181 628 181 639 182.5 c 128,-1,74
 650 184 650 184 664 187 c 0,75,76
 691 194 691 194 703 208.5 c 128,-1,77
 715 223 715 223 721 244 c 0,78,79
 728 280 728 280 730 341.5 c 128,-1,80
 732 403 732 403 725 480 c 128,-1,81
 718 557 718 557 692 643.5 c 128,-1,82
 666 730 666 730 625 797 c 0,83,84
 607 828 607 828 594.5 849 c 128,-1,85
 582 870 582 870 557 908 c 1,48,49
EndSplineSet
EndChar

StartChar: afii62845
Encoding: 1782 1782 410
Width: 1092
Flags: W
LayerCount: 2
Fore
SplineSet
870 1037 m 1,0,1
 832 1044 832 1044 776 1042 c 128,-1,2
 720 1040 720 1040 686 1030.5 c 128,-1,3
 652 1021 652 1021 614 1000 c 128,-1,4
 576 979 576 979 550 955.5 c 128,-1,5
 524 932 524 932 490 883 c 1,6,7
 516 856 516 856 532 842.5 c 128,-1,8
 548 829 548 829 576 815 c 0,9,10
 664 766 664 766 792 766 c 2,11,-1
 806 766 l 2,12,13
 853 768 853 768 883.5 773 c 128,-1,14
 914 778 914 778 966 792 c 1,15,-1
 883 562 l 1,16,17
 691 538 691 538 477.5 344.5 c 128,-1,18
 264 151 264 151 114 -103 c 1,19,20
 106 1 106 1 215.5 237.5 c 128,-1,21
 325 474 325 474 490 630 c 1,22,23
 410 679 410 679 381 732 c 128,-1,24
 352 785 352 785 352 844 c 0,25,26
 352 910 352 910 380 977.5 c 128,-1,27
 408 1045 408 1045 460 1106 c 0,28,29
 527 1181 527 1181 600 1212 c 0,30,31
 698 1259 698 1259 814 1259 c 0,32,33
 890 1259 890 1259 922 1242 c 0,34,35
 940 1232 940 1232 940 1210 c 0,36,37
 940 1198 940 1198 937 1190 c 2,38,-1
 870 1037 l 1,0,1
EndSplineSet
EndChar

StartChar: afii57399
Encoding: 1783 1783 411
Width: 1006
Flags: W
LayerCount: 2
Fore
SplineSet
847 1219 m 1,0,1
 876 1165 876 1165 904 1112 c 128,-1,2
 932 1059 932 1059 961 1006 c 1,3,4
 937 965 937 965 907.5 905 c 128,-1,5
 878 845 878 845 845 772.5 c 128,-1,6
 812 700 812 700 777.5 619 c 128,-1,7
 743 538 743 538 710 455 c 128,-1,8
 677 372 677 372 646 290.5 c 128,-1,9
 615 209 615 209 589 136.5 c 128,-1,10
 563 64 563 64 544 4 c 128,-1,11
 525 -56 525 -56 515 -96 c 1,12,13
 479 29 479 29 430.5 161.5 c 128,-1,14
 382 294 382 294 324.5 428.5 c 128,-1,15
 267 563 267 563 202 697.5 c 128,-1,16
 137 832 137 832 68 961 c 1,17,-1
 216 1219 l 1,18,19
 263 1109 263 1109 308.5 990.5 c 128,-1,20
 354 872 354 872 394.5 757 c 128,-1,21
 435 642 435 642 468 537.5 c 128,-1,22
 501 433 501 433 522 352 c 1,23,24
 585 562 585 562 669 780.5 c 128,-1,25
 753 999 753 999 847 1219 c 1,0,1
EndSplineSet
EndChar

StartChar: afii57400
Encoding: 1784 1784 412
Width: 1006
Flags: W
LayerCount: 2
Fore
SplineSet
847 -96 m 1,0,1
 753 124 753 124 669 342.5 c 128,-1,2
 585 561 585 561 522 772 c 1,3,4
 501 690 501 690 468 585.5 c 128,-1,5
 435 481 435 481 394.5 366 c 128,-1,6
 354 251 354 251 308.5 132.5 c 128,-1,7
 263 14 263 14 216 -96 c 1,8,-1
 68 162 l 1,9,10
 137 292 137 292 202 426.5 c 128,-1,11
 267 561 267 561 324.5 695.5 c 128,-1,12
 382 830 382 830 430.5 962 c 128,-1,13
 479 1094 479 1094 515 1219 c 1,14,15
 525 1179 525 1179 544 1119 c 128,-1,16
 563 1059 563 1059 589 986.5 c 128,-1,17
 615 914 615 914 646 833 c 128,-1,18
 677 752 677 752 710 669 c 128,-1,19
 743 586 743 586 777.5 504.5 c 128,-1,20
 812 423 812 423 845 351 c 128,-1,21
 878 279 878 279 907.5 218.5 c 128,-1,22
 937 158 937 158 961 118 c 1,23,24
 932 64 932 64 904 11 c 128,-1,25
 876 -42 876 -42 847 -96 c 1,0,1
EndSplineSet
EndChar

StartChar: afii57401
Encoding: 1785 1785 413
Width: 1022
Flags: W
LayerCount: 2
Fore
SplineSet
752 -103 m 1,0,1
 656 24 656 24 607 167 c 0,2,3
 548 336 548 336 541 504 c 1,4,-1
 342 504 l 2,5,6
 236 504 236 504 199 523 c 0,7,8
 125 563 125 563 125 668 c 0,9,10
 125 840 125 840 236 1044 c 0,11,12
 326 1212 326 1212 443 1212 c 0,13,14
 526 1212 526 1212 586.5 1128 c 128,-1,15
 647 1044 647 1044 659 910 c 2,16,-1
 678 701 l 2,17,18
 701 457 701 457 774 275 c 0,19,20
 806 194 806 194 860 108 c 1,21,-1
 752 -103 l 1,0,1
530 737 m 1,22,-1
 530 746 l 2,23,24
 530 1013 530 1013 425 1013 c 0,25,26
 376 1013 376 1013 329.5 931.5 c 128,-1,27
 283 850 283 850 283 793 c 0,28,29
 283 760 283 760 298.5 748.5 c 128,-1,30
 314 737 314 737 368 737 c 2,31,-1
 530 737 l 1,22,-1
EndSplineSet
EndChar

StartChar: afii57392.001
Encoding: 1632 1632 414
Width: 1006
Flags: W
LayerCount: 2
Fore
SplineSet
673 521 m 1,0,-1
 541 284 l 1,1,-1
 331 420 l 1,2,-1
 464 654 l 1,3,-1
 673 521 l 1,0,-1
EndSplineSet
EndChar

StartChar: afii57393.001
Encoding: 1633 1633 415
Width: 671
Flags: W
LayerCount: 2
Fore
SplineSet
160 1027 m 1,0,-1
 322 1217 l 1,1,2
 486 880 486 880 486 464 c 0,3,4
 486 305 486 305 457 197 c 0,5,6
 432 103 432 103 310 -96 c 1,7,8
 324 35 324 35 324 167 c 0,9,10
 324 371 324 371 307 504 c 0,11,12
 265 835 265 835 160 1027 c 1,0,-1
EndSplineSet
EndChar

StartChar: afii57394.001
Encoding: 1634 1634 416
Width: 878
Flags: W
LayerCount: 2
Fore
SplineSet
710 980 m 0,0,1
 685 863 685 863 630 807.5 c 128,-1,2
 575 752 575 752 496 752 c 0,3,4
 460 752 460 752 413 762 c 1,5,6
 442 619 442 619 442 467 c 0,7,8
 442 331 442 331 410 216 c 0,9,10
 373 89 373 89 263 -96 c 1,11,12
 268 -68 268 -68 270 -59 c 0,13,14
 280 59 280 59 280 199 c 0,15,16
 280 356 280 356 268 486 c 0,17,18
 240 784 240 784 120 1039 c 1,19,-1
 268 1229 l 1,20,21
 331 1109 331 1109 373 997 c 1,22,23
 427 985 427 985 472 985 c 0,24,25
 558 985 558 985 608.5 1030.5 c 128,-1,26
 659 1076 659 1076 659 1154 c 0,27,28
 659 1169 659 1169 657.5 1180.5 c 128,-1,29
 656 1192 656 1192 654 1201 c 1,30,-1
 692 1241 l 1,31,32
 718 1165 718 1165 718 1079 c 0,33,34
 718 1020 718 1020 710 980 c 0,0,1
EndSplineSet
EndChar

StartChar: afii57395.001
Encoding: 1635 1635 417
Width: 1069
Flags: W
LayerCount: 2
Fore
SplineSet
919 1241 m 1,0,1
 943 1145 943 1145 943 1060 c 0,2,3
 943 752 943 752 722 752 c 0,4,5
 659 752 659 752 607 786 c 1,6,7
 565 752 565 752 486 752 c 0,8,9
 450 752 450 752 403 762 c 1,10,11
 432 619 432 619 432 467 c 0,12,13
 432 331 432 331 401 216 c 0,14,15
 364 89 364 89 253 -96 c 1,16,17
 258 -68 258 -68 260 -59 c 0,18,19
 270 59 270 59 270 199 c 0,20,21
 270 356 270 356 258 486 c 0,22,23
 230 784 230 784 110 1039 c 1,24,-1
 258 1229 l 1,25,26
 322 1109 322 1109 364 997 c 1,27,28
 418 985 418 985 462 985 c 0,29,30
 548 985 548 985 598.5 1030.5 c 128,-1,31
 649 1076 649 1076 649 1154 c 0,32,33
 649 1169 649 1169 647.5 1180.5 c 128,-1,34
 646 1192 646 1192 644 1201 c 1,35,-1
 683 1241 l 1,36,37
 708 1165 708 1165 708 1079 c 0,38,39
 708 1020 708 1020 697 980 c 1,40,41
 884 992 884 992 884 1145 c 0,42,43
 884 1177 884 1177 882 1199 c 1,44,-1
 919 1241 l 1,0,1
EndSplineSet
EndChar

StartChar: afii57396
Encoding: 1636 1636 418
Width: 990
Flags: W
LayerCount: 2
Fore
SplineSet
784 1187 m 1,0,1
 739 1192 739 1192 720 1194 c 128,-1,2
 701 1196 701 1196 676 1196 c 0,3,4
 629 1196 629 1196 598.5 1188 c 128,-1,5
 568 1180 568 1180 539 1160 c 0,6,7
 487 1123 487 1123 464 1054 c 0,8,9
 452 1018 452 1018 437 895 c 1,10,11
 478 874 478 874 574.5 879 c 128,-1,12
 671 884 671 884 742.5 931 c 128,-1,13
 814 978 814 978 826 1079 c 1,14,-1
 875 1126 l 1,15,16
 881 1099 881 1099 881.5 1044.5 c 128,-1,17
 882 990 882 990 869 934 c 128,-1,18
 856 878 856 878 819 823.5 c 128,-1,19
 782 769 782 769 751 748 c 0,20,21
 704 713 704 713 644 693 c 128,-1,22
 584 673 584 673 521 673 c 0,23,24
 499 673 499 673 483 674.5 c 128,-1,25
 467 676 467 676 434 679 c 1,26,27
 448 602 448 602 452.5 560 c 128,-1,28
 457 518 457 518 457 467 c 0,29,30
 457 356 457 356 430.5 254 c 128,-1,31
 404 152 404 152 375.5 87 c 128,-1,32
 347 22 347 22 328.5 -5 c 128,-1,33
 310 -32 310 -32 272 -79 c 1,34,35
 313 142 313 142 278.5 476 c 128,-1,36
 244 810 244 810 127 1022 c 1,37,-1
 275 1208 l 1,38,39
 312 1159 312 1159 352 1060 c 1,40,41
 352 1088 352 1088 353.5 1108 c 128,-1,42
 355 1128 355 1128 357.5 1144 c 128,-1,43
 360 1160 360 1160 363 1173.5 c 128,-1,44
 366 1187 366 1187 371 1204 c 0,45,46
 418 1327 418 1327 541 1331 c 1,47,48
 643 1327 643 1327 705 1273 c 128,-1,49
 767 1219 767 1219 784 1187 c 1,0,1
EndSplineSet
EndChar

StartChar: afii57397
Encoding: 1637 1637 419
Width: 1054
Flags: W
LayerCount: 2
Fore
SplineSet
505 1150 m 2,0,1
 518 1164 518 1164 538 1164 c 0,2,3
 550 1164 550 1164 553 1162 c 0,4,5
 570 1154 570 1154 604 1113 c 128,-1,6
 638 1072 638 1072 688.5 991.5 c 128,-1,7
 739 911 739 911 781 817 c 1,8,9
 850 641 850 641 865 440 c 0,10,11
 871 367 871 367 868.5 295 c 128,-1,12
 866 223 866 223 857 155 c 0,13,14
 845 79 845 79 814 19 c 0,15,16
 794 -24 794 -24 752 -50 c 128,-1,17
 710 -76 710 -76 662 -76 c 0,18,19
 602 -76 602 -76 562 -43 c 0,20,21
 551 -36 551 -36 543 -24.5 c 128,-1,22
 535 -13 535 -13 512 19 c 1,23,24
 498 -13 498 -13 494 -18.5 c 128,-1,25
 490 -24 490 -24 484 -36 c 0,26,27
 470 -53 470 -53 455 -60 c 0,28,29
 412 -84 412 -84 356 -84 c 0,30,31
 295 -84 295 -84 253 -64 c 0,32,33
 166 -19 166 -19 156 119 c 0,34,35
 150 210 150 210 163 301 c 0,36,37
 174 384 174 384 198 466 c 128,-1,38
 222 548 222 548 265 649 c 0,39,40
 284 696 284 696 306 741.5 c 128,-1,41
 328 787 328 787 347 826 c 0,42,43
 365 857 365 857 392.5 901.5 c 128,-1,44
 420 946 420 946 434.5 967 c 128,-1,45
 449 988 449 988 472 1016 c 1,46,-1
 419 1082 l 1,47,-1
 505 1150 l 2,0,1
557 908 m 1,48,49
 538 882 538 882 515 846.5 c 128,-1,50
 492 811 492 811 456.5 745.5 c 128,-1,51
 421 680 421 680 398 623 c 0,52,53
 386 592 386 592 375 557.5 c 128,-1,54
 364 523 364 523 353 484 c 0,55,56
 335 418 335 418 328.5 367 c 128,-1,57
 322 316 322 316 324 280 c 0,58,59
 325 269 325 269 327 257.5 c 128,-1,60
 329 246 329 246 335 233 c 0,61,62
 341 209 341 209 364.5 196.5 c 128,-1,63
 388 184 388 184 416 184 c 0,64,65
 448 184 448 184 473 200 c 0,66,67
 493 215 493 215 506 248 c 1,68,69
 526 212 526 212 546 196 c 1,70,71
 575 182 575 182 612 181 c 0,72,73
 628 181 628 181 639 182.5 c 128,-1,74
 650 184 650 184 664 187 c 0,75,76
 691 194 691 194 703 208.5 c 128,-1,77
 715 223 715 223 721 244 c 0,78,79
 728 280 728 280 730 341.5 c 128,-1,80
 732 403 732 403 725 480 c 128,-1,81
 718 557 718 557 692 643.5 c 128,-1,82
 666 730 666 730 625 797 c 0,83,84
 607 828 607 828 594.5 849 c 128,-1,85
 582 870 582 870 557 908 c 1,48,49
EndSplineSet
EndChar

StartChar: afii57398
Encoding: 1638 1638 420
Width: 1092
Flags: W
LayerCount: 2
Fore
SplineSet
870 1037 m 1,0,1
 832 1044 832 1044 776 1042 c 128,-1,2
 720 1040 720 1040 686 1030.5 c 128,-1,3
 652 1021 652 1021 614 1000 c 128,-1,4
 576 979 576 979 550 955.5 c 128,-1,5
 524 932 524 932 490 883 c 1,6,7
 516 856 516 856 532 842.5 c 128,-1,8
 548 829 548 829 576 815 c 0,9,10
 664 766 664 766 792 766 c 2,11,-1
 806 766 l 2,12,13
 853 768 853 768 883.5 773 c 128,-1,14
 914 778 914 778 966 792 c 1,15,-1
 883 562 l 1,16,17
 691 538 691 538 477.5 344.5 c 128,-1,18
 264 151 264 151 114 -103 c 1,19,20
 106 1 106 1 215.5 237.5 c 128,-1,21
 325 474 325 474 490 630 c 1,22,23
 410 679 410 679 381 732 c 128,-1,24
 352 785 352 785 352 844 c 0,25,26
 352 910 352 910 380 977.5 c 128,-1,27
 408 1045 408 1045 460 1106 c 0,28,29
 527 1181 527 1181 600 1212 c 0,30,31
 698 1259 698 1259 814 1259 c 0,32,33
 890 1259 890 1259 922 1242 c 0,34,35
 940 1232 940 1232 940 1210 c 0,36,37
 940 1198 940 1198 937 1190 c 2,38,-1
 870 1037 l 1,0,1
EndSplineSet
EndChar

StartChar: afii57399.001
Encoding: 1639 1639 421
Width: 1006
Flags: W
LayerCount: 2
Fore
SplineSet
847 1219 m 1,0,1
 876 1165 876 1165 904 1112 c 128,-1,2
 932 1059 932 1059 961 1006 c 1,3,4
 937 965 937 965 907.5 905 c 128,-1,5
 878 845 878 845 845 772.5 c 128,-1,6
 812 700 812 700 777.5 619 c 128,-1,7
 743 538 743 538 710 455 c 128,-1,8
 677 372 677 372 646 290.5 c 128,-1,9
 615 209 615 209 589 136.5 c 128,-1,10
 563 64 563 64 544 4 c 128,-1,11
 525 -56 525 -56 515 -96 c 1,12,13
 479 29 479 29 430.5 161.5 c 128,-1,14
 382 294 382 294 324.5 428.5 c 128,-1,15
 267 563 267 563 202 697.5 c 128,-1,16
 137 832 137 832 68 961 c 1,17,-1
 216 1219 l 1,18,19
 263 1109 263 1109 308.5 990.5 c 128,-1,20
 354 872 354 872 394.5 757 c 128,-1,21
 435 642 435 642 468 537.5 c 128,-1,22
 501 433 501 433 522 352 c 1,23,24
 585 562 585 562 669 780.5 c 128,-1,25
 753 999 753 999 847 1219 c 1,0,1
EndSplineSet
EndChar

StartChar: afii57400.001
Encoding: 1640 1640 422
Width: 1006
Flags: W
LayerCount: 2
Fore
SplineSet
847 -96 m 1,0,1
 753 124 753 124 669 342.5 c 128,-1,2
 585 561 585 561 522 772 c 1,3,4
 501 690 501 690 468 585.5 c 128,-1,5
 435 481 435 481 394.5 366 c 128,-1,6
 354 251 354 251 308.5 132.5 c 128,-1,7
 263 14 263 14 216 -96 c 1,8,-1
 68 162 l 1,9,10
 137 292 137 292 202 426.5 c 128,-1,11
 267 561 267 561 324.5 695.5 c 128,-1,12
 382 830 382 830 430.5 962 c 128,-1,13
 479 1094 479 1094 515 1219 c 1,14,15
 525 1179 525 1179 544 1119 c 128,-1,16
 563 1059 563 1059 589 986.5 c 128,-1,17
 615 914 615 914 646 833 c 128,-1,18
 677 752 677 752 710 669 c 128,-1,19
 743 586 743 586 777.5 504.5 c 128,-1,20
 812 423 812 423 845 351 c 128,-1,21
 878 279 878 279 907.5 218.5 c 128,-1,22
 937 158 937 158 961 118 c 1,23,24
 932 64 932 64 904 11 c 128,-1,25
 876 -42 876 -42 847 -96 c 1,0,1
EndSplineSet
EndChar

StartChar: afii57401.001
Encoding: 1641 1641 423
Width: 1022
Flags: W
LayerCount: 2
Fore
SplineSet
752 -103 m 1,0,1
 656 24 656 24 607 167 c 0,2,3
 548 336 548 336 541 504 c 1,4,-1
 342 504 l 2,5,6
 236 504 236 504 199 523 c 0,7,8
 125 563 125 563 125 668 c 0,9,10
 125 840 125 840 236 1044 c 0,11,12
 326 1212 326 1212 443 1212 c 0,13,14
 526 1212 526 1212 586.5 1128 c 128,-1,15
 647 1044 647 1044 659 910 c 2,16,-1
 678 701 l 2,17,18
 701 457 701 457 774 275 c 0,19,20
 806 194 806 194 860 108 c 1,21,-1
 752 -103 l 1,0,1
530 737 m 1,22,-1
 530 746 l 2,23,24
 530 1013 530 1013 425 1013 c 0,25,26
 376 1013 376 1013 329.5 931.5 c 128,-1,27
 283 850 283 850 283 793 c 0,28,29
 283 760 283 760 298.5 748.5 c 128,-1,30
 314 737 314 737 368 737 c 2,31,-1
 530 737 l 1,22,-1
EndSplineSet
EndChar

StartChar: guillemotleft
Encoding: 171 171 424
Width: 836
Flags: W
LayerCount: 2
Fore
SplineSet
442 616 m 1,0,1
 387 507 387 507 387 393 c 0,2,3
 387 255 387 255 518 82 c 1,4,-1
 518 83 l 1,5,6
 538 60 538 60 547.5 44 c 128,-1,7
 557 28 557 28 560 20 c 0,8,9
 560 -5 560 -5 534 -5 c 0,10,11
 528 -5 528 -5 513 1 c 0,12,13
 377 71 377 71 294 168 c 1,14,-1
 294 167 l 1,15,16
 202 276 202 276 202 396 c 0,17,18
 203 448 203 448 222.5 500 c 128,-1,19
 242 552 242 552 280 603 c 0,20,21
 307 640 307 640 344.5 676.5 c 128,-1,22
 382 713 382 713 426 745 c 0,23,24
 499 799 499 799 528 799 c 0,25,26
 563 799 563 799 563 775 c 0,27,28
 563 765 563 765 555 757 c 0,29,30
 528 730 528 730 509 708 c 128,-1,31
 490 686 490 686 477 668.5 c 128,-1,32
 464 651 464 651 455.5 638 c 128,-1,33
 447 625 447 625 441 615 c 2,34,-1
 442 616 l 1,0,1
721 616 m 1,35,36
 666 507 666 507 666 393 c 0,37,38
 666 255 666 255 797 82 c 1,39,-1
 797 83 l 1,40,41
 817 60 817 60 826.5 44 c 128,-1,42
 836 28 836 28 839 20 c 0,43,44
 839 -5 839 -5 813 -5 c 0,45,46
 806 -5 806 -5 793 1 c 0,47,48
 725 36 725 36 670 77 c 128,-1,49
 615 118 615 118 573 168 c 1,50,-1
 573 167 l 1,51,52
 481 276 481 276 481 396 c 0,53,54
 482 448 482 448 501.5 500 c 128,-1,55
 521 552 521 552 559 603 c 0,56,57
 586 640 586 640 623.5 676.5 c 128,-1,58
 661 713 661 713 705 745 c 0,59,60
 778 799 778 799 807 799 c 0,61,62
 842 799 842 799 842 775 c 0,63,64
 842 765 842 765 834 757 c 0,65,66
 807 730 807 730 788 708 c 128,-1,67
 769 686 769 686 756 668.5 c 128,-1,68
 743 651 743 651 734.5 638 c 128,-1,69
 726 625 726 625 720 615 c 2,70,-1
 721 616 l 1,35,36
EndSplineSet
EndChar

StartChar: guillemotright
Encoding: 187 187 425
Width: 836
Flags: W
LayerCount: 2
Fore
SplineSet
573 622 m 1,0,1
 561 641 561 641 537.5 674.5 c 128,-1,2
 514 708 514 708 460 762 c 0,3,4
 452 770 452 770 452 780 c 0,5,6
 452 804 452 804 487 804 c 0,7,8
 514 804 514 804 588 751 c 0,9,10
 631 719 631 719 668 683 c 128,-1,11
 705 647 705 647 732 610 c 0,12,13
 769 559 769 559 788.5 508 c 128,-1,14
 808 457 808 457 809 406 c 0,15,16
 809 287 809 287 718 179 c 1,17,-1
 718 180 l 1,18,19
 636 83 636 83 501 15 c 0,20,21
 487 9 487 9 481 9 c 0,22,23
 455 9 455 9 455 34 c 0,24,25
 458 42 458 42 467.5 57.5 c 128,-1,26
 477 73 477 73 497 96 c 1,27,-1
 497 95 l 1,28,29
 626 266 626 266 626 403 c 0,30,31
 626 515 626 515 572 623 c 1,32,-1
 573 622 l 1,0,1
297 622 m 1,33,34
 285 641 285 641 261.5 674.5 c 128,-1,35
 238 708 238 708 184 762 c 0,36,37
 176 770 176 770 176 780 c 0,38,39
 176 804 176 804 211 804 c 0,40,41
 238 804 238 804 312 751 c 0,42,43
 355 719 355 719 392 683 c 128,-1,44
 429 647 429 647 456 610 c 0,45,46
 493 559 493 559 512.5 508 c 128,-1,47
 532 457 532 457 533 406 c 0,48,49
 533 287 533 287 442 179 c 1,50,-1
 442 180 l 1,51,52
 360 83 360 83 225 15 c 0,53,54
 211 9 211 9 205 9 c 0,55,56
 179 9 179 9 179 34 c 0,57,58
 182 42 182 42 191.5 57.5 c 128,-1,59
 201 73 201 73 221 96 c 1,60,-1
 221 95 l 1,61,62
 350 266 350 266 350 403 c 0,63,64
 350 515 350 515 296 623 c 1,65,-1
 297 622 l 1,33,34
EndSplineSet
EndChar

StartChar: quoteleft
Encoding: 8216 8216 426
Width: 510
Flags: W
LayerCount: 2
Fore
SplineSet
166 1059 m 0,0,1
 167 1134 167 1134 218 1207.5 c 128,-1,2
 269 1281 269 1281 331 1311 c 1,3,-1
 367 1244 l 1,4,5
 348 1233 348 1233 323 1205.5 c 128,-1,6
 298 1178 298 1178 286 1134 c 1,7,8
 362 1101 362 1101 359 1038 c 0,9,10
 359 1019 359 1019 351.5 1002 c 128,-1,11
 344 985 344 985 331.5 972.5 c 128,-1,12
 319 960 319 960 302 952.5 c 128,-1,13
 285 945 285 945 266 945 c 0,14,15
 242 945 242 945 223.5 955 c 128,-1,16
 205 965 205 965 192.5 981 c 128,-1,17
 180 997 180 997 173 1017.5 c 128,-1,18
 166 1038 166 1038 166 1059 c 0,0,1
EndSplineSet
EndChar

StartChar: quoteright
Encoding: 8217 8217 427
Width: 505
Flags: W
LayerCount: 2
Fore
SplineSet
388 1197 m 0,0,1
 387 1122 387 1122 336 1048.5 c 128,-1,2
 285 975 285 975 221 945 c 1,3,-1
 185 1012 l 1,4,5
 204 1023 204 1023 229.5 1050.5 c 128,-1,6
 255 1078 255 1078 266 1122 c 1,7,8
 190 1155 190 1155 193 1218 c 0,9,10
 193 1237 193 1237 200.5 1253.5 c 128,-1,11
 208 1270 208 1270 221 1283 c 128,-1,12
 234 1296 234 1296 251 1303.5 c 128,-1,13
 268 1311 268 1311 287 1311 c 0,14,15
 311 1311 311 1311 329.5 1301 c 128,-1,16
 348 1291 348 1291 361 1275 c 128,-1,17
 374 1259 374 1259 381 1238.5 c 128,-1,18
 388 1218 388 1218 388 1197 c 0,0,1
EndSplineSet
EndChar

StartChar: afii57451
Encoding: 1611 1611 428
Width: 0
GlyphClass: 4
Flags: W
AnchorPoint: "Anchor-2" 0 0 mark 0
AnchorPoint: "Anchor-0" 0 0 mark 0
LayerCount: 2
Fore
SplineSet
214 253 m 1,0,1
 196 156 196 156 140 135 c 2,2,-1
 -249 1 l 1,3,4
 -239 55 -239 55 -217 79.5 c 128,-1,5
 -195 104 -195 104 -127 131 c 2,6,-1
 214 253 l 1,0,1
252 435 m 1,7,8
 234 337 234 337 179 317 c 2,9,-1
 -210 183 l 1,10,11
 -201 237 -201 237 -178.5 261.5 c 128,-1,12
 -156 286 -156 286 -88 312 c 2,13,-1
 252 435 l 1,7,8
EndSplineSet
EndChar

StartChar: afii57454
Encoding: 1614 1614 429
Width: 0
GlyphClass: 4
Flags: W
AnchorPoint: "Anchor-2" 0 0 mark 0
AnchorPoint: "Anchor-0" 0 0 mark 0
LayerCount: 2
Fore
SplineSet
252 255 m 1,0,1
 234 157 234 157 179 137 c 2,2,-1
 -210 3 l 1,3,4
 -201 57 -201 57 -178.5 81.5 c 128,-1,5
 -156 106 -156 106 -88 132 c 2,6,-1
 252 255 l 1,0,1
EndSplineSet
EndChar

StartChar: afii57455
Encoding: 1615 1615 430
Width: 0
GlyphClass: 4
Flags: W
AnchorPoint: "Anchor-2" 0 0 mark 0
AnchorPoint: "Anchor-0" 0 0 mark 0
LayerCount: 2
Fore
SplineSet
159 243 m 1,0,-1
 149 120 l 1,1,-1
 102 149 l 1,2,-1
 50 185 l 1,3,4
 -21 102 -21 102 -72 59 c 0,5,6
 -139 5 -139 5 -196 5 c 0,7,8
 -214 5 -214 5 -240 12 c 2,9,-1
 -270 21 l 1,10,11
 -188 65 -188 65 -140 99 c 0,12,13
 -99 126 -99 126 -4 214 c 1,14,15
 -48 248 -48 248 -64 272 c 128,-1,16
 -80 296 -80 296 -80 326 c 0,17,18
 -80 383 -80 383 -34 464 c 0,19,20
 -13 502 -13 502 12.5 519 c 128,-1,21
 38 536 38 536 65 536 c 0,22,23
 149 536 149 536 149 425 c 0,24,25
 149 395 149 395 140.5 362.5 c 128,-1,26
 132 330 132 330 111 280 c 1,27,-1
 159 243 l 1,0,-1
72 352 m 0,28,29
 72 381 72 381 52 405 c 128,-1,30
 32 429 32 429 5 429 c 0,31,32
 0 429 0 429 -9 422 c 0,33,34
 -14 417 -14 417 -16 404 c 0,35,36
 -16 380 -16 380 -2 363.5 c 128,-1,37
 12 347 12 347 65 311 c 1,38,39
 72 335 72 335 72 352 c 0,28,29
EndSplineSet
EndChar

StartChar: afii57452
Encoding: 1612 1612 431
Width: 0
GlyphClass: 4
Flags: W
AnchorPoint: "Anchor-2" 0 0 mark 0
AnchorPoint: "Anchor-0" 0 0 mark 0
LayerCount: 2
Fore
SplineSet
169 107 m 1,0,-1
 115 135 l 1,1,-1
 57 177 l 1,2,3
 -27 89 -27 89 -88 52 c 128,-1,4
 -149 15 -149 15 -231 2 c 1,5,6
 -215 37 -215 37 -205.5 58 c 128,-1,7
 -196 79 -196 79 -188 105 c 128,-1,8
 -180 131 -180 131 -180 157 c 0,9,10
 -180 181 -180 181 -197.5 202.5 c 128,-1,11
 -215 224 -215 224 -239 224 c 0,12,13
 -256 224 -256 224 -275 197.5 c 128,-1,14
 -294 171 -294 171 -298 132 c 1,15,-1
 -307 168 l 1,16,-1
 -310 194 l 1,17,18
 -310 249 -310 249 -281 288 c 128,-1,19
 -252 327 -252 327 -208 327 c 0,20,21
 -168 327 -168 327 -147.5 296 c 128,-1,22
 -127 265 -127 265 -127 206 c 1,23,-1
 -130 174 l 1,24,-1
 -135 96 l 1,25,26
 -88 115 -88 115 -62 134 c 128,-1,27
 -36 153 -36 153 14 204 c 1,28,29
 -31 235 -31 235 -49 260 c 0,30,31
 -65 288 -65 288 -65 318 c 0,32,33
 -65 381 -65 381 -17.5 437.5 c 128,-1,34
 30 494 30 494 81 494 c 0,35,36
 109 494 109 494 136 463.5 c 128,-1,37
 163 433 163 433 163 398 c 0,38,39
 163 361 163 361 150 327 c 2,40,-1
 123 261 l 1,41,42
 152 240 152 240 161 222.5 c 128,-1,43
 170 205 170 205 170 177 c 2,44,-1
 169 107 l 1,0,-1
79 350 m 2,45,46
 79 380 79 380 66 397 c 128,-1,47
 53 414 53 414 30 414 c 0,48,49
 17 414 17 414 8.5 406.5 c 128,-1,50
 0 399 0 399 -1 386 c 0,51,52
 -1 361 -1 361 30 335 c 2,53,-1
 74 303 l 1,54,-1
 78 326 l 1,55,-1
 79 350 l 2,45,46
EndSplineSet
EndChar

StartChar: afii57456
Encoding: 1616 1616 432
Width: 0
GlyphClass: 4
Flags: W
AnchorPoint: "Anchor-3" 0 0 mark 0
AnchorPoint: "Anchor-1" 0 0 mark 0
LayerCount: 2
Fore
SplineSet
252 255 m 1,0,1
 234 157 234 157 179 137 c 2,2,-1
 -210 3 l 1,3,4
 -201 57 -201 57 -178.5 81.5 c 128,-1,5
 -156 106 -156 106 -88 132 c 2,6,-1
 252 255 l 1,0,1
EndSplineSet
EndChar

StartChar: afii57457
Encoding: 1617 1617 433
Width: 0
GlyphClass: 4
Flags: W
AnchorPoint: "Anchor-2" 0 0 mark 0
AnchorPoint: "Anchor-0" 0 0 mark 0
LayerCount: 2
Fore
SplineSet
127 276 m 1,0,1
 204 184 204 184 204 113 c 0,2,3
 204 73 204 73 176 5 c 1,4,-1
 28 5 l 1,5,-1
 4 42 l 1,6,-1
 -36 5 l 1,7,8
 -174 5 -174 5 -200 17 c 0,9,10
 -252 46 -252 46 -252 114 c 0,11,12
 -252 181 -252 181 -206 254 c 1,13,14
 -215 200 -215 200 -215 181 c 0,15,16
 -215 95 -215 95 -114 95 c 2,17,-1
 -30 95 l 1,18,-1
 -108 211 l 1,19,-1
 -64 258 l 1,20,-1
 50 95 l 1,21,-1
 148 95 l 1,22,23
 134 168 134 168 74 224 c 1,24,-1
 127 276 l 1,0,1
EndSplineSet
EndChar

StartChar: afii57458
Encoding: 1618 1618 434
Width: 0
GlyphClass: 4
Flags: W
AnchorPoint: "Anchor-2" 0 0 mark 0
AnchorPoint: "Anchor-0" 0 0 mark 0
LayerCount: 2
Fore
SplineSet
182 178 m 0,0,1
 182 102 182 102 134 51 c 128,-1,2
 86 0 86 0 12 0 c 0,3,4
 -60 0 -60 0 -100.5 43.5 c 128,-1,5
 -141 87 -141 87 -141 158 c 0,6,7
 -141 195 -141 195 -131 228.5 c 128,-1,8
 -121 262 -121 262 -98 288 c 0,9,10
 -74 319 -74 319 -46.5 331 c 128,-1,11
 -19 343 -19 343 14 343 c 0,12,13
 87 343 87 343 134.5 297 c 128,-1,14
 182 251 182 251 182 178 c 0,0,1
110 160 m 0,15,16
 110 203 110 203 78 224.5 c 128,-1,17
 46 246 46 246 12 246 c 0,18,19
 -21 246 -21 246 -44.5 221.5 c 128,-1,20
 -68 197 -68 197 -68 166 c 0,21,22
 -68 95 -68 95 23 95 c 0,23,24
 38 95 38 95 53 102 c 128,-1,25
 68 109 68 109 81 116 c 0,26,27
 110 136 110 136 110 160 c 0,15,16
EndSplineSet
EndChar

StartChar: exclam
Encoding: 33 33 437
Width: 585
GlyphClass: 2
Flags: W
LayerCount: 2
Fore
SplineSet
261 1034 m 0,0,1
 261 1273 261 1273 382 1273 c 256,2,3
 503 1273 503 1273 503 1034 c 0,4,5
 503 976 503 976 462.5 726.5 c 128,-1,6
 422 477 422 477 420 285 c 1,7,-1
 345 285 l 1,8,9
 342 477 342 477 301.5 726.5 c 128,-1,10
 261 976 261 976 261 1034 c 0,0,1
273 107 m 0,11,12
 273 146 273 146 306.5 182 c 128,-1,13
 340 218 340 218 382 218 c 0,14,15
 426 218 426 218 458.5 184.5 c 128,-1,16
 491 151 491 151 491 107 c 256,17,18
 491 63 491 63 458.5 30.5 c 128,-1,19
 426 -2 426 -2 382 -2 c 256,20,21
 338 -2 338 -2 305.5 30.5 c 128,-1,22
 273 63 273 63 273 107 c 0,11,12
EndSplineSet
EndChar

StartChar: afii64060
Encoding: 64830 64830 438
Width: 451
GlyphClass: 2
Flags: W
LayerCount: 2
Fore
SplineSet
65 457 m 0,0,1
 65 768 65 768 271 1084 c 1,2,-1
 404 1084 l 1,3,4
 259 788 259 788 259 457 c 0,5,6
 259 280 259 280 292 124.5 c 128,-1,7
 325 -31 325 -31 397 -169 c 1,8,-1
 262 -169 l 1,9,10
 65 114 65 114 65 457 c 0,0,1
EndSplineSet
EndChar

StartChar: afii64061
Encoding: 64831 64831 439
Width: 454
GlyphClass: 2
Flags: W
LayerCount: 2
Fore
SplineSet
180 1084 m 1,0,1
 384 764 384 764 384 457 c 0,2,3
 384 107 384 107 187 -169 c 1,4,-1
 53 -169 l 1,5,6
 190 100 190 100 190 457 c 0,7,8
 190 781 190 781 47 1084 c 1,9,-1
 180 1084 l 1,0,1
EndSplineSet
EndChar

StartChar: afii62821
Encoding: 65252 65252 440
Width: 866
GlyphClass: 2
Flags: W
AnchorPoint: "Anchor-3" 270 -585 basechar 0
AnchorPoint: "Anchor-2" 375 885 basechar 0
LayerCount: 2
Fore
SplineSet
886 232 m 1,0,-1
 886 0 l 1,1,-1
 707 0 l 1,2,3
 688 -34 688 -34 664 -78 c 2,4,-1
 653 -97 l 1,5,-1
 178 107 l 1,6,-1
 109 0 l 1,7,-1
 -7 0 l 1,8,-1
 -7 232 l 1,9,-1
 126 232 l 1,10,-1
 271 422 l 2,11,12
 367 551 367 551 415 594 c 0,13,14
 469 647 469 647 533 647 c 0,15,16
 631 647 631 647 718 497 c 128,-1,17
 805 347 805 347 805 232 c 1,18,-1
 886 232 l 1,0,-1
655 149 m 1,19,20
 680 265 680 265 596 380 c 1,21,22
 540 439 540 439 496 439 c 0,23,24
 440 439 440 439 313 295 c 1,25,-1
 316 294 l 1,26,-1
 655 149 l 1,19,20
EndSplineSet
EndChar

StartChar: uni25CC
Encoding: 9676 9676 441
Width: 911
Flags: W
AnchorPoint: "Anchor-3" 435 -450 basechar 0
AnchorPoint: "Anchor-2" 465 975 basechar 0
LayerCount: 2
Fore
SplineSet
771 629 m 256,0,1
 771 592 771 592 734 592 c 0,2,3
 695 592 695 592 695 629 c 256,4,5
 695 666 695 666 734 666 c 0,6,7
 771 666 771 666 771 629 c 256,0,1
658 703 m 0,8,9
 658 666 658 666 621 666 c 0,10,11
 582 666 582 666 582 703 c 0,12,13
 582 742 582 742 621 742 c 0,14,15
 658 742 658 742 658 703 c 0,8,9
847 516 m 0,16,17
 847 477 847 477 808 477 c 0,18,19
 771 477 771 477 771 516 c 0,20,21
 771 553 771 553 810 553 c 0,22,23
 847 553 847 553 847 516 c 0,16,17
873 384 m 256,24,25
 873 347 873 347 836 347 c 0,26,27
 797 347 797 347 797 384 c 256,28,29
 797 421 797 421 836 421 c 0,30,31
 873 421 873 421 873 384 c 256,24,25
525 731 m 0,32,33
 525 692 525 692 488 692 c 256,34,35
 451 692 451 692 451 731 c 0,36,37
 451 768 451 768 488 768 c 256,38,39
 525 768 525 768 525 731 c 0,32,33
847 251 m 0,40,41
 847 214 847 214 808 214 c 0,42,43
 771 214 771 214 771 251 c 0,44,45
 771 290 771 290 808 290 c 0,46,47
 847 290 847 290 847 251 c 0,40,41
394 703 m 0,48,49
 394 666 394 666 356 666 c 0,50,51
 319 666 319 666 319 703 c 0,52,53
 319 742 319 742 356 742 c 0,54,55
 394 742 394 742 394 703 c 0,48,49
282 629 m 256,56,57
 282 592 282 592 243 592 c 0,58,59
 206 592 206 592 206 627 c 0,60,61
 206 666 206 666 243 666 c 0,62,63
 282 666 282 666 282 629 c 256,56,57
771 138 m 0,64,65
 771 101 771 101 734 101 c 256,66,67
 697 101 697 101 697 138 c 0,68,69
 697 177 697 177 734 177 c 256,70,71
 771 177 771 177 771 138 c 0,64,65
658 64 m 0,72,73
 658 27 658 27 621 27 c 256,74,75
 584 27 584 27 584 64 c 0,76,77
 584 103 584 103 621 103 c 256,78,79
 658 103 658 103 658 64 c 0,72,73
206 516 m 0,80,81
 206 477 206 477 171 477 c 0,82,83
 132 477 132 477 132 516 c 0,84,85
 132 553 132 553 169 553 c 256,86,87
 206 553 206 553 206 516 c 0,80,81
180 384 m 256,88,89
 180 347 180 347 143 347 c 0,90,91
 104 347 104 347 104 384 c 256,92,93
 104 421 104 421 143 421 c 0,94,95
 180 421 180 421 180 384 c 256,88,89
525 38 m 0,96,97
 525 -1 525 -1 488 -1 c 256,98,99
 451 -1 451 -1 451 38 c 0,100,101
 451 75 451 75 488 75 c 256,102,103
 525 75 525 75 525 38 c 0,96,97
394 66 m 0,104,105
 394 27 394 27 356 27 c 0,106,107
 319 27 319 27 319 64 c 0,108,109
 319 103 319 103 356 103 c 0,110,111
 394 103 394 103 394 66 c 0,104,105
206 251 m 0,112,113
 206 214 206 214 169 214 c 256,114,115
 132 214 132 214 132 251 c 0,116,117
 132 290 132 290 169 290 c 256,118,119
 206 290 206 290 206 251 c 0,112,113
282 138 m 0,120,121
 282 101 282 101 245 101 c 0,122,123
 206 101 206 101 206 138 c 0,124,125
 206 177 206 177 243 177 c 0,126,127
 282 177 282 177 282 138 c 0,120,121
EndSplineSet
EndChar

StartChar: afii62819
Encoding: 65246 65246 442
Width: 1166
GlyphClass: 2
Flags: W
AnchorPoint: "Anchor-3" 525 -930 basechar 0
AnchorPoint: "Anchor-2" 780 1395 basechar 0
LayerCount: 2
Fore
SplineSet
1186 0 m 1,0,-1
 1015 0 l 1,1,2
 990 -137 990 -137 936 -283 c 1,3,4
 709 -448 709 -448 496 -463 c 1,5,-1
 478 -463 l 2,6,7
 323 -463 323 -463 225 -363 c 128,-1,8
 127 -263 127 -263 116 -83 c 0,9,10
 114 -25 114 -25 123.5 33 c 128,-1,11
 133 91 133 91 149.5 143.5 c 128,-1,12
 166 196 166 196 187 240.5 c 128,-1,13
 208 285 208 285 229 317 c 0,14,15
 246 336 246 336 254 335 c 128,-1,16
 262 334 262 334 257 317 c 0,17,18
 215 202 215 202 209.5 101.5 c 128,-1,19
 204 1 204 1 233 -74.5 c 128,-1,20
 262 -150 262 -150 324 -194.5 c 128,-1,21
 386 -239 386 -239 481 -242 c 1,22,23
 676 -236 676 -236 870 -71 c 1,24,25
 810 1118 810 1118 821 1133 c 2,26,-1
 997 1325 l 1,27,-1
 1036 232 l 1,28,-1
 1186 232 l 1,29,-1
 1186 0 l 1,0,-1
EndSplineSet
EndChar

StartChar: braceright
Encoding: 125 125 445
Width: 672
GlyphClass: 2
Flags: W
LayerCount: 2
Fore
SplineSet
273 224 m 2,0,1
 273 277 273 277 282 314 c 128,-1,2
 291 351 291 351 314 376.5 c 128,-1,3
 337 402 337 402 376 418 c 128,-1,4
 415 434 415 434 474 447 c 1,5,6
 414 460 414 460 375 476 c 128,-1,7
 336 492 336 492 313.5 517 c 128,-1,8
 291 542 291 542 282 578.5 c 128,-1,9
 273 615 273 615 273 669 c 2,10,-1
 273 960 l 2,11,12
 273 1008 273 1008 264 1043 c 128,-1,13
 255 1078 255 1078 233.5 1103 c 128,-1,14
 212 1128 212 1128 177 1143.5 c 128,-1,15
 142 1159 142 1159 92 1170 c 1,16,-1
 92 1191 l 1,17,18
 150 1190 150 1190 192.5 1187.5 c 128,-1,19
 235 1185 235 1185 267 1179 c 128,-1,20
 299 1173 299 1173 322.5 1163.5 c 128,-1,21
 346 1154 346 1154 367 1141 c 0,22,23
 453 1088 453 1088 453 951 c 2,24,-1
 453 645 l 2,25,26
 453 600 453 600 460.5 568.5 c 128,-1,27
 468 537 468 537 489 514.5 c 128,-1,28
 510 492 510 492 545 476.5 c 128,-1,29
 580 461 580 461 635 447 c 1,30,31
 580 433 580 433 545 418 c 128,-1,32
 510 403 510 403 489 380.5 c 128,-1,33
 468 358 468 358 460.5 326 c 128,-1,34
 453 294 453 294 453 249 c 2,35,-1
 453 -57 l 2,36,37
 453 -196 453 -196 367 -249 c 0,38,39
 346 -263 346 -263 322 -272 c 128,-1,40
 298 -281 298 -281 266 -286.5 c 128,-1,41
 234 -292 234 -292 191.5 -295 c 128,-1,42
 149 -298 149 -298 92 -298 c 1,43,-1
 92 -278 l 1,44,45
 143 -268 143 -268 178 -251.5 c 128,-1,46
 213 -235 213 -235 234 -210 c 128,-1,47
 255 -185 255 -185 264 -150.5 c 128,-1,48
 273 -116 273 -116 273 -67 c 2,49,-1
 273 224 l 2,0,1
EndSplineSet
EndChar

StartChar: uni0656
Encoding: 1622 1622 452
Width: 0
GlyphClass: 4
Flags: W
AnchorPoint: "Anchor-3" 0 0 mark 0
AnchorPoint: "Anchor-1" 0 0 mark 0
LayerCount: 2
Fore
SplineSet
79 176 m 0,0,1
 79 114 79 114 -27 4 c 1,2,3
 -15 120 -15 120 -15 160 c 0,4,5
 -15 176 -15 176 -54 362 c 1,6,-1
 31 436 l 1,7,8
 79 255 79 255 79 176 c 0,0,1
EndSplineSet
EndChar

StartChar: E005
Encoding: 65578 -1 470
Width: 476
GlyphClass: 3
Flags: W
LayerCount: 2
Fore
SplineSet
-43 0 m 1,0,-1
 -43 207 l 1,1,-1
 581 207 l 1,2,-1
 581 0 l 1,3,-1
 -43 0 l 1,0,-1
EndSplineSet
EndChar

StartChar: afii57470
Encoding: 1726 1726 480
Width: 1002
Flags: W
AnchorPoint: "Anchor-3" 495 -615 basechar 0
AnchorPoint: "Anchor-2" 435 1140 basechar 0
LayerCount: 2
Fore
SplineSet
431 868 m 1,0,1
 974 504 974 504 974 340 c 0,2,3
 974 302 974 302 932 204 c 2,4,-1
 913 157 l 1,5,-1
 852 0 l 1,6,-1
 -16 0 l 1,7,-1
 -16 232 l 1,8,-1
 132 232 l 1,9,10
 119 277 119 277 119 312 c 0,11,12
 119 476 119 476 252 593 c 0,13,14
 289 624 289 624 338 656 c 1,15,16
 308 676 308 676 308 701 c 0,17,18
 308 725 308 725 358 781 c 2,19,-1
 431 868 l 1,0,1
829 232 m 1,20,21
 817 298 817 298 785 349 c 0,22,23
 738 422 738 422 630 502 c 1,24,25
 632 484 632 484 632 467 c 0,26,27
 632 344 632 344 576 232 c 1,28,-1
 829 232 l 1,20,21
498 232 m 1,29,30
 512 286 512 286 512 324 c 0,31,32
 512 499 512 499 379 499 c 0,33,34
 325 499 325 499 286 454.5 c 128,-1,35
 247 410 247 410 247 354 c 0,36,37
 247 288 247 288 301 253 c 0,38,39
 328 232 328 232 426 232 c 2,40,-1
 498 232 l 1,29,30
EndSplineSet
Substitution2: "'medi' Medial Forms in Arabic lookup 3 subtable" afii62827
Substitution2: "'fina' Terminal Forms in Arabic lookup 2 subtable" afii62827
Substitution2: "'init' Initial Forms in Arabic lookup 1 subtable" afii57470
EndChar

StartChar: at
Encoding: 64 64 489
Width: 1587
Flags: W
LayerCount: 2
Fore
SplineSet
1034 863 m 1,0,-1
 1154 863 l 1,1,-1
 1042 419 l 2,2,3
 1041 414 1041 414 1040 405.5 c 128,-1,4
 1039 397 1039 397 1039 389 c 0,5,6
 1039 308 1039 308 1103 308 c 0,7,8
 1146 308 1146 308 1185.5 337 c 128,-1,9
 1225 366 1225 366 1255.5 414.5 c 128,-1,10
 1286 463 1286 463 1304 526 c 128,-1,11
 1322 589 1322 589 1322 657 c 0,12,13
 1322 749 1322 749 1282.5 831.5 c 128,-1,14
 1243 914 1243 914 1175.5 976.5 c 128,-1,15
 1108 1039 1108 1039 1018.5 1075.5 c 128,-1,16
 929 1112 929 1112 829 1112 c 0,17,18
 723 1112 723 1112 633.5 1070.5 c 128,-1,19
 544 1029 544 1029 479 955 c 128,-1,20
 414 881 414 881 377.5 778.5 c 128,-1,21
 341 676 341 676 341 555 c 0,22,23
 341 443 341 443 378.5 350 c 128,-1,24
 416 257 416 257 484 189.5 c 128,-1,25
 552 122 552 122 646 84 c 128,-1,26
 740 46 740 46 852 46 c 0,27,28
 894 46 894 46 933 50.5 c 128,-1,29
 972 55 972 55 1012 64.5 c 128,-1,30
 1052 74 1052 74 1095.5 90.5 c 128,-1,31
 1139 107 1139 107 1191 130 c 1,32,-1
 1213 70 l 1,33,34
 1151 40 1151 40 1101.5 20.5 c 128,-1,35
 1052 1 1052 1 1007 -11 c 128,-1,36
 962 -23 962 -23 920 -27.5 c 128,-1,37
 878 -32 878 -32 830 -32 c 0,38,39
 694 -32 694 -32 576.5 14 c 128,-1,40
 459 60 459 60 371.5 140 c 128,-1,41
 284 220 284 220 234 329 c 128,-1,42
 184 438 184 438 184 563 c 0,43,44
 184 692 184 692 234 804 c 128,-1,45
 284 916 284 916 371.5 999.5 c 128,-1,46
 459 1083 459 1083 576 1131 c 128,-1,47
 693 1179 693 1179 827 1179 c 0,48,49
 949 1179 949 1179 1054 1139.5 c 128,-1,50
 1159 1100 1159 1100 1236.5 1030.5 c 128,-1,51
 1314 961 1314 961 1358 867.5 c 128,-1,52
 1402 774 1402 774 1402 665 c 0,53,54
 1402 580 1402 580 1376 503.5 c 128,-1,55
 1350 427 1350 427 1306 369.5 c 128,-1,56
 1262 312 1262 312 1203.5 278 c 128,-1,57
 1145 244 1145 244 1080 244 c 256,58,59
 1015 244 1015 244 971.5 279 c 128,-1,60
 928 314 928 314 919 371 c 1,61,62
 874 313 874 313 817 279.5 c 128,-1,63
 760 246 760 246 705 246 c 0,64,65
 670 246 670 246 641 260.5 c 128,-1,66
 612 275 612 275 590 301.5 c 128,-1,67
 568 328 568 328 556 364 c 128,-1,68
 544 400 544 400 544 441 c 0,69,70
 544 489 544 489 553.5 537 c 128,-1,71
 563 585 563 585 582 631 c 128,-1,72
 601 677 601 677 627.5 719 c 128,-1,73
 654 761 654 761 687 797 c 0,74,75
 728 839 728 839 781 862.5 c 128,-1,76
 834 886 834 886 891 886 c 0,77,78
 914 886 914 886 931.5 882 c 128,-1,79
 949 878 949 878 962.5 867.5 c 128,-1,80
 976 857 976 857 989 839.5 c 128,-1,81
 1002 822 1002 822 1015 795 c 1,82,-1
 1034 863 l 1,0,-1
913 804 m 0,83,84
 880 807 880 807 840.5 783 c 128,-1,85
 801 759 801 759 764 716 c 0,86,87
 720 667 720 667 697.5 604.5 c 128,-1,88
 675 542 675 542 675 472 c 0,89,90
 675 405 675 405 702 365 c 128,-1,91
 729 325 729 325 776 325 c 0,92,93
 814 325 814 325 851 355.5 c 128,-1,94
 888 386 888 386 916 441 c 0,95,96
 930 467 930 467 942 499 c 128,-1,97
 954 531 954 531 963 564.5 c 128,-1,98
 972 598 972 598 977.5 630.5 c 128,-1,99
 983 663 983 663 985 692 c 0,100,101
 987 742 987 742 969 772 c 128,-1,102
 951 802 951 802 913 804 c 0,83,84
EndSplineSet
EndChar

StartChar: A
Encoding: 65 65 490
Width: 1232
Flags: W
LayerCount: 2
Fore
SplineSet
1175 0 m 1,0,-1
 623 0 l 1,1,-1
 623 42 l 1,2,3
 641 45 641 45 656 46 c 128,-1,4
 671 47 671 47 677 47 c 0,5,6
 722 50 722 50 740.5 63.5 c 128,-1,7
 759 77 759 77 759 104 c 0,8,9
 759 118 759 118 755 137.5 c 128,-1,10
 751 157 751 157 741.5 184.5 c 128,-1,11
 732 212 732 212 717 249 c 128,-1,12
 702 286 702 286 680 336 c 1,13,-1
 297 336 l 1,14,-1
 271 269 l 2,15,16
 258 235 258 235 248.5 209 c 128,-1,17
 239 183 239 183 233 164.5 c 128,-1,18
 227 146 227 146 224 134 c 128,-1,19
 221 122 221 122 221 113 c 0,20,21
 221 79 221 79 253 63 c 128,-1,22
 285 47 285 47 362 42 c 1,23,-1
 362 0 l 1,24,-1
 15 0 l 1,25,-1
 15 42 l 1,26,27
 45 48 45 48 66 58 c 128,-1,28
 87 68 87 68 104.5 89 c 128,-1,29
 122 110 122 110 140 146 c 128,-1,30
 158 182 158 182 182 242 c 2,31,-1
 562 1177 l 1,32,-1
 609 1177 l 1,33,-1
 990 280 l 2,34,35
 1021 205 1021 205 1043.5 158 c 128,-1,36
 1066 111 1066 111 1085.5 85.5 c 128,-1,37
 1105 60 1105 60 1124.5 51 c 128,-1,38
 1144 42 1144 42 1169 42 c 2,39,-1
 1175 42 l 1,40,-1
 1175 0 l 1,0,-1
655 403 m 1,41,-1
 483 817 l 1,42,-1
 322 403 l 1,43,-1
 655 403 l 1,41,-1
EndSplineSet
EndChar

StartChar: B
Encoding: 66 66 491
Width: 1138
Flags: W
LayerCount: 2
Fore
SplineSet
555 1152 m 2,0,1
 768 1152 768 1152 883 1082 c 128,-1,2
 998 1012 998 1012 998 880 c 0,3,4
 998 831 998 831 983 793.5 c 128,-1,5
 968 756 968 756 936 725 c 128,-1,6
 904 694 904 694 852.5 669.5 c 128,-1,7
 801 645 801 645 726 623 c 1,8,9
 771 613 771 613 805.5 603 c 128,-1,10
 840 593 840 593 867.5 581 c 128,-1,11
 895 569 895 569 918 554 c 128,-1,12
 941 539 941 539 963 520 c 0,13,14
 1009 480 1009 480 1032.5 429 c 128,-1,15
 1056 378 1056 378 1056 320 c 0,16,17
 1056 248 1056 248 1022 189 c 128,-1,18
 988 130 988 130 924.5 88 c 128,-1,19
 861 46 861 46 772.5 23 c 128,-1,20
 684 0 684 0 576 0 c 2,21,-1
 27 0 l 1,22,-1
 27 42 l 1,23,24
 74 48 74 48 103 55.5 c 128,-1,25
 132 63 132 63 149 76 c 128,-1,26
 166 89 166 89 171.5 110 c 128,-1,27
 177 131 177 131 177 164 c 2,28,-1
 177 990 l 2,29,30
 177 1022 177 1022 170.5 1044 c 128,-1,31
 164 1066 164 1066 146.5 1080 c 128,-1,32
 129 1094 129 1094 100.5 1100.5 c 128,-1,33
 72 1107 72 1107 27 1110 c 1,34,-1
 27 1152 l 1,35,-1
 555 1152 l 2,0,1
451 158 m 2,36,37
 451 102 451 102 474.5 78.5 c 128,-1,38
 498 55 498 55 555 55 c 0,39,40
 762 55 762 55 762 306 c 0,41,42
 762 585 762 585 502 585 c 2,43,-1
 451 585 l 1,44,-1
 451 158 l 2,36,37
451 636 m 1,45,46
 529 638 529 638 580.5 649.5 c 128,-1,47
 632 661 632 661 662 687 c 128,-1,48
 692 713 692 713 704 757 c 128,-1,49
 716 801 716 801 716 868 c 0,50,51
 716 990 716 990 674.5 1046 c 128,-1,52
 633 1102 633 1102 542 1102 c 0,53,54
 492 1102 492 1102 471.5 1083.5 c 128,-1,55
 451 1065 451 1065 451 1019 c 2,56,-1
 451 636 l 1,45,46
EndSplineSet
EndChar

StartChar: C
Encoding: 67 67 492
Width: 1232
Flags: W
LayerCount: 2
Fore
SplineSet
1172 217 m 1,0,1
 1144 184 1144 184 1121.5 161 c 128,-1,2
 1099 138 1099 138 1079 120 c 128,-1,3
 1059 102 1059 102 1041 87.5 c 128,-1,4
 1023 73 1023 73 1003 60 c 0,5,6
 932 13 932 13 855.5 -9.5 c 128,-1,7
 779 -32 779 -32 687 -32 c 0,8,9
 555 -32 555 -32 444 12.5 c 128,-1,10
 333 57 333 57 252.5 136.5 c 128,-1,11
 172 216 172 216 127.5 326 c 128,-1,12
 83 436 83 436 83 568 c 0,13,14
 83 699 83 699 128 810.5 c 128,-1,15
 173 922 173 922 252.5 1004 c 128,-1,16
 332 1086 332 1086 441 1132.5 c 128,-1,17
 550 1179 550 1179 677 1179 c 0,18,19
 739 1179 739 1179 802 1165 c 128,-1,20
 865 1151 865 1151 941 1119 c 0,21,22
 970 1106 970 1106 989 1101 c 128,-1,23
 1008 1096 1008 1096 1020 1096 c 0,24,25
 1045 1096 1045 1096 1061 1112 c 128,-1,26
 1077 1128 1077 1128 1096 1174 c 1,27,-1
 1141 1174 l 1,28,-1
 1141 774 l 1,29,-1
 1099 774 l 1,30,31
 1076 822 1076 822 1056.5 858.5 c 128,-1,32
 1037 895 1037 895 1017.5 924.5 c 128,-1,33
 998 954 998 954 976 978 c 128,-1,34
 954 1002 954 1002 926 1027 c 0,35,36
 870 1076 870 1076 815 1099.5 c 128,-1,37
 760 1123 760 1123 700 1123 c 0,38,39
 545 1123 545 1123 465.5 985.5 c 128,-1,40
 386 848 386 848 386 581 c 0,41,42
 386 453 386 453 403.5 359.5 c 128,-1,43
 421 266 421 266 459 198 c 0,44,45
 477 165 477 165 505.5 137.5 c 128,-1,46
 534 110 534 110 569.5 90.5 c 128,-1,47
 605 71 605 71 645.5 60 c 128,-1,48
 686 49 686 49 728 49 c 0,49,50
 764 49 764 49 804.5 57 c 128,-1,51
 845 65 845 65 882 80 c 0,52,53
 913 92 913 92 940 107 c 128,-1,54
 967 122 967 122 994.5 142.5 c 128,-1,55
 1022 163 1022 163 1052.5 191 c 128,-1,56
 1083 219 1083 219 1121 259 c 1,57,-1
 1172 217 l 1,0,1
EndSplineSet
EndChar

StartChar: D
Encoding: 68 68 493
Width: 1232
Flags: W
LayerCount: 2
Fore
SplineSet
166 997 m 2,0,1
 166 1026 166 1026 159 1045.5 c 128,-1,2
 152 1065 152 1065 136 1078.5 c 128,-1,3
 120 1092 120 1092 93 1099 c 128,-1,4
 66 1106 66 1106 24 1110 c 1,5,-1
 24 1152 l 1,6,-1
 544 1152 l 2,7,8
 692 1152 692 1152 809 1113.5 c 128,-1,9
 926 1075 926 1075 1008 1002 c 128,-1,10
 1090 929 1090 929 1133.5 824.5 c 128,-1,11
 1177 720 1177 720 1177 589 c 0,12,13
 1177 457 1177 457 1133 348 c 128,-1,14
 1089 239 1089 239 1008 162 c 128,-1,15
 927 85 927 85 814.5 42.5 c 128,-1,16
 702 0 702 0 563 0 c 2,17,-1
 24 0 l 1,18,-1
 24 42 l 1,19,20
 98 45 98 45 132 72 c 128,-1,21
 166 99 166 99 166 155 c 2,22,-1
 166 997 l 2,0,1
441 158 m 2,23,24
 441 129 441 129 446 110 c 128,-1,25
 451 91 451 91 462 80 c 128,-1,26
 473 69 473 69 492.5 64.5 c 128,-1,27
 512 60 512 60 541 60 c 0,28,29
 706 60 706 60 791 177 c 0,30,31
 811 206 811 206 828 247 c 128,-1,32
 845 288 845 288 856.5 338 c 128,-1,33
 868 388 868 388 874 445.5 c 128,-1,34
 880 503 880 503 880 563 c 0,35,36
 880 671 880 671 862.5 762 c 128,-1,37
 845 853 845 853 810 921 c 0,38,39
 766 1010 766 1010 700.5 1053 c 128,-1,40
 635 1096 635 1096 542 1096 c 0,41,42
 441 1096 441 1096 441 1036 c 2,43,-1
 441 158 l 2,23,24
EndSplineSet
EndChar

StartChar: E
Encoding: 69 69 494
Width: 1138
Flags: W
LayerCount: 2
Fore
SplineSet
1011 810 m 1,0,-1
 969 810 l 1,1,2
 953 896 953 896 927 950.5 c 128,-1,3
 901 1005 901 1005 855 1037.5 c 128,-1,4
 809 1070 809 1070 738.5 1083 c 128,-1,5
 668 1096 668 1096 564 1096 c 0,6,7
 531 1096 531 1096 509.5 1092.5 c 128,-1,8
 488 1089 488 1089 476 1080 c 128,-1,9
 464 1071 464 1071 459 1055.5 c 128,-1,10
 454 1040 454 1040 454 1015 c 2,11,-1
 454 619 l 1,12,13
 522 618 522 618 570.5 630.5 c 128,-1,14
 619 643 619 643 651.5 673 c 128,-1,15
 684 703 684 703 702 752 c 128,-1,16
 720 801 720 801 730 874 c 1,17,-1
 774 874 l 1,18,-1
 774 297 l 1,19,-1
 730 297 l 1,20,21
 722 371 722 371 704 421.5 c 128,-1,22
 686 472 686 472 653.5 503 c 128,-1,23
 621 534 621 534 572 548 c 128,-1,24
 523 562 523 562 454 562 c 1,25,-1
 454 148 l 2,26,27
 454 121 454 121 460.5 102.5 c 128,-1,28
 467 84 467 84 483.5 73 c 128,-1,29
 500 62 500 62 527.5 57.5 c 128,-1,30
 555 53 555 53 596 53 c 0,31,32
 693 53 693 53 765.5 74.5 c 128,-1,33
 838 96 838 96 897 143 c 0,34,35
 920 162 920 162 938.5 181 c 128,-1,36
 957 200 957 200 974.5 224.5 c 128,-1,37
 992 249 992 249 1009 280.5 c 128,-1,38
 1026 312 1026 312 1046 355 c 1,39,-1
 1094 355 l 1,40,-1
 1025 0 l 1,41,-1
 27 0 l 1,42,-1
 27 42 l 1,43,44
 74 48 74 48 103.5 55 c 128,-1,45
 133 62 133 62 149.5 75 c 128,-1,46
 166 88 166 88 171.5 109 c 128,-1,47
 177 130 177 130 177 164 c 2,48,-1
 177 990 l 2,49,50
 177 1022 177 1022 170.5 1044 c 128,-1,51
 164 1066 164 1066 146.5 1080 c 128,-1,52
 129 1094 129 1094 100.5 1100.5 c 128,-1,53
 72 1107 72 1107 27 1110 c 1,54,-1
 27 1152 l 1,55,-1
 1011 1152 l 1,56,-1
 1011 810 l 1,0,-1
EndSplineSet
EndChar

StartChar: F
Encoding: 70 70 495
Width: 1042
Flags: W
LayerCount: 2
Fore
SplineSet
995 810 m 1,0,-1
 954 810 l 1,1,2
 945 851 945 851 936.5 880.5 c 128,-1,3
 928 910 928 910 918.5 932.5 c 128,-1,4
 909 955 909 955 898.5 972.5 c 128,-1,5
 888 990 888 990 874 1006 c 0,6,7
 833 1052 833 1052 757 1074 c 128,-1,8
 681 1096 681 1096 563 1096 c 0,9,10
 530 1096 530 1096 509 1092 c 128,-1,11
 488 1088 488 1088 476 1079 c 128,-1,12
 464 1070 464 1070 459 1054.5 c 128,-1,13
 454 1039 454 1039 454 1015 c 2,14,-1
 454 619 l 1,15,16
 517 619 517 619 562 631.5 c 128,-1,17
 607 644 607 644 636.5 673.5 c 128,-1,18
 666 703 666 703 684.5 752 c 128,-1,19
 703 801 703 801 714 874 c 1,20,-1
 758 874 l 1,21,-1
 758 297 l 1,22,-1
 714 297 l 1,23,24
 706 371 706 371 688.5 421 c 128,-1,25
 671 471 671 471 641 502 c 128,-1,26
 611 533 611 533 565 546.5 c 128,-1,27
 519 560 519 560 454 562 c 1,28,-1
 454 164 l 2,29,30
 454 128 454 128 461 105.5 c 128,-1,31
 468 83 468 83 489 70 c 128,-1,32
 510 57 510 57 546 51 c 128,-1,33
 582 45 582 45 641 42 c 1,34,-1
 641 0 l 1,35,-1
 27 0 l 1,36,-1
 27 42 l 1,37,38
 74 48 74 48 103.5 55 c 128,-1,39
 133 62 133 62 149.5 75 c 128,-1,40
 166 88 166 88 171.5 109 c 128,-1,41
 177 130 177 130 177 164 c 2,42,-1
 177 990 l 2,43,44
 177 1023 177 1023 170.5 1045 c 128,-1,45
 164 1067 164 1067 146.5 1081 c 128,-1,46
 129 1095 129 1095 100.5 1101 c 128,-1,47
 72 1107 72 1107 27 1110 c 1,48,-1
 27 1152 l 1,49,-1
 995 1152 l 1,50,-1
 995 810 l 1,0,-1
EndSplineSet
EndChar

StartChar: G
Encoding: 71 71 496
Width: 1327
Flags: W
LayerCount: 2
Fore
SplineSet
1288 447 m 1,0,1
 1240 442 1240 442 1211 434 c 128,-1,2
 1182 426 1182 426 1166.5 409.5 c 128,-1,3
 1151 393 1151 393 1146 364.5 c 128,-1,4
 1141 336 1141 336 1141 290 c 2,5,-1
 1141 73 l 1,6,7
 1100 49 1100 49 1046.5 29.5 c 128,-1,8
 993 10 993 10 931 -4 c 128,-1,9
 869 -18 869 -18 802.5 -25 c 128,-1,10
 736 -32 736 -32 670 -32 c 0,11,12
 536 -32 536 -32 424.5 12 c 128,-1,13
 313 56 313 56 233 135 c 128,-1,14
 153 214 153 214 108.5 323.5 c 128,-1,15
 64 433 64 433 64 564 c 0,16,17
 64 697 64 697 109 809 c 128,-1,18
 154 921 154 921 233.5 1003.5 c 128,-1,19
 313 1086 313 1086 421 1132.5 c 128,-1,20
 529 1179 529 1179 657 1179 c 0,21,22
 718 1179 718 1179 781.5 1165 c 128,-1,23
 845 1151 845 1151 921 1119 c 0,24,25
 950 1106 950 1106 969.5 1101 c 128,-1,26
 989 1096 989 1096 1000 1096 c 0,27,28
 1024 1096 1024 1096 1040.5 1112 c 128,-1,29
 1057 1128 1057 1128 1074 1174 c 1,30,-1
 1121 1174 l 1,31,-1
 1121 774 l 1,32,-1
 1078 774 l 1,33,34
 1055 822 1055 822 1036 859 c 128,-1,35
 1017 896 1017 896 997.5 925.5 c 128,-1,36
 978 955 978 955 955.5 979 c 128,-1,37
 933 1003 933 1003 906 1027 c 0,38,39
 849 1076 849 1076 793.5 1099.5 c 128,-1,40
 738 1123 738 1123 679 1123 c 0,41,42
 523 1123 523 1123 444 984.5 c 128,-1,43
 365 846 365 846 365 576 c 0,44,45
 365 270 365 270 475 130 c 0,46,47
 518 74 518 74 574 49 c 128,-1,48
 630 24 630 24 711 24 c 0,49,50
 798 24 798 24 836.5 53.5 c 128,-1,51
 875 83 875 83 875 148 c 2,52,-1
 875 327 l 2,53,54
 875 362 875 362 868.5 384 c 128,-1,55
 862 406 862 406 843.5 418.5 c 128,-1,56
 825 431 825 431 791.5 437.5 c 128,-1,57
 758 444 758 444 703 447 c 1,58,-1
 703 490 l 1,59,-1
 1288 490 l 1,60,-1
 1288 447 l 1,0,1
EndSplineSet
EndChar

StartChar: H
Encoding: 72 72 497
Width: 1327
Flags: W
LayerCount: 2
Fore
SplineSet
458 557 m 1,0,-1
 458 164 l 2,1,2
 458 132 458 132 464 111.5 c 128,-1,3
 470 91 470 91 487.5 77.5 c 128,-1,4
 505 64 505 64 534 56 c 128,-1,5
 563 48 563 48 611 42 c 1,6,-1
 611 0 l 1,7,-1
 36 0 l 1,8,-1
 36 42 l 1,9,10
 80 48 80 48 108.5 56 c 128,-1,11
 137 64 137 64 153 77.5 c 128,-1,12
 169 91 169 91 174.5 111.5 c 128,-1,13
 180 132 180 132 180 164 c 2,14,-1
 180 990 l 2,15,16
 180 1021 180 1021 174 1042.5 c 128,-1,17
 168 1064 168 1064 151 1078 c 128,-1,18
 134 1092 134 1092 106 1099 c 128,-1,19
 78 1106 78 1106 36 1110 c 1,20,-1
 36 1152 l 1,21,-1
 611 1152 l 1,22,-1
 611 1110 l 1,23,24
 565 1107 565 1107 536 1100 c 128,-1,25
 507 1093 507 1093 489 1078.5 c 128,-1,26
 471 1064 471 1064 464.5 1042.5 c 128,-1,27
 458 1021 458 1021 458 990 c 2,28,-1
 458 636 l 1,29,-1
 868 636 l 1,30,-1
 868 990 l 2,31,32
 868 1021 868 1021 861 1042.5 c 128,-1,33
 854 1064 854 1064 836 1078.5 c 128,-1,34
 818 1093 818 1093 788.5 1100 c 128,-1,35
 759 1107 759 1107 714 1110 c 1,36,-1
 714 1152 l 1,37,-1
 1295 1152 l 1,38,-1
 1295 1110 l 1,39,40
 1251 1107 1251 1107 1222.5 1100 c 128,-1,41
 1194 1093 1194 1093 1176.5 1078.5 c 128,-1,42
 1159 1064 1159 1064 1152 1042.5 c 128,-1,43
 1145 1021 1145 1021 1145 990 c 2,44,-1
 1145 164 l 2,45,46
 1145 132 1145 132 1151 111.5 c 128,-1,47
 1157 91 1157 91 1174 77.5 c 128,-1,48
 1191 64 1191 64 1220 56 c 128,-1,49
 1249 48 1249 48 1295 42 c 1,50,-1
 1295 0 l 1,51,-1
 714 0 l 1,52,-1
 714 42 l 1,53,54
 761 48 761 48 791 56 c 128,-1,55
 821 64 821 64 838.5 77.5 c 128,-1,56
 856 91 856 91 862 111.5 c 128,-1,57
 868 132 868 132 868 164 c 2,58,-1
 868 557 l 1,59,-1
 458 557 l 1,0,-1
EndSplineSet
EndChar

StartChar: I
Encoding: 73 73 498
Width: 663
Flags: W
LayerCount: 2
Fore
SplineSet
192 990 m 2,0,1
 192 1022 192 1022 184.5 1043.5 c 128,-1,2
 177 1065 177 1065 159 1079.5 c 128,-1,3
 141 1094 141 1094 110.5 1100.5 c 128,-1,4
 80 1107 80 1107 34 1110 c 1,5,-1
 34 1152 l 1,6,-1
 631 1152 l 1,7,-1
 631 1110 l 1,8,9
 584 1108 584 1108 552.5 1102 c 128,-1,10
 521 1096 521 1096 502.5 1081.5 c 128,-1,11
 484 1067 484 1067 476.5 1045 c 128,-1,12
 469 1023 469 1023 469 990 c 2,13,-1
 469 164 l 2,14,15
 469 130 469 130 476 108 c 128,-1,16
 483 86 483 86 501.5 72.5 c 128,-1,17
 520 59 520 59 551 52 c 128,-1,18
 582 45 582 45 631 42 c 1,19,-1
 631 0 l 1,20,-1
 34 0 l 1,21,-1
 34 42 l 1,22,23
 82 47 82 47 113 54.5 c 128,-1,24
 144 62 144 62 161.5 75.5 c 128,-1,25
 179 89 179 89 185.5 110 c 128,-1,26
 192 131 192 131 192 164 c 2,27,-1
 192 990 l 2,0,1
EndSplineSet
EndChar

StartChar: J
Encoding: 74 74 499
Width: 853
Flags: W
LayerCount: 2
Fore
SplineSet
665 210 m 2,0,1
 665 25 665 25 572.5 -69.5 c 128,-1,2
 480 -164 480 -164 300 -164 c 0,3,4
 249 -164 249 -164 201 -153 c 128,-1,5
 153 -142 153 -142 120 -125 c 0,6,7
 94 -111 94 -111 73.5 -89.5 c 128,-1,8
 53 -68 53 -68 37.5 -43.5 c 128,-1,9
 22 -19 22 -19 13.5 8 c 128,-1,10
 5 35 5 35 5 62 c 0,11,12
 5 86 5 86 14.5 108 c 128,-1,13
 24 130 24 130 41 147 c 128,-1,14
 58 164 58 164 79.5 174 c 128,-1,15
 101 184 101 184 124 184 c 0,16,17
 149 184 149 184 172 174 c 128,-1,18
 195 164 195 164 211.5 146 c 128,-1,19
 228 128 228 128 238.5 105 c 128,-1,20
 249 82 249 82 249 57 c 0,21,22
 249 37 249 37 244 24 c 128,-1,23
 239 11 239 11 223 -9 c 0,24,25
 212 -25 212 -25 207.5 -33.5 c 128,-1,26
 203 -42 203 -42 203 -53 c 0,27,28
 203 -77 203 -77 224.5 -92.5 c 128,-1,29
 246 -108 246 -108 280 -108 c 0,30,31
 338 -108 338 -108 363.5 -73 c 128,-1,32
 389 -38 389 -38 389 41 c 2,33,-1
 389 990 l 2,34,35
 389 1024 389 1024 381.5 1046.5 c 128,-1,36
 374 1069 374 1069 354.5 1082.5 c 128,-1,37
 335 1096 335 1096 302 1102 c 128,-1,38
 269 1108 269 1108 217 1110 c 1,39,-1
 217 1152 l 1,40,-1
 817 1152 l 1,41,-1
 817 1110 l 1,42,43
 769 1107 769 1107 739.5 1099.5 c 128,-1,44
 710 1092 710 1092 693.5 1074.5 c 128,-1,45
 677 1057 677 1057 671 1028.5 c 128,-1,46
 665 1000 665 1000 665 954 c 2,47,-1
 665 210 l 2,0,1
EndSplineSet
EndChar

StartChar: K
Encoding: 75 75 500
Width: 1327
Flags: W
LayerCount: 2
Fore
SplineSet
1312 0 m 1,0,-1
 739 0 l 1,1,-1
 739 42 l 1,2,3
 757 44 757 44 772 44 c 128,-1,4
 787 44 787 44 793 44 c 0,5,6
 836 46 836 46 855 54 c 128,-1,7
 874 62 874 62 874 78 c 0,8,9
 874 92 874 92 865.5 107 c 128,-1,10
 857 122 857 122 832 153 c 2,11,-1
 522 541 l 1,12,-1
 475 498 l 1,13,-1
 475 164 l 2,14,15
 475 132 475 132 481.5 111.5 c 128,-1,16
 488 91 488 91 504.5 77.5 c 128,-1,17
 521 64 521 64 550.5 56 c 128,-1,18
 580 48 580 48 626 42 c 1,19,-1
 626 0 l 1,20,-1
 51 0 l 1,21,-1
 51 42 l 1,22,23
 97 48 97 48 126.5 55.5 c 128,-1,24
 156 63 156 63 172 76 c 128,-1,25
 188 89 188 89 194 110 c 128,-1,26
 200 131 200 131 200 164 c 2,27,-1
 200 990 l 2,28,29
 200 1023 200 1023 193.5 1045 c 128,-1,30
 187 1067 187 1067 170 1081 c 128,-1,31
 153 1095 153 1095 124 1101 c 128,-1,32
 95 1107 95 1107 51 1110 c 1,33,-1
 51 1152 l 1,34,-1
 628 1152 l 1,35,-1
 628 1110 l 1,36,37
 581 1107 581 1107 551 1099.5 c 128,-1,38
 521 1092 521 1092 504 1074 c 128,-1,39
 487 1056 487 1056 481 1027.5 c 128,-1,40
 475 999 475 999 475 954 c 2,41,-1
 475 589 l 1,42,-1
 847 960 l 2,43,44
 866 980 866 980 878 993 c 128,-1,45
 890 1006 890 1006 897 1016.5 c 128,-1,46
 904 1027 904 1027 905.5 1035.5 c 128,-1,47
 907 1044 907 1044 907 1054 c 0,48,49
 907 1080 907 1080 889 1091.5 c 128,-1,50
 871 1103 871 1103 824 1105 c 0,51,52
 817 1107 817 1107 800.5 1107.5 c 128,-1,53
 784 1108 784 1108 762 1110 c 1,54,-1
 762 1152 l 1,55,-1
 1255 1152 l 1,56,-1
 1255 1110 l 1,57,58
 1214 1106 1214 1106 1180 1099.5 c 128,-1,59
 1146 1093 1146 1093 1112 1077.5 c 128,-1,60
 1078 1062 1078 1062 1040.5 1035.5 c 128,-1,61
 1003 1009 1003 1009 955.5 967.5 c 128,-1,62
 908 926 908 926 848 866 c 128,-1,63
 788 806 788 806 708 723 c 1,64,-1
 1229 78 l 2,65,66
 1246 59 1246 59 1263 51.5 c 128,-1,67
 1280 44 1280 44 1312 42 c 1,68,-1
 1312 0 l 1,0,-1
EndSplineSet
EndChar

StartChar: L
Encoding: 76 76 501
Width: 1138
Flags: W
LayerCount: 2
Fore
SplineSet
1019 0 m 1,0,-1
 32 0 l 1,1,-1
 32 42 l 1,2,3
 79 48 79 48 107.5 55.5 c 128,-1,4
 136 63 136 63 152.5 76 c 128,-1,5
 169 89 169 89 174 110 c 128,-1,6
 179 131 179 131 179 164 c 2,7,-1
 179 990 l 2,8,9
 179 1022 179 1022 172.5 1044 c 128,-1,10
 166 1066 166 1066 149 1080 c 128,-1,11
 132 1094 132 1094 103.5 1100.5 c 128,-1,12
 75 1107 75 1107 32 1110 c 1,13,-1
 32 1152 l 1,14,-1
 628 1152 l 1,15,-1
 628 1110 l 1,16,17
 572 1107 572 1107 538.5 1100.5 c 128,-1,18
 505 1094 505 1094 486 1077 c 128,-1,19
 467 1060 467 1060 461.5 1031 c 128,-1,20
 456 1002 456 1002 456 954 c 2,21,-1
 456 148 l 2,22,23
 456 121 456 121 462.5 102.5 c 128,-1,24
 469 84 469 84 485 73 c 128,-1,25
 501 62 501 62 527 57.5 c 128,-1,26
 553 53 553 53 592 53 c 0,27,28
 691 53 691 53 763.5 76 c 128,-1,29
 836 99 836 99 889 147 c 0,30,31
 911 168 911 168 929.5 189.5 c 128,-1,32
 948 211 948 211 965.5 238 c 128,-1,33
 983 265 983 265 1000.5 301 c 128,-1,34
 1018 337 1018 337 1039 387 c 1,35,-1
 1089 387 l 1,36,-1
 1019 0 l 1,0,-1
EndSplineSet
EndChar

StartChar: M
Encoding: 77 77 502
Width: 1610
Flags: W
LayerCount: 2
Fore
SplineSet
726 0 m 1,0,-1
 680 0 l 1,1,-1
 251 1013 l 1,2,-1
 251 212 l 2,3,4
 251 165 251 165 258.5 134 c 128,-1,5
 266 103 266 103 285 84 c 128,-1,6
 304 65 304 65 337 55.5 c 128,-1,7
 370 46 370 46 423 42 c 1,8,-1
 423 0 l 1,9,-1
 24 0 l 1,10,-1
 24 42 l 1,11,12
 74 48 74 48 104.5 55.5 c 128,-1,13
 135 63 135 63 152 77.5 c 128,-1,14
 169 92 169 92 174 116.5 c 128,-1,15
 179 141 179 141 179 179 c 2,16,-1
 179 990 l 2,17,18
 179 1023 179 1023 173 1044.5 c 128,-1,19
 167 1066 167 1066 150 1079.5 c 128,-1,20
 133 1093 133 1093 103.5 1099.5 c 128,-1,21
 74 1106 74 1106 27 1110 c 1,22,-1
 27 1152 l 1,23,-1
 459 1152 l 1,24,-1
 801 348 l 1,25,-1
 1141 1152 l 1,26,-1
 1571 1152 l 1,27,-1
 1571 1110 l 1,28,29
 1524 1107 1524 1107 1495 1099.5 c 128,-1,30
 1466 1092 1466 1092 1449.5 1074.5 c 128,-1,31
 1433 1057 1433 1057 1427 1028.5 c 128,-1,32
 1421 1000 1421 1000 1421 954 c 2,33,-1
 1421 200 l 2,34,35
 1421 154 1421 154 1426 126.5 c 128,-1,36
 1431 99 1431 99 1446 82.5 c 128,-1,37
 1461 66 1461 66 1491 57.5 c 128,-1,38
 1521 49 1521 49 1571 42 c 1,39,-1
 1571 0 l 1,40,-1
 1004 0 l 1,41,-1
 1004 42 l 1,42,43
 1053 47 1053 47 1082.5 54 c 128,-1,44
 1112 61 1112 61 1129 75 c 128,-1,45
 1146 89 1146 89 1151.5 111.5 c 128,-1,46
 1157 134 1157 134 1157 171 c 2,47,-1
 1157 1039 l 1,48,-1
 726 0 l 1,0,-1
EndSplineSet
EndChar

StartChar: N
Encoding: 78 78 503
Width: 1232
Flags: W
LayerCount: 2
Fore
SplineSet
988 421 m 1,0,-1
 988 941 l 2,1,2
 988 987 988 987 981 1017.5 c 128,-1,3
 974 1048 974 1048 956 1067 c 128,-1,4
 938 1086 938 1086 907 1095.5 c 128,-1,5
 876 1105 876 1105 829 1110 c 1,6,-1
 829 1152 l 1,7,-1
 1197 1152 l 1,8,-1
 1197 1110 l 1,9,10
 1155 1104 1155 1104 1129 1095.5 c 128,-1,11
 1103 1087 1103 1087 1088.5 1072 c 128,-1,12
 1074 1057 1074 1057 1068.5 1033.5 c 128,-1,13
 1063 1010 1063 1010 1063 974 c 2,14,-1
 1063 -30 l 1,15,-1
 1015 -30 l 1,16,-1
 253 897 l 1,17,-1
 253 212 l 2,18,19
 253 167 253 167 260 137 c 128,-1,20
 267 107 267 107 285 88 c 128,-1,21
 303 69 303 69 334.5 58.5 c 128,-1,22
 366 48 366 48 415 42 c 1,23,-1
 415 0 l 1,24,-1
 27 0 l 1,25,-1
 27 42 l 1,26,27
 74 48 74 48 103 56.5 c 128,-1,28
 132 65 132 65 149 80 c 128,-1,29
 166 95 166 95 171.5 118.5 c 128,-1,30
 177 142 177 142 177 179 c 2,31,-1
 177 988 l 1,32,33
 147 1024 147 1024 125.5 1048 c 128,-1,34
 104 1072 104 1072 87.5 1086 c 128,-1,35
 71 1100 71 1100 58 1105 c 128,-1,36
 45 1110 45 1110 32 1110 c 1,37,-1
 32 1152 l 1,38,-1
 392 1152 l 1,39,-1
 988 421 l 1,0,-1
EndSplineSet
EndChar

StartChar: O
Encoding: 79 79 504
Width: 1327
Flags: W
LayerCount: 2
Fore
SplineSet
670 1179 m 0,0,1
 799 1179 799 1179 908.5 1133.5 c 128,-1,2
 1018 1088 1018 1088 1098 1007 c 128,-1,3
 1178 926 1178 926 1223 815 c 128,-1,4
 1268 704 1268 704 1268 573 c 0,5,6
 1268 441 1268 441 1223.5 330 c 128,-1,7
 1179 219 1179 219 1098.5 138.5 c 128,-1,8
 1018 58 1018 58 907 13 c 128,-1,9
 796 -32 796 -32 663 -32 c 0,10,11
 531 -32 531 -32 420.5 12.5 c 128,-1,12
 310 57 310 57 229.5 137.5 c 128,-1,13
 149 218 149 218 104.5 328.5 c 128,-1,14
 60 439 60 439 60 571 c 0,15,16
 60 705 60 705 105 816 c 128,-1,17
 150 927 150 927 231.5 1008 c 128,-1,18
 313 1089 313 1089 424.5 1134 c 128,-1,19
 536 1179 536 1179 670 1179 c 0,0,1
669 1123 m 0,20,21
 519 1123 519 1123 440.5 977.5 c 128,-1,22
 362 832 362 832 362 557 c 0,23,24
 362 298 362 298 439 161 c 128,-1,25
 516 24 516 24 663 24 c 0,26,27
 811 24 811 24 888 161 c 128,-1,28
 965 298 965 298 965 562 c 0,29,30
 965 695 965 695 945 799.5 c 128,-1,31
 925 904 925 904 887.5 976 c 128,-1,32
 850 1048 850 1048 795 1085.5 c 128,-1,33
 740 1123 740 1123 669 1123 c 0,20,21
EndSplineSet
EndChar

StartChar: P
Encoding: 80 80 505
Width: 1042
Flags: W
LayerCount: 2
Fore
SplineSet
447 200 m 2,0,1
 447 153 447 153 451.5 125 c 128,-1,2
 456 97 456 97 471.5 81 c 128,-1,3
 487 65 487 65 517 57 c 128,-1,4
 547 49 547 49 597 42 c 1,5,-1
 597 0 l 1,6,-1
 27 0 l 1,7,-1
 27 42 l 1,8,9
 41 45 41 45 53 47 c 128,-1,10
 65 49 65 49 69 49 c 0,11,12
 98 53 98 53 117.5 62.5 c 128,-1,13
 137 72 137 72 149 89 c 128,-1,14
 161 106 161 106 166 133 c 128,-1,15
 171 160 171 160 171 200 c 2,16,-1
 171 954 l 2,17,18
 171 999 171 999 165.5 1027 c 128,-1,19
 160 1055 160 1055 144 1073 c 128,-1,20
 128 1091 128 1091 100.5 1098.5 c 128,-1,21
 73 1106 73 1106 27 1110 c 1,22,-1
 27 1152 l 1,23,-1
 576 1152 l 2,24,25
 683 1152 683 1152 766.5 1131.5 c 128,-1,26
 850 1111 850 1111 907 1071.5 c 128,-1,27
 964 1032 964 1032 994 974.5 c 128,-1,28
 1024 917 1024 917 1024 843 c 0,29,30
 1024 744 1024 744 969 669.5 c 128,-1,31
 914 595 914 595 810 555 c 0,32,33
 782 543 782 543 754.5 536 c 128,-1,34
 727 529 727 529 687.5 525 c 128,-1,35
 648 521 648 521 590.5 519.5 c 128,-1,36
 533 518 533 518 447 517 c 1,37,-1
 447 200 l 2,0,1
447 576 m 1,38,39
 492 576 492 576 526.5 578.5 c 128,-1,40
 561 581 561 581 586.5 587 c 128,-1,41
 612 593 612 593 631 602 c 128,-1,42
 650 611 650 611 665 623 c 0,43,44
 699 653 699 653 714.5 703 c 128,-1,45
 730 753 730 753 730 834 c 0,46,47
 730 904 730 904 719.5 953 c 128,-1,48
 709 1002 709 1002 685 1033 c 128,-1,49
 661 1064 661 1064 623 1079 c 128,-1,50
 585 1094 585 1094 532 1094 c 0,51,52
 447 1094 447 1094 447 1034 c 2,53,-1
 447 576 l 1,38,39
EndSplineSet
EndChar

